%TF.GenerationSoftware,KiCad,Pcbnew,7.0.2-6a45011f42~172~ubuntu22.04.1*%
%TF.CreationDate,2023-06-08T14:15:44-07:00*%
%TF.ProjectId,usb-breadboard-power,7573622d-6272-4656-9164-626f6172642d,v1.0*%
%TF.SameCoordinates,Original*%
%TF.FileFunction,Paste,Top*%
%TF.FilePolarity,Positive*%
%FSLAX46Y46*%
G04 Gerber Fmt 4.6, Leading zero omitted, Abs format (unit mm)*
G04 Created by KiCad (PCBNEW 7.0.2-6a45011f42~172~ubuntu22.04.1) date 2023-06-08 14:15:44*
%MOMM*%
%LPD*%
G01*
G04 APERTURE LIST*
G04 Aperture macros list*
%AMRoundRect*
0 Rectangle with rounded corners*
0 $1 Rounding radius*
0 $2 $3 $4 $5 $6 $7 $8 $9 X,Y pos of 4 corners*
0 Add a 4 corners polygon primitive as box body*
4,1,4,$2,$3,$4,$5,$6,$7,$8,$9,$2,$3,0*
0 Add four circle primitives for the rounded corners*
1,1,$1+$1,$2,$3*
1,1,$1+$1,$4,$5*
1,1,$1+$1,$6,$7*
1,1,$1+$1,$8,$9*
0 Add four rect primitives between the rounded corners*
20,1,$1+$1,$2,$3,$4,$5,0*
20,1,$1+$1,$4,$5,$6,$7,0*
20,1,$1+$1,$6,$7,$8,$9,0*
20,1,$1+$1,$8,$9,$2,$3,0*%
G04 Aperture macros list end*
%ADD10RoundRect,0.250000X-0.312500X-0.625000X0.312500X-0.625000X0.312500X0.625000X-0.312500X0.625000X0*%
%ADD11RoundRect,0.250000X0.312500X0.625000X-0.312500X0.625000X-0.312500X-0.625000X0.312500X-0.625000X0*%
%ADD12RoundRect,0.250000X-0.375000X-0.625000X0.375000X-0.625000X0.375000X0.625000X-0.375000X0.625000X0*%
%ADD13RoundRect,0.250000X-0.325000X-0.650000X0.325000X-0.650000X0.325000X0.650000X-0.325000X0.650000X0*%
%ADD14RoundRect,0.150000X0.150000X-0.512500X0.150000X0.512500X-0.150000X0.512500X-0.150000X-0.512500X0*%
%ADD15RoundRect,0.250000X0.312500X1.450000X-0.312500X1.450000X-0.312500X-1.450000X0.312500X-1.450000X0*%
%ADD16RoundRect,0.250000X-0.625000X0.375000X-0.625000X-0.375000X0.625000X-0.375000X0.625000X0.375000X0*%
%ADD17R,0.700000X1.200000*%
%ADD18R,0.760000X1.200000*%
%ADD19R,0.800000X1.200000*%
%ADD20R,2.510000X1.000000*%
%ADD21R,0.900000X0.425000*%
%ADD22R,1.000000X2.510000*%
%ADD23RoundRect,0.250000X-1.075000X0.375000X-1.075000X-0.375000X1.075000X-0.375000X1.075000X0.375000X0*%
%ADD24RoundRect,0.250000X0.375000X0.625000X-0.375000X0.625000X-0.375000X-0.625000X0.375000X-0.625000X0*%
%ADD25RoundRect,0.150000X0.512500X0.150000X-0.512500X0.150000X-0.512500X-0.150000X0.512500X-0.150000X0*%
%ADD26RoundRect,0.150000X-0.512500X-0.150000X0.512500X-0.150000X0.512500X0.150000X-0.512500X0.150000X0*%
%ADD27RoundRect,0.250000X0.325000X0.650000X-0.325000X0.650000X-0.325000X-0.650000X0.325000X-0.650000X0*%
%ADD28RoundRect,0.100000X0.637500X0.100000X-0.637500X0.100000X-0.637500X-0.100000X0.637500X-0.100000X0*%
%ADD29RoundRect,0.250000X0.650000X-0.325000X0.650000X0.325000X-0.650000X0.325000X-0.650000X-0.325000X0*%
%ADD30RoundRect,0.250000X-0.650000X0.325000X-0.650000X-0.325000X0.650000X-0.325000X0.650000X0.325000X0*%
%ADD31R,1.120000X2.440000*%
%ADD32RoundRect,0.250000X0.315000X-0.315000X0.315000X0.315000X-0.315000X0.315000X-0.315000X-0.315000X0*%
%ADD33RoundRect,0.062500X0.062500X-0.325000X0.062500X0.325000X-0.062500X0.325000X-0.062500X-0.325000X0*%
%ADD34RoundRect,0.062500X0.325000X-0.062500X0.325000X0.062500X-0.325000X0.062500X-0.325000X-0.062500X0*%
G04 APERTURE END LIST*
D10*
%TO.C,R14*%
X113337500Y-85800000D03*
X116262500Y-85800000D03*
%TD*%
%TO.C,R17*%
X117937500Y-91800000D03*
X120862500Y-91800000D03*
%TD*%
%TO.C,R6*%
X103887500Y-85800000D03*
X106812500Y-85800000D03*
%TD*%
D11*
%TO.C,R2*%
X102750000Y-98800000D03*
X99825000Y-98800000D03*
%TD*%
D10*
%TO.C,R8*%
X103887500Y-91050000D03*
X106812500Y-91050000D03*
%TD*%
D12*
%TO.C,D7*%
X121500000Y-108000000D03*
X124300000Y-108000000D03*
%TD*%
D13*
%TO.C,C6*%
X99825000Y-101125000D03*
X102775000Y-101125000D03*
%TD*%
%TO.C,C10*%
X119825000Y-100125000D03*
X122775000Y-100125000D03*
%TD*%
D14*
%TO.C,Q1*%
X84875000Y-99087500D03*
X86775000Y-99087500D03*
X85825000Y-96812500D03*
%TD*%
D10*
%TO.C,R12*%
X117937500Y-85800000D03*
X120862500Y-85800000D03*
%TD*%
%TO.C,R5*%
X108687500Y-88800000D03*
X111612500Y-88800000D03*
%TD*%
D15*
%TO.C,F1*%
X89187500Y-93950000D03*
X84912500Y-93950000D03*
%TD*%
D16*
%TO.C,D3*%
X123000000Y-91050000D03*
X123000000Y-93850000D03*
%TD*%
D10*
%TO.C,R3*%
X108687500Y-91050000D03*
X111612500Y-91050000D03*
%TD*%
D13*
%TO.C,C5*%
X118075000Y-94350000D03*
X121025000Y-94350000D03*
%TD*%
D17*
%TO.C,J1*%
X90020000Y-89980000D03*
D18*
X88000000Y-89980000D03*
D19*
X86770000Y-89980000D03*
D17*
X89020000Y-89980000D03*
D18*
X91040000Y-89980000D03*
D19*
X92270000Y-89980000D03*
%TD*%
D20*
%TO.C,JP1*%
X97200000Y-104140000D03*
X93890000Y-101600000D03*
X97200000Y-99060000D03*
%TD*%
D16*
%TO.C,D5*%
X128200000Y-91050000D03*
X128200000Y-93850000D03*
%TD*%
%TO.C,D4*%
X125600000Y-91050000D03*
X125600000Y-93850000D03*
%TD*%
D21*
%TO.C,RN1*%
X133000000Y-85600000D03*
X133000000Y-86400000D03*
X133000000Y-87200000D03*
X133000000Y-88000000D03*
X134700000Y-88000000D03*
X134700000Y-87200000D03*
X134700000Y-86400000D03*
X134700000Y-85600000D03*
%TD*%
D22*
%TO.C,JP2*%
X134615000Y-98670000D03*
X132075000Y-101980000D03*
X129535000Y-98670000D03*
%TD*%
D23*
%TO.C,L1*%
X117375000Y-97225000D03*
X117375000Y-100025000D03*
%TD*%
D11*
%TO.C,R18*%
X119562500Y-108000000D03*
X116637500Y-108000000D03*
%TD*%
D16*
%TO.C,D6*%
X130800000Y-91050000D03*
X130800000Y-93850000D03*
%TD*%
D13*
%TO.C,C9*%
X119850000Y-102475000D03*
X122800000Y-102475000D03*
%TD*%
D24*
%TO.C,D1*%
X108550000Y-95825000D03*
X105750000Y-95825000D03*
%TD*%
D11*
%TO.C,R1*%
X97462500Y-93800000D03*
X94537500Y-93800000D03*
%TD*%
D25*
%TO.C,U3*%
X122200000Y-98150000D03*
X122200000Y-97200000D03*
X122200000Y-96250000D03*
X119925000Y-96250000D03*
X119925000Y-97200000D03*
X119925000Y-98150000D03*
%TD*%
D26*
%TO.C,Q2*%
X88550000Y-97200000D03*
X88550000Y-99100000D03*
X90825000Y-98150000D03*
%TD*%
D11*
%TO.C,R9*%
X116312500Y-94350000D03*
X113387500Y-94350000D03*
%TD*%
D27*
%TO.C,C13*%
X94900000Y-106775000D03*
X91950000Y-106775000D03*
%TD*%
D20*
%TO.C,J2*%
X97900000Y-85210000D03*
X101210000Y-87750000D03*
X97900000Y-90290000D03*
%TD*%
D13*
%TO.C,C8*%
X99825000Y-103450000D03*
X102775000Y-103450000D03*
%TD*%
%TO.C,C3*%
X105700000Y-93450000D03*
X108650000Y-93450000D03*
%TD*%
D28*
%TO.C,U2*%
X128925000Y-88400000D03*
X128925000Y-87750000D03*
X128925000Y-87100000D03*
X128925000Y-86450000D03*
X128925000Y-85800000D03*
X128925000Y-85150000D03*
X128925000Y-84500000D03*
X123200000Y-84500000D03*
X123200000Y-85150000D03*
X123200000Y-85800000D03*
X123200000Y-86450000D03*
X123200000Y-87100000D03*
X123200000Y-87750000D03*
X123200000Y-88400000D03*
%TD*%
D29*
%TO.C,C4*%
X104800000Y-106125000D03*
X104800000Y-103175000D03*
%TD*%
D10*
%TO.C,R13*%
X117937500Y-88800000D03*
X120862500Y-88800000D03*
%TD*%
D30*
%TO.C,C1*%
X104800000Y-98550000D03*
X104800000Y-101500000D03*
%TD*%
D10*
%TO.C,R11*%
X102150000Y-108100000D03*
X105075000Y-108100000D03*
%TD*%
D31*
%TO.C,SW1*%
X113390000Y-99145000D03*
X110850000Y-99145000D03*
X108310000Y-99145000D03*
X108310000Y-107755000D03*
X110850000Y-107755000D03*
X113390000Y-107755000D03*
%TD*%
D27*
%TO.C,C12*%
X88950000Y-101300000D03*
X86000000Y-101300000D03*
%TD*%
D24*
%TO.C,D2*%
X100325000Y-108075000D03*
X97525000Y-108075000D03*
%TD*%
D10*
%TO.C,R4*%
X103887500Y-88800000D03*
X106812500Y-88800000D03*
%TD*%
D30*
%TO.C,C11*%
X117400000Y-102725000D03*
X117400000Y-105675000D03*
%TD*%
D32*
%TO.C,U1*%
X100850000Y-95512500D03*
X102250000Y-95512500D03*
X100850000Y-94112500D03*
X102250000Y-94112500D03*
D33*
X100300000Y-96800000D03*
X100800000Y-96800000D03*
X101300000Y-96800000D03*
X101800000Y-96800000D03*
X102300000Y-96800000D03*
X102800000Y-96800000D03*
D34*
X103537500Y-96062500D03*
X103537500Y-95562500D03*
X103537500Y-95062500D03*
X103537500Y-94562500D03*
X103537500Y-94062500D03*
X103537500Y-93562500D03*
D33*
X102800000Y-92825000D03*
X102300000Y-92825000D03*
X101800000Y-92825000D03*
X101300000Y-92825000D03*
X100800000Y-92825000D03*
X100300000Y-92825000D03*
D34*
X99562500Y-93562500D03*
X99562500Y-94062500D03*
X99562500Y-94562500D03*
X99562500Y-95062500D03*
X99562500Y-95562500D03*
X99562500Y-96062500D03*
%TD*%
D27*
%TO.C,C2*%
X97475000Y-96200000D03*
X94525000Y-96200000D03*
%TD*%
D21*
%TO.C,RN2*%
X134700000Y-93700000D03*
X134700000Y-92900000D03*
X134700000Y-92100000D03*
X134700000Y-91300000D03*
X133000000Y-91300000D03*
X133000000Y-92100000D03*
X133000000Y-92900000D03*
X133000000Y-93700000D03*
%TD*%
D30*
%TO.C,C7*%
X125325000Y-98450000D03*
X125325000Y-101400000D03*
%TD*%
D10*
%TO.C,R16*%
X113337500Y-91800000D03*
X116262500Y-91800000D03*
%TD*%
%TO.C,R10*%
X99812500Y-105800000D03*
X102737500Y-105800000D03*
%TD*%
%TO.C,R15*%
X113337500Y-88800000D03*
X116262500Y-88800000D03*
%TD*%
%TO.C,R7*%
X108687500Y-85800000D03*
X111612500Y-85800000D03*
%TD*%
M02*
