%TF.GenerationSoftware,KiCad,Pcbnew,7.0.2-6a45011f42~172~ubuntu22.04.1*%
%TF.CreationDate,2023-06-08T17:33:04-07:00*%
%TF.ProjectId,usb-breadboard-power,7573622d-6272-4656-9164-626f6172642d,v1.0*%
%TF.SameCoordinates,Original*%
%TF.FileFunction,Copper,L2,Bot*%
%TF.FilePolarity,Positive*%
%FSLAX46Y46*%
G04 Gerber Fmt 4.6, Leading zero omitted, Abs format (unit mm)*
G04 Created by KiCad (PCBNEW 7.0.2-6a45011f42~172~ubuntu22.04.1) date 2023-06-08 17:33:04*
%MOMM*%
%LPD*%
G01*
G04 APERTURE LIST*
%TA.AperFunction,ComponentPad*%
%ADD10C,1.850000*%
%TD*%
%TA.AperFunction,ComponentPad*%
%ADD11C,2.010000*%
%TD*%
%TA.AperFunction,ComponentPad*%
%ADD12R,1.700000X1.700000*%
%TD*%
%TA.AperFunction,ComponentPad*%
%ADD13O,1.700000X1.700000*%
%TD*%
%TA.AperFunction,ViaPad*%
%ADD14C,0.800000*%
%TD*%
%TA.AperFunction,Conductor*%
%ADD15C,0.250000*%
%TD*%
%TA.AperFunction,Conductor*%
%ADD16C,1.000000*%
%TD*%
%TA.AperFunction,Conductor*%
%ADD17C,0.200000*%
%TD*%
G04 APERTURE END LIST*
D10*
%TO.P,J1,MH1*%
%TO.N,N/C*%
X93840000Y-89900000D03*
%TO.P,J1,MH2*%
X85200000Y-89900000D03*
D11*
%TO.P,J1,MH3*%
X93840000Y-86100000D03*
%TO.P,J1,MH4*%
X85200000Y-86100000D03*
%TD*%
D12*
%TO.P,J4,1,Pin_1*%
%TO.N,GND*%
X131469000Y-104525000D03*
D13*
%TO.P,J4,2,Pin_2*%
X131469000Y-107065000D03*
%TO.P,J4,3,Pin_3*%
%TO.N,Net-(J4-Pin_3)*%
X134009000Y-104525000D03*
%TO.P,J4,4,Pin_4*%
X134009000Y-107065000D03*
%TD*%
D12*
%TO.P,J3,1,Pin_1*%
%TO.N,GND*%
X86981000Y-104525000D03*
D13*
%TO.P,J3,2,Pin_2*%
X86981000Y-107065000D03*
%TO.P,J3,3,Pin_3*%
%TO.N,Net-(J3-Pin_3)*%
X89521000Y-104525000D03*
%TO.P,J3,4,Pin_4*%
X89521000Y-107065000D03*
%TD*%
D14*
%TO.N,GND*%
X92250000Y-88550000D03*
X107450000Y-93250000D03*
X92725000Y-97250000D03*
X110200000Y-85800000D03*
X118100000Y-108000000D03*
X121500000Y-100125000D03*
X101650000Y-101125000D03*
X121350000Y-106125000D03*
X113638743Y-96050500D03*
X92775000Y-94975000D03*
X98650000Y-92900000D03*
X97000000Y-106350000D03*
X118369622Y-84180378D03*
X103625000Y-108075000D03*
X115650000Y-105550000D03*
X96350000Y-102550000D03*
X86750000Y-91400000D03*
X87150000Y-94875000D03*
X86750000Y-84550000D03*
X112050000Y-105900000D03*
X111600000Y-93450000D03*
X119875000Y-95350000D03*
X101950000Y-86350000D03*
X125994975Y-88075000D03*
X133850000Y-84600000D03*
X91350000Y-92675000D03*
X133850000Y-88950000D03*
X119700000Y-93050000D03*
X86750000Y-88550000D03*
X92250000Y-84550000D03*
X129025000Y-107000000D03*
X114375000Y-93125000D03*
X87475000Y-101300000D03*
X125300000Y-99925000D03*
X116450000Y-87300000D03*
X113400000Y-101050000D03*
X118250000Y-95849500D03*
X122425000Y-95250000D03*
X110150000Y-88800000D03*
%TO.N,VBUS*%
X93900000Y-99060000D03*
X125250000Y-97150000D03*
X94840000Y-99060000D03*
X92900000Y-99060000D03*
X123425000Y-97150000D03*
X126900000Y-90159223D03*
X124375000Y-97150000D03*
X112326605Y-95384151D03*
%TO.N,+3V3*%
X117400000Y-104140000D03*
X118375000Y-104140000D03*
X93550000Y-104150000D03*
X118575000Y-98750000D03*
X94500000Y-104140000D03*
X95350000Y-104140000D03*
X123613397Y-98249500D03*
X116475000Y-104140000D03*
%TO.N,Net-(U1-Vbus_Max)*%
X108310000Y-105425500D03*
X100999500Y-98144185D03*
X105350000Y-91050000D03*
X101250000Y-105239500D03*
%TO.N,Net-(U1-VDDD)*%
X102650000Y-89950000D03*
X98565844Y-95182395D03*
X119550000Y-94350000D03*
%TO.N,Net-(U1-VCCD)*%
X111100000Y-105350000D03*
X106500000Y-106125000D03*
X106800000Y-100600000D03*
X98649500Y-96300000D03*
%TO.N,Net-(U1-Isink_Fine)*%
X105350000Y-88800000D03*
X106593762Y-97383458D03*
%TO.N,Net-(U1-Isink_Course)*%
X105350000Y-85800000D03*
X106700000Y-98550000D03*
%TO.N,Net-(J2-Pin_1)*%
X102350000Y-85200000D03*
X104499500Y-96444153D03*
%TO.N,Net-(Q1-D)*%
X96000000Y-96200000D03*
X104704596Y-100325500D03*
%TO.N,Net-(RN1-R2.1)*%
X124794975Y-85075000D03*
X131550000Y-86350497D03*
%TO.N,Net-(RN1-R4.1)*%
X131550000Y-88349503D03*
X124794975Y-86475000D03*
%TO.N,Net-(RN1-R1.1)*%
X131550000Y-85350994D03*
X127194975Y-84475000D03*
X114800000Y-85800000D03*
%TO.N,Net-(RN1-R3.1)*%
X114800000Y-88800000D03*
X127194975Y-85875000D03*
X131550000Y-87350000D03*
%TO.N,Net-(U3-SW)*%
X117400000Y-98575000D03*
X118499500Y-101275000D03*
%TD*%
D15*
%TO.N,VBUS*%
X124945000Y-92114223D02*
X126900000Y-90159223D01*
D16*
X123425000Y-97150000D02*
X124375000Y-97150000D01*
X113132608Y-97100000D02*
X111950000Y-97100000D01*
X98480000Y-102700000D02*
X94840000Y-99060000D01*
X123425000Y-97150000D02*
X113182608Y-97150000D01*
X113182608Y-97150000D02*
X113132608Y-97100000D01*
D15*
X124945000Y-96820000D02*
X124945000Y-92114223D01*
D16*
X124375000Y-97150000D02*
X125250000Y-97150000D01*
X111950000Y-97100000D02*
X106350000Y-102700000D01*
X106350000Y-102700000D02*
X98480000Y-102700000D01*
D17*
X112326605Y-96723395D02*
X112326605Y-95384151D01*
D16*
X92900000Y-99060000D02*
X94840000Y-99060000D01*
%TO.N,+3V3*%
X93560000Y-104140000D02*
X94500000Y-104140000D01*
X93560000Y-104140000D02*
X118375000Y-104140000D01*
X94500000Y-104140000D02*
X95350000Y-104140000D01*
D17*
X123613397Y-98249500D02*
X119075500Y-98249500D01*
D16*
X93550000Y-104150000D02*
X93560000Y-104140000D01*
D17*
X119075500Y-98249500D02*
X118575000Y-98750000D01*
%TO.N,Net-(U1-Vbus_Max)*%
X108124000Y-105239500D02*
X101250000Y-105239500D01*
X105224711Y-98725000D02*
X105749711Y-99250000D01*
X100999500Y-98144185D02*
X101580315Y-98725000D01*
X107650000Y-98950000D02*
X107650000Y-97400000D01*
X107350000Y-99250000D02*
X107650000Y-98950000D01*
X101580315Y-98725000D02*
X105224711Y-98725000D01*
X108310000Y-105425500D02*
X108124000Y-105239500D01*
X107650000Y-97400000D02*
X105350000Y-95100000D01*
X105749711Y-99250000D02*
X107350000Y-99250000D01*
X105350000Y-95100000D02*
X105350000Y-91050000D01*
%TO.N,Net-(U1-VDDD)*%
X99550000Y-97684635D02*
X99550000Y-95300707D01*
X105059025Y-99125000D02*
X100990365Y-99125000D01*
X100999293Y-95300707D02*
X102650000Y-93650000D01*
X119350000Y-94150000D02*
X112570806Y-94150000D01*
X98565844Y-95182395D02*
X98684156Y-95300707D01*
X119550000Y-94350000D02*
X119350000Y-94150000D01*
X111626605Y-96292025D02*
X108268630Y-99650000D01*
X102650000Y-93650000D02*
X102650000Y-89950000D01*
X98684156Y-95300707D02*
X99550000Y-95300707D01*
X105584025Y-99650000D02*
X105059025Y-99125000D01*
X108268630Y-99650000D02*
X105584025Y-99650000D01*
X112570806Y-94150000D02*
X111626605Y-95094201D01*
X111626605Y-95094201D02*
X111626605Y-96292025D01*
X100990365Y-99125000D02*
X99550000Y-97684635D01*
X99550000Y-95300707D02*
X100999293Y-95300707D01*
%TO.N,Net-(U1-VCCD)*%
X98649500Y-96300000D02*
X98649500Y-97349820D01*
X106500000Y-106125000D02*
X110325000Y-106125000D01*
X104893339Y-99525000D02*
X105418339Y-100050000D01*
X106250000Y-100050000D02*
X106800000Y-100600000D01*
X105418339Y-100050000D02*
X106250000Y-100050000D01*
X98649500Y-97349820D02*
X100824679Y-99525000D01*
X100824679Y-99525000D02*
X104893339Y-99525000D01*
X110325000Y-106125000D02*
X111100000Y-105350000D01*
%TO.N,Net-(U1-Isink_Fine)*%
X106593762Y-97383458D02*
X106483458Y-97383458D01*
X104600000Y-95500000D02*
X104600000Y-89550000D01*
X106483458Y-97383458D02*
X104600000Y-95500000D01*
X104600000Y-89550000D02*
X105350000Y-88800000D01*
%TO.N,Net-(U1-Isink_Course)*%
X103800000Y-96734603D02*
X103800000Y-87350000D01*
X105615397Y-98550000D02*
X103800000Y-96734603D01*
X106700000Y-98550000D02*
X105615397Y-98550000D01*
X103800000Y-87350000D02*
X105350000Y-85800000D01*
%TO.N,Net-(J2-Pin_1)*%
X106400000Y-85450000D02*
X106050000Y-85100000D01*
X104499500Y-96444153D02*
X104200000Y-96144653D01*
X104200000Y-96144653D02*
X104200000Y-88200000D01*
X106050000Y-85100000D02*
X102450000Y-85100000D01*
X104200000Y-88200000D02*
X106400000Y-86000000D01*
X106400000Y-86000000D02*
X106400000Y-85450000D01*
X102450000Y-85100000D02*
X102350000Y-85200000D01*
%TO.N,Net-(Q1-D)*%
X104704596Y-100325500D02*
X104704096Y-100325000D01*
X104704096Y-100325000D02*
X100125000Y-100325000D01*
X100125000Y-100325000D02*
X96000000Y-96200000D01*
%TO.N,Net-(RN1-R2.1)*%
X130374503Y-85175000D02*
X124894975Y-85175000D01*
X131550000Y-86350497D02*
X130374503Y-85175000D01*
X124894975Y-85175000D02*
X124794975Y-85075000D01*
%TO.N,Net-(RN1-R4.1)*%
X124994975Y-86675000D02*
X124794975Y-86475000D01*
X131550000Y-88349503D02*
X129875497Y-86675000D01*
X129875497Y-86675000D02*
X124994975Y-86675000D01*
%TO.N,Net-(RN1-R1.1)*%
X122494975Y-84375000D02*
X127094975Y-84375000D01*
X114800000Y-85800000D02*
X121069975Y-85800000D01*
X131550000Y-85350994D02*
X130674006Y-84475000D01*
X127094975Y-84375000D02*
X127194975Y-84475000D01*
X121069975Y-85800000D02*
X122494975Y-84375000D01*
X130674006Y-84475000D02*
X127194975Y-84475000D01*
%TO.N,Net-(RN1-R3.1)*%
X131550000Y-87350000D02*
X130075000Y-85875000D01*
X130075000Y-85875000D02*
X127194975Y-85875000D01*
X120825000Y-88800000D02*
X123850000Y-85775000D01*
X123850000Y-85775000D02*
X127094975Y-85775000D01*
X127094975Y-85775000D02*
X127194975Y-85875000D01*
X114800000Y-88800000D02*
X120825000Y-88800000D01*
%TO.N,Net-(U3-SW)*%
X117400000Y-98575000D02*
X117400000Y-100175500D01*
X117400000Y-100175500D02*
X118499500Y-101275000D01*
%TD*%
%TA.AperFunction,Conductor*%
%TO.N,GND*%
G36*
X136958691Y-83669407D02*
G01*
X136994655Y-83718907D01*
X136999500Y-83749500D01*
X136999500Y-109250500D01*
X136980593Y-109308691D01*
X136931093Y-109344655D01*
X136900500Y-109349500D01*
X84099500Y-109349500D01*
X84041309Y-109330593D01*
X84005345Y-109281093D01*
X84000500Y-109250500D01*
X84000500Y-106814999D01*
X85959588Y-106814999D01*
X85959589Y-106815000D01*
X86547314Y-106815000D01*
X86521507Y-106855156D01*
X86481000Y-106993111D01*
X86481000Y-107136889D01*
X86521507Y-107274844D01*
X86547314Y-107315000D01*
X85959589Y-107315000D01*
X86006231Y-107468763D01*
X86103730Y-107651170D01*
X86234945Y-107811054D01*
X86394829Y-107942269D01*
X86577236Y-108039768D01*
X86730999Y-108086411D01*
X86731000Y-108086411D01*
X86731000Y-107500501D01*
X86838685Y-107549680D01*
X86945237Y-107565000D01*
X87016763Y-107565000D01*
X87123315Y-107549680D01*
X87231000Y-107500501D01*
X87231000Y-108086411D01*
X87384763Y-108039768D01*
X87567170Y-107942269D01*
X87727054Y-107811054D01*
X87858269Y-107651170D01*
X87955768Y-107468763D01*
X88002411Y-107315000D01*
X87414686Y-107315000D01*
X87440493Y-107274844D01*
X87481000Y-107136889D01*
X87481000Y-107065000D01*
X88465416Y-107065000D01*
X88485699Y-107270933D01*
X88545710Y-107468763D01*
X88545768Y-107468954D01*
X88643315Y-107651450D01*
X88774590Y-107811410D01*
X88934550Y-107942685D01*
X89117046Y-108040232D01*
X89315066Y-108100300D01*
X89521000Y-108120583D01*
X89726934Y-108100300D01*
X89924954Y-108040232D01*
X90107450Y-107942685D01*
X90267410Y-107811410D01*
X90398685Y-107651450D01*
X90496232Y-107468954D01*
X90556300Y-107270934D01*
X90576583Y-107065000D01*
X90569502Y-106993111D01*
X90556300Y-106859066D01*
X90542932Y-106814999D01*
X130447588Y-106814999D01*
X130447589Y-106815000D01*
X131035314Y-106815000D01*
X131009507Y-106855156D01*
X130969000Y-106993111D01*
X130969000Y-107136889D01*
X131009507Y-107274844D01*
X131035314Y-107315000D01*
X130447589Y-107315000D01*
X130494231Y-107468763D01*
X130591730Y-107651170D01*
X130722945Y-107811054D01*
X130882829Y-107942269D01*
X131065236Y-108039768D01*
X131218999Y-108086411D01*
X131219000Y-108086411D01*
X131219000Y-107500501D01*
X131326685Y-107549680D01*
X131433237Y-107565000D01*
X131504763Y-107565000D01*
X131611315Y-107549680D01*
X131719000Y-107500501D01*
X131719000Y-108086411D01*
X131872763Y-108039768D01*
X132055170Y-107942269D01*
X132215054Y-107811054D01*
X132346269Y-107651170D01*
X132443768Y-107468763D01*
X132490411Y-107315000D01*
X131902686Y-107315000D01*
X131928493Y-107274844D01*
X131969000Y-107136889D01*
X131969000Y-107065000D01*
X132953416Y-107065000D01*
X132973699Y-107270933D01*
X133033710Y-107468763D01*
X133033768Y-107468954D01*
X133131315Y-107651450D01*
X133262590Y-107811410D01*
X133422550Y-107942685D01*
X133605046Y-108040232D01*
X133803066Y-108100300D01*
X134009000Y-108120583D01*
X134214934Y-108100300D01*
X134412954Y-108040232D01*
X134595450Y-107942685D01*
X134755410Y-107811410D01*
X134886685Y-107651450D01*
X134984232Y-107468954D01*
X135044300Y-107270934D01*
X135064583Y-107065000D01*
X135044300Y-106859066D01*
X134984232Y-106661046D01*
X134886685Y-106478550D01*
X134755410Y-106318590D01*
X134595450Y-106187315D01*
X134412954Y-106089768D01*
X134412953Y-106089767D01*
X134412952Y-106089767D01*
X134214933Y-106029699D01*
X134009000Y-106009416D01*
X133803066Y-106029699D01*
X133605047Y-106089767D01*
X133422549Y-106187315D01*
X133262590Y-106318590D01*
X133131315Y-106478549D01*
X133033767Y-106661047D01*
X132973699Y-106859066D01*
X132953416Y-107065000D01*
X131969000Y-107065000D01*
X131969000Y-106993111D01*
X131928493Y-106855156D01*
X131902686Y-106815000D01*
X132490411Y-106815000D01*
X132490411Y-106814999D01*
X132443768Y-106661236D01*
X132346269Y-106478829D01*
X132215054Y-106318945D01*
X132055170Y-106187730D01*
X131872764Y-106090232D01*
X131719000Y-106043587D01*
X131719000Y-106629498D01*
X131611315Y-106580320D01*
X131504763Y-106565000D01*
X131433237Y-106565000D01*
X131326685Y-106580320D01*
X131219000Y-106629498D01*
X131219000Y-106043588D01*
X131218999Y-106043587D01*
X131065235Y-106090232D01*
X130882829Y-106187730D01*
X130722945Y-106318945D01*
X130591730Y-106478829D01*
X130494231Y-106661236D01*
X130447588Y-106814999D01*
X90542932Y-106814999D01*
X90518423Y-106734202D01*
X90496232Y-106661046D01*
X90398685Y-106478550D01*
X90267410Y-106318590D01*
X90107450Y-106187315D01*
X89924954Y-106089768D01*
X89924953Y-106089767D01*
X89924952Y-106089767D01*
X89726933Y-106029699D01*
X89521000Y-106009416D01*
X89315066Y-106029699D01*
X89117047Y-106089767D01*
X88934549Y-106187315D01*
X88774590Y-106318590D01*
X88643315Y-106478549D01*
X88545767Y-106661047D01*
X88485699Y-106859066D01*
X88465416Y-107065000D01*
X87481000Y-107065000D01*
X87481000Y-106993111D01*
X87440493Y-106855156D01*
X87414686Y-106815000D01*
X88002411Y-106815000D01*
X88002411Y-106814999D01*
X87955768Y-106661236D01*
X87858269Y-106478829D01*
X87727054Y-106318945D01*
X87567170Y-106187730D01*
X87384764Y-106090232D01*
X87231000Y-106043587D01*
X87231000Y-106629498D01*
X87123315Y-106580320D01*
X87016763Y-106565000D01*
X86945237Y-106565000D01*
X86838685Y-106580320D01*
X86731000Y-106629498D01*
X86731000Y-106043588D01*
X86730999Y-106043587D01*
X86577235Y-106090232D01*
X86394829Y-106187730D01*
X86234945Y-106318945D01*
X86103730Y-106478829D01*
X86006231Y-106661236D01*
X85959588Y-106814999D01*
X84000500Y-106814999D01*
X84000500Y-105394697D01*
X85931000Y-105394697D01*
X85942604Y-105453036D01*
X85986807Y-105519192D01*
X86052963Y-105563395D01*
X86111303Y-105575000D01*
X86730999Y-105575000D01*
X86731000Y-105574999D01*
X86731000Y-104960501D01*
X86838685Y-105009680D01*
X86945237Y-105025000D01*
X87016763Y-105025000D01*
X87123315Y-105009680D01*
X87231000Y-104960501D01*
X87231000Y-105574999D01*
X87231001Y-105575000D01*
X87850697Y-105575000D01*
X87909036Y-105563395D01*
X87975192Y-105519192D01*
X88019395Y-105453036D01*
X88031000Y-105394697D01*
X88031000Y-104775001D01*
X88030999Y-104775000D01*
X87414686Y-104775000D01*
X87440493Y-104734844D01*
X87481000Y-104596889D01*
X87481000Y-104525000D01*
X88465416Y-104525000D01*
X88485699Y-104730933D01*
X88543573Y-104921718D01*
X88545768Y-104928954D01*
X88643315Y-105111450D01*
X88774590Y-105271410D01*
X88934550Y-105402685D01*
X89117046Y-105500232D01*
X89262017Y-105544208D01*
X89315066Y-105560300D01*
X89520999Y-105580583D01*
X89520999Y-105580582D01*
X89521000Y-105580583D01*
X89726934Y-105560300D01*
X89924954Y-105500232D01*
X90107450Y-105402685D01*
X90267410Y-105271410D01*
X90398685Y-105111450D01*
X90496232Y-104928954D01*
X90556300Y-104730934D01*
X90576583Y-104525000D01*
X90556300Y-104319066D01*
X90496232Y-104121046D01*
X90398685Y-103938550D01*
X90267410Y-103778590D01*
X90107450Y-103647315D01*
X89924954Y-103549768D01*
X89924953Y-103549767D01*
X89924952Y-103549767D01*
X89726933Y-103489699D01*
X89521000Y-103469416D01*
X89315066Y-103489699D01*
X89117047Y-103549767D01*
X88934549Y-103647315D01*
X88774590Y-103778590D01*
X88643315Y-103938549D01*
X88545767Y-104121047D01*
X88485699Y-104319066D01*
X88465416Y-104525000D01*
X87481000Y-104525000D01*
X87481000Y-104453111D01*
X87440493Y-104315156D01*
X87414686Y-104275000D01*
X88030999Y-104275000D01*
X88031000Y-104274999D01*
X88031000Y-103655302D01*
X88019395Y-103596963D01*
X87975192Y-103530807D01*
X87909036Y-103486604D01*
X87850697Y-103475000D01*
X87231000Y-103475000D01*
X87231000Y-104089498D01*
X87123315Y-104040320D01*
X87016763Y-104025000D01*
X86945237Y-104025000D01*
X86838685Y-104040320D01*
X86731000Y-104089498D01*
X86731000Y-103475001D01*
X86730999Y-103475000D01*
X86111303Y-103475000D01*
X86052963Y-103486604D01*
X85986807Y-103530807D01*
X85942604Y-103596963D01*
X85931000Y-103655302D01*
X85931000Y-104274999D01*
X85931001Y-104275000D01*
X86547314Y-104275000D01*
X86521507Y-104315156D01*
X86481000Y-104453111D01*
X86481000Y-104596889D01*
X86521507Y-104734844D01*
X86547314Y-104775000D01*
X85931001Y-104775000D01*
X85931000Y-104775001D01*
X85931000Y-105394697D01*
X84000500Y-105394697D01*
X84000500Y-99145057D01*
X92199500Y-99145057D01*
X92240209Y-99310223D01*
X92319266Y-99460854D01*
X92432069Y-99588181D01*
X92432071Y-99588183D01*
X92572070Y-99684818D01*
X92731128Y-99745140D01*
X92857628Y-99760500D01*
X94508835Y-99760500D01*
X94567026Y-99779407D01*
X94578839Y-99789496D01*
X97967597Y-103178254D01*
X97971695Y-103182609D01*
X98012068Y-103228180D01*
X98012071Y-103228183D01*
X98056754Y-103259025D01*
X98093903Y-103307641D01*
X98095381Y-103368808D01*
X98060624Y-103419163D01*
X98002908Y-103439471D01*
X98000515Y-103439500D01*
X93584144Y-103439500D01*
X93578167Y-103439319D01*
X93575841Y-103439178D01*
X93517394Y-103435642D01*
X93457484Y-103446620D01*
X93451577Y-103447519D01*
X93391125Y-103454860D01*
X93379522Y-103459260D01*
X93362273Y-103464068D01*
X93350070Y-103466304D01*
X93294533Y-103491299D01*
X93289010Y-103493586D01*
X93232070Y-103515180D01*
X93221853Y-103522232D01*
X93206259Y-103531027D01*
X93194943Y-103536120D01*
X93147000Y-103573681D01*
X93142187Y-103577223D01*
X93092070Y-103611818D01*
X93051687Y-103657399D01*
X93047593Y-103661749D01*
X93024710Y-103684633D01*
X93022869Y-103686981D01*
X93022866Y-103686986D01*
X93004742Y-103710119D01*
X93000928Y-103714694D01*
X92981950Y-103736117D01*
X92979265Y-103739149D01*
X92977895Y-103741760D01*
X92968173Y-103756795D01*
X92946121Y-103784942D01*
X92876303Y-103940069D01*
X92845641Y-104107393D01*
X92855913Y-104277195D01*
X92906521Y-104439604D01*
X92906522Y-104439606D01*
X92994528Y-104585185D01*
X93114815Y-104705472D01*
X93260394Y-104793478D01*
X93362003Y-104825140D01*
X93422804Y-104844086D01*
X93592606Y-104854358D01*
X93659377Y-104842122D01*
X93677222Y-104840500D01*
X94457628Y-104840500D01*
X95392372Y-104840500D01*
X100617131Y-104840500D01*
X100675322Y-104859407D01*
X100711286Y-104908907D01*
X100711286Y-104970093D01*
X100708600Y-104977370D01*
X100700380Y-104997218D01*
X100664955Y-105082738D01*
X100644318Y-105239499D01*
X100664955Y-105396261D01*
X100725464Y-105542341D01*
X100821717Y-105667782D01*
X100859428Y-105696718D01*
X100947159Y-105764036D01*
X101093238Y-105824544D01*
X101250000Y-105845182D01*
X101406762Y-105824544D01*
X101552841Y-105764036D01*
X101678282Y-105667782D01*
X101743904Y-105582262D01*
X101746612Y-105578733D01*
X101797036Y-105544077D01*
X101825154Y-105540000D01*
X105991219Y-105540000D01*
X106049410Y-105558907D01*
X106085374Y-105608407D01*
X106085374Y-105669593D01*
X106069761Y-105699267D01*
X105975464Y-105822157D01*
X105914955Y-105968238D01*
X105894318Y-106125000D01*
X105914955Y-106281761D01*
X105975464Y-106427841D01*
X106071717Y-106553282D01*
X106167971Y-106627139D01*
X106197159Y-106649536D01*
X106343238Y-106710044D01*
X106500000Y-106730682D01*
X106656762Y-106710044D01*
X106802841Y-106649536D01*
X106928282Y-106553282D01*
X106985626Y-106478550D01*
X106996612Y-106464233D01*
X107047036Y-106429577D01*
X107075154Y-106425500D01*
X110259835Y-106425500D01*
X110275755Y-106428097D01*
X110282764Y-106427772D01*
X110282765Y-106427773D01*
X110329641Y-106425606D01*
X110334214Y-106425500D01*
X110352844Y-106425500D01*
X110352951Y-106425480D01*
X110366571Y-106423898D01*
X110394992Y-106422585D01*
X110403982Y-106418615D01*
X110425772Y-106411866D01*
X110435433Y-106410061D01*
X110459623Y-106395082D01*
X110471722Y-106388704D01*
X110497765Y-106377206D01*
X110504710Y-106370259D01*
X110522597Y-106356091D01*
X110530952Y-106350919D01*
X110548098Y-106328212D01*
X110557086Y-106317883D01*
X110905791Y-105969179D01*
X110960306Y-105941403D01*
X110988714Y-105941031D01*
X111100000Y-105955682D01*
X111256762Y-105935044D01*
X111402841Y-105874536D01*
X111528282Y-105778282D01*
X111624536Y-105652841D01*
X111685044Y-105506762D01*
X111699798Y-105394697D01*
X130419000Y-105394697D01*
X130430604Y-105453036D01*
X130474807Y-105519192D01*
X130540963Y-105563395D01*
X130599303Y-105575000D01*
X131218999Y-105575000D01*
X131219000Y-105574999D01*
X131219000Y-104960501D01*
X131326685Y-105009680D01*
X131433237Y-105025000D01*
X131504763Y-105025000D01*
X131611315Y-105009680D01*
X131719000Y-104960501D01*
X131719000Y-105574999D01*
X131719001Y-105575000D01*
X132338697Y-105575000D01*
X132397036Y-105563395D01*
X132463192Y-105519192D01*
X132507395Y-105453036D01*
X132519000Y-105394697D01*
X132519000Y-104775001D01*
X132518999Y-104775000D01*
X131902686Y-104775000D01*
X131928493Y-104734844D01*
X131969000Y-104596889D01*
X131969000Y-104525000D01*
X132953416Y-104525000D01*
X132973699Y-104730933D01*
X133031573Y-104921718D01*
X133033768Y-104928954D01*
X133131315Y-105111450D01*
X133262590Y-105271410D01*
X133422550Y-105402685D01*
X133605046Y-105500232D01*
X133750017Y-105544208D01*
X133803066Y-105560300D01*
X134008999Y-105580583D01*
X134008999Y-105580582D01*
X134009000Y-105580583D01*
X134214934Y-105560300D01*
X134412954Y-105500232D01*
X134595450Y-105402685D01*
X134755410Y-105271410D01*
X134886685Y-105111450D01*
X134984232Y-104928954D01*
X135044300Y-104730934D01*
X135064583Y-104525000D01*
X135044300Y-104319066D01*
X134984232Y-104121046D01*
X134886685Y-103938550D01*
X134755410Y-103778590D01*
X134595450Y-103647315D01*
X134412954Y-103549768D01*
X134412953Y-103549767D01*
X134412952Y-103549767D01*
X134214933Y-103489699D01*
X134009000Y-103469416D01*
X133803066Y-103489699D01*
X133605047Y-103549767D01*
X133422549Y-103647315D01*
X133262590Y-103778590D01*
X133131315Y-103938549D01*
X133033767Y-104121047D01*
X132973699Y-104319066D01*
X132953416Y-104525000D01*
X131969000Y-104525000D01*
X131969000Y-104453111D01*
X131928493Y-104315156D01*
X131902686Y-104275000D01*
X132518999Y-104275000D01*
X132519000Y-104274998D01*
X132519000Y-103655302D01*
X132507395Y-103596963D01*
X132463192Y-103530807D01*
X132397036Y-103486604D01*
X132338697Y-103475000D01*
X131719000Y-103475000D01*
X131719000Y-104089498D01*
X131611315Y-104040320D01*
X131504763Y-104025000D01*
X131433237Y-104025000D01*
X131326685Y-104040320D01*
X131219000Y-104089498D01*
X131219000Y-103475000D01*
X130599303Y-103475000D01*
X130540963Y-103486604D01*
X130474807Y-103530807D01*
X130430604Y-103596963D01*
X130419000Y-103655302D01*
X130419000Y-104274999D01*
X130419001Y-104275000D01*
X131035314Y-104275000D01*
X131009507Y-104315156D01*
X130969000Y-104453111D01*
X130969000Y-104596889D01*
X131009507Y-104734844D01*
X131035314Y-104775000D01*
X130419001Y-104775000D01*
X130419000Y-104775001D01*
X130419000Y-105394697D01*
X111699798Y-105394697D01*
X111705682Y-105350000D01*
X111685044Y-105193238D01*
X111624536Y-105047159D01*
X111588171Y-104999767D01*
X111567747Y-104942091D01*
X111585125Y-104883425D01*
X111633666Y-104846178D01*
X111666713Y-104840500D01*
X118414385Y-104840500D01*
X118417372Y-104840500D01*
X118543872Y-104825140D01*
X118702930Y-104764818D01*
X118842929Y-104668183D01*
X118916459Y-104585185D01*
X118955733Y-104540854D01*
X118964054Y-104525000D01*
X119034790Y-104390225D01*
X119075500Y-104225056D01*
X119075500Y-104054944D01*
X119034790Y-103889775D01*
X118997048Y-103817864D01*
X118955733Y-103739145D01*
X118842930Y-103611818D01*
X118790348Y-103575523D01*
X118702930Y-103515182D01*
X118596980Y-103475001D01*
X118543870Y-103454859D01*
X118420339Y-103439860D01*
X118420334Y-103439859D01*
X118417372Y-103439500D01*
X118414385Y-103439500D01*
X106829486Y-103439500D01*
X106771295Y-103420593D01*
X106735331Y-103371093D01*
X106735331Y-103309907D01*
X106771295Y-103260407D01*
X106773248Y-103259024D01*
X106790213Y-103247313D01*
X106817929Y-103228183D01*
X106858328Y-103182580D01*
X106862377Y-103178278D01*
X112211160Y-97829496D01*
X112265678Y-97801719D01*
X112281165Y-97800500D01*
X112899888Y-97800500D01*
X112940519Y-97809222D01*
X112972677Y-97823695D01*
X112984885Y-97825932D01*
X113002148Y-97830745D01*
X113013736Y-97835140D01*
X113074183Y-97842479D01*
X113080078Y-97843376D01*
X113140002Y-97854358D01*
X113200785Y-97850681D01*
X113206763Y-97850500D01*
X117082209Y-97850500D01*
X117140400Y-97869407D01*
X117176364Y-97918907D01*
X117176364Y-97980093D01*
X117140400Y-98029593D01*
X117120097Y-98040962D01*
X117112408Y-98044147D01*
X117097157Y-98050464D01*
X116971717Y-98146717D01*
X116875464Y-98272158D01*
X116814955Y-98418238D01*
X116794318Y-98574999D01*
X116814955Y-98731761D01*
X116875464Y-98877841D01*
X116971715Y-99003279D01*
X116971716Y-99003280D01*
X116971718Y-99003282D01*
X117060769Y-99071613D01*
X117095423Y-99122035D01*
X117099500Y-99150153D01*
X117099500Y-100110334D01*
X117096902Y-100126258D01*
X117099394Y-100180141D01*
X117099500Y-100184713D01*
X117099500Y-100203345D01*
X117099521Y-100203458D01*
X117101101Y-100217078D01*
X117102414Y-100245491D01*
X117106384Y-100254482D01*
X117113132Y-100276273D01*
X117114938Y-100285932D01*
X117129911Y-100310116D01*
X117136300Y-100322236D01*
X117147794Y-100348265D01*
X117147795Y-100348266D01*
X117154743Y-100355215D01*
X117168910Y-100373100D01*
X117174081Y-100381453D01*
X117196772Y-100398587D01*
X117207117Y-100407588D01*
X117880319Y-101080790D01*
X117908096Y-101135307D01*
X117908468Y-101163715D01*
X117893818Y-101274999D01*
X117914455Y-101431761D01*
X117974964Y-101577841D01*
X118071217Y-101703282D01*
X118167470Y-101777139D01*
X118196659Y-101799536D01*
X118342738Y-101860044D01*
X118499500Y-101880682D01*
X118656262Y-101860044D01*
X118802341Y-101799536D01*
X118927782Y-101703282D01*
X119024036Y-101577841D01*
X119084544Y-101431762D01*
X119105182Y-101275000D01*
X119084544Y-101118238D01*
X119024036Y-100972159D01*
X118992593Y-100931181D01*
X118927782Y-100846717D01*
X118802341Y-100750464D01*
X118656261Y-100689955D01*
X118520136Y-100672034D01*
X118499500Y-100669318D01*
X118499499Y-100669318D01*
X118388215Y-100683968D01*
X118328055Y-100672818D01*
X118305290Y-100655819D01*
X117729496Y-100080025D01*
X117701719Y-100025508D01*
X117700500Y-100010021D01*
X117700500Y-99150153D01*
X117719407Y-99091962D01*
X117739227Y-99071615D01*
X117828282Y-99003282D01*
X117842416Y-98984862D01*
X117854856Y-98968651D01*
X117905280Y-98933995D01*
X117966445Y-98935596D01*
X118014986Y-98972844D01*
X118024861Y-98991030D01*
X118031134Y-99006174D01*
X118050464Y-99052841D01*
X118146717Y-99178282D01*
X118242971Y-99252139D01*
X118272159Y-99274536D01*
X118418238Y-99335044D01*
X118575000Y-99355682D01*
X118731762Y-99335044D01*
X118877841Y-99274536D01*
X119003282Y-99178282D01*
X119099536Y-99052841D01*
X119160044Y-98906762D01*
X119180682Y-98750000D01*
X119169086Y-98661920D01*
X119180236Y-98601761D01*
X119224618Y-98559644D01*
X119267239Y-98550000D01*
X123038243Y-98550000D01*
X123096434Y-98568907D01*
X123116785Y-98588733D01*
X123185114Y-98677782D01*
X123250898Y-98728259D01*
X123310556Y-98774036D01*
X123456635Y-98834544D01*
X123613397Y-98855182D01*
X123770159Y-98834544D01*
X123916238Y-98774036D01*
X124041679Y-98677782D01*
X124137933Y-98552341D01*
X124198441Y-98406262D01*
X124219079Y-98249500D01*
X124198441Y-98092738D01*
X124154801Y-97987383D01*
X124150001Y-97926389D01*
X124181970Y-97874220D01*
X124238498Y-97850805D01*
X124246266Y-97850500D01*
X125289385Y-97850500D01*
X125292372Y-97850500D01*
X125418872Y-97835140D01*
X125577930Y-97774818D01*
X125717929Y-97678183D01*
X125774331Y-97614517D01*
X125830733Y-97550854D01*
X125843180Y-97527139D01*
X125909790Y-97400225D01*
X125950500Y-97235056D01*
X125950500Y-97064944D01*
X125941689Y-97029197D01*
X125909790Y-96899776D01*
X125909790Y-96899775D01*
X125863289Y-96811176D01*
X125830733Y-96749145D01*
X125717930Y-96621818D01*
X125717929Y-96621817D01*
X125577930Y-96525182D01*
X125418872Y-96464860D01*
X125357566Y-96457416D01*
X125302079Y-96431632D01*
X125272344Y-96378158D01*
X125270500Y-96359138D01*
X125270500Y-92290055D01*
X125289407Y-92231864D01*
X125299490Y-92220057D01*
X126737034Y-90782513D01*
X126791549Y-90754738D01*
X126819952Y-90754366D01*
X126900000Y-90764905D01*
X127056762Y-90744267D01*
X127202841Y-90683759D01*
X127328282Y-90587505D01*
X127424536Y-90462064D01*
X127485044Y-90315985D01*
X127505682Y-90159223D01*
X127485044Y-90002461D01*
X127424536Y-89856382D01*
X127376084Y-89793238D01*
X127328282Y-89730940D01*
X127202841Y-89634687D01*
X127056761Y-89574178D01*
X126900000Y-89553541D01*
X126743238Y-89574178D01*
X126597158Y-89634687D01*
X126471717Y-89730940D01*
X126375464Y-89856381D01*
X126314955Y-90002461D01*
X126294318Y-90159223D01*
X126304855Y-90239264D01*
X126293705Y-90299424D01*
X126276706Y-90322189D01*
X124727940Y-91870955D01*
X124721574Y-91876788D01*
X124691804Y-91901768D01*
X124672371Y-91935427D01*
X124667734Y-91942707D01*
X124645444Y-91974541D01*
X124645053Y-91976003D01*
X124635168Y-91999868D01*
X124634410Y-92001179D01*
X124627662Y-92039446D01*
X124625794Y-92047872D01*
X124615735Y-92085415D01*
X124619122Y-92124128D01*
X124619499Y-92132756D01*
X124619500Y-96350500D01*
X124600593Y-96408691D01*
X124551093Y-96444655D01*
X124520500Y-96449500D01*
X113415328Y-96449500D01*
X113374698Y-96440778D01*
X113342540Y-96426305D01*
X113330329Y-96424067D01*
X113313073Y-96419256D01*
X113301481Y-96414860D01*
X113241045Y-96407521D01*
X113235137Y-96406622D01*
X113175212Y-96395641D01*
X113114431Y-96399319D01*
X113108453Y-96399500D01*
X112726105Y-96399500D01*
X112667914Y-96380593D01*
X112631950Y-96331093D01*
X112627105Y-96300500D01*
X112627105Y-95959304D01*
X112646012Y-95901113D01*
X112665832Y-95880766D01*
X112754887Y-95812433D01*
X112851141Y-95686992D01*
X112911649Y-95540913D01*
X112932287Y-95384151D01*
X112911649Y-95227389D01*
X112851141Y-95081310D01*
X112792657Y-95005092D01*
X112754887Y-94955868D01*
X112629447Y-94859615D01*
X112561672Y-94831542D01*
X112523591Y-94815768D01*
X112477067Y-94776032D01*
X112462783Y-94716537D01*
X112486198Y-94660009D01*
X112491475Y-94654301D01*
X112548426Y-94597351D01*
X112666280Y-94479496D01*
X112720797Y-94451719D01*
X112736284Y-94450500D01*
X118875502Y-94450500D01*
X118933693Y-94469407D01*
X118966966Y-94511614D01*
X119025464Y-94652842D01*
X119121717Y-94778282D01*
X119170572Y-94815769D01*
X119247159Y-94874536D01*
X119393238Y-94935044D01*
X119550000Y-94955682D01*
X119706762Y-94935044D01*
X119852841Y-94874536D01*
X119978282Y-94778282D01*
X120074536Y-94652841D01*
X120135044Y-94506762D01*
X120155682Y-94350000D01*
X120135044Y-94193238D01*
X120074536Y-94047159D01*
X120005445Y-93957117D01*
X119978282Y-93921717D01*
X119852841Y-93825464D01*
X119706761Y-93764955D01*
X119550000Y-93744318D01*
X119393238Y-93764955D01*
X119247160Y-93825463D01*
X119247158Y-93825464D01*
X119247159Y-93825464D01*
X119242493Y-93829043D01*
X119184820Y-93849466D01*
X119182229Y-93849500D01*
X112635972Y-93849500D01*
X112620051Y-93846902D01*
X112566165Y-93849394D01*
X112561593Y-93849500D01*
X112542960Y-93849500D01*
X112542837Y-93849523D01*
X112529226Y-93851101D01*
X112500815Y-93852414D01*
X112491822Y-93856385D01*
X112470033Y-93863132D01*
X112460371Y-93864938D01*
X112436186Y-93879912D01*
X112424065Y-93886301D01*
X112398040Y-93897792D01*
X112391090Y-93904743D01*
X112373214Y-93918903D01*
X112364854Y-93924080D01*
X112347713Y-93946777D01*
X112338716Y-93957117D01*
X111460194Y-94835639D01*
X111447102Y-94845060D01*
X111410746Y-94884938D01*
X111407594Y-94888239D01*
X111394430Y-94901404D01*
X111394359Y-94901508D01*
X111385861Y-94912235D01*
X111366688Y-94933268D01*
X111363135Y-94942439D01*
X111352500Y-94962615D01*
X111346948Y-94970720D01*
X111340435Y-94998408D01*
X111336382Y-95011497D01*
X111326105Y-95038027D01*
X111326105Y-95047854D01*
X111323475Y-95070519D01*
X111321226Y-95080082D01*
X111324972Y-95106934D01*
X111325156Y-95108254D01*
X111326105Y-95121931D01*
X111326105Y-96126546D01*
X111307198Y-96184737D01*
X111297109Y-96196550D01*
X108173155Y-99320504D01*
X108118638Y-99348281D01*
X108103151Y-99349500D01*
X107916646Y-99349500D01*
X107858455Y-99330593D01*
X107822491Y-99281093D01*
X107822491Y-99219907D01*
X107843483Y-99183806D01*
X107865855Y-99159264D01*
X107868994Y-99155975D01*
X107882174Y-99142797D01*
X107882238Y-99142702D01*
X107890745Y-99131961D01*
X107909916Y-99110933D01*
X107913466Y-99101766D01*
X107924104Y-99081585D01*
X107929656Y-99073481D01*
X107936169Y-99045785D01*
X107940221Y-99032702D01*
X107950500Y-99006173D01*
X107950500Y-98996342D01*
X107953128Y-98973685D01*
X107955379Y-98964119D01*
X107951448Y-98935951D01*
X107950499Y-98922271D01*
X107950499Y-98210767D01*
X107950499Y-97465159D01*
X107953097Y-97449245D01*
X107950606Y-97395357D01*
X107950500Y-97390785D01*
X107950500Y-97372156D01*
X107950480Y-97372050D01*
X107948898Y-97358430D01*
X107947585Y-97330008D01*
X107943612Y-97321012D01*
X107936866Y-97299223D01*
X107935061Y-97289567D01*
X107932018Y-97284653D01*
X107920088Y-97265384D01*
X107913696Y-97253257D01*
X107902205Y-97227233D01*
X107895256Y-97220284D01*
X107881090Y-97202399D01*
X107875919Y-97194048D01*
X107853221Y-97176907D01*
X107842879Y-97167908D01*
X105679496Y-95004524D01*
X105651719Y-94950007D01*
X105650500Y-94934520D01*
X105650500Y-91625153D01*
X105669407Y-91566962D01*
X105689227Y-91546615D01*
X105778282Y-91478282D01*
X105874536Y-91352841D01*
X105935044Y-91206762D01*
X105955682Y-91050000D01*
X105935044Y-90893238D01*
X105874536Y-90747159D01*
X105825887Y-90683758D01*
X105778282Y-90621717D01*
X105652841Y-90525464D01*
X105506761Y-90464955D01*
X105350000Y-90444318D01*
X105193238Y-90464955D01*
X105037386Y-90529512D01*
X104976389Y-90534313D01*
X104924220Y-90502343D01*
X104900805Y-90445815D01*
X104900500Y-90438048D01*
X104900500Y-89715477D01*
X104919407Y-89657286D01*
X104929484Y-89645486D01*
X105155791Y-89419178D01*
X105210306Y-89391403D01*
X105238714Y-89391031D01*
X105350000Y-89405682D01*
X105506762Y-89385044D01*
X105652841Y-89324536D01*
X105778282Y-89228282D01*
X105874536Y-89102841D01*
X105935044Y-88956762D01*
X105955682Y-88800000D01*
X114194318Y-88800000D01*
X114214955Y-88956761D01*
X114275464Y-89102841D01*
X114371717Y-89228282D01*
X114467970Y-89302139D01*
X114497159Y-89324536D01*
X114643238Y-89385044D01*
X114800000Y-89405682D01*
X114956762Y-89385044D01*
X115102841Y-89324536D01*
X115228282Y-89228282D01*
X115296610Y-89139233D01*
X115347036Y-89104577D01*
X115375154Y-89100500D01*
X120759835Y-89100500D01*
X120775755Y-89103097D01*
X120782764Y-89102772D01*
X120782765Y-89102773D01*
X120829641Y-89100606D01*
X120834214Y-89100500D01*
X120852844Y-89100500D01*
X120852951Y-89100480D01*
X120866571Y-89098898D01*
X120894992Y-89097585D01*
X120903982Y-89093615D01*
X120925772Y-89086866D01*
X120935433Y-89085061D01*
X120959623Y-89070082D01*
X120971722Y-89063704D01*
X120997765Y-89052206D01*
X121004710Y-89045259D01*
X121022597Y-89031091D01*
X121030952Y-89025919D01*
X121048095Y-89003216D01*
X121057082Y-88992887D01*
X123945474Y-86104496D01*
X123999992Y-86076719D01*
X124015479Y-86075500D01*
X124162313Y-86075500D01*
X124220504Y-86094407D01*
X124256468Y-86143907D01*
X124256468Y-86205093D01*
X124253781Y-86212372D01*
X124237408Y-86251901D01*
X124209930Y-86318238D01*
X124189293Y-86475000D01*
X124209930Y-86631761D01*
X124270439Y-86777841D01*
X124366692Y-86903282D01*
X124390719Y-86921718D01*
X124492134Y-86999536D01*
X124638213Y-87060044D01*
X124794975Y-87080682D01*
X124951737Y-87060044D01*
X125097816Y-86999536D01*
X125102481Y-86995956D01*
X125160155Y-86975534D01*
X125162746Y-86975500D01*
X129710018Y-86975500D01*
X129768209Y-86994407D01*
X129780022Y-87004496D01*
X130930819Y-88155293D01*
X130958596Y-88209810D01*
X130958968Y-88238218D01*
X130944318Y-88349502D01*
X130964955Y-88506264D01*
X131025464Y-88652344D01*
X131121717Y-88777785D01*
X131217971Y-88851642D01*
X131247159Y-88874039D01*
X131393238Y-88934547D01*
X131550000Y-88955185D01*
X131706762Y-88934547D01*
X131852841Y-88874039D01*
X131978282Y-88777785D01*
X132074536Y-88652344D01*
X132135044Y-88506265D01*
X132155682Y-88349503D01*
X132135044Y-88192741D01*
X132074536Y-88046662D01*
X132053256Y-88018929D01*
X131970348Y-87910880D01*
X131973742Y-87908275D01*
X131952850Y-87877894D01*
X131954436Y-87816729D01*
X131973243Y-87790845D01*
X131970347Y-87788623D01*
X132020141Y-87723730D01*
X132074536Y-87652841D01*
X132135044Y-87506762D01*
X132155682Y-87350000D01*
X132135044Y-87193238D01*
X132074536Y-87047159D01*
X132037993Y-86999535D01*
X131970348Y-86911377D01*
X131973742Y-86908772D01*
X131952850Y-86878391D01*
X131954436Y-86817226D01*
X131973243Y-86791342D01*
X131970347Y-86789120D01*
X132010085Y-86737332D01*
X132074536Y-86653338D01*
X132135044Y-86507259D01*
X132155682Y-86350497D01*
X132135044Y-86193735D01*
X132074536Y-86047656D01*
X132032505Y-85992880D01*
X131970348Y-85911874D01*
X131973742Y-85909269D01*
X131952850Y-85878888D01*
X131954436Y-85817723D01*
X131973243Y-85791839D01*
X131970347Y-85789617D01*
X132020286Y-85724535D01*
X132074536Y-85653835D01*
X132135044Y-85507756D01*
X132155682Y-85350994D01*
X132135044Y-85194232D01*
X132074536Y-85048153D01*
X132030506Y-84990772D01*
X131978282Y-84922711D01*
X131852841Y-84826458D01*
X131706761Y-84765949D01*
X131570636Y-84748028D01*
X131550000Y-84745312D01*
X131549999Y-84745312D01*
X131438715Y-84759962D01*
X131378555Y-84748812D01*
X131355790Y-84731813D01*
X130932572Y-84308595D01*
X130923151Y-84295501D01*
X130883279Y-84259152D01*
X130879973Y-84255995D01*
X130866802Y-84242825D01*
X130866703Y-84242757D01*
X130855960Y-84234247D01*
X130834940Y-84215085D01*
X130834939Y-84215084D01*
X130825768Y-84211531D01*
X130805593Y-84200896D01*
X130797487Y-84195344D01*
X130769803Y-84188832D01*
X130756710Y-84184777D01*
X130730181Y-84174500D01*
X130730179Y-84174500D01*
X130720354Y-84174500D01*
X130697688Y-84171870D01*
X130688125Y-84169621D01*
X130688124Y-84169621D01*
X130659953Y-84173551D01*
X130646275Y-84174500D01*
X127770129Y-84174500D01*
X127711938Y-84155593D01*
X127691587Y-84135767D01*
X127623257Y-84046717D01*
X127497816Y-83950464D01*
X127351736Y-83889955D01*
X127215611Y-83872034D01*
X127194975Y-83869318D01*
X127194974Y-83869318D01*
X127038213Y-83889955D01*
X126892133Y-83950464D01*
X126757148Y-84054042D01*
X126699472Y-84074466D01*
X126696881Y-84074500D01*
X122560140Y-84074500D01*
X122544219Y-84071902D01*
X122490333Y-84074394D01*
X122485761Y-84074500D01*
X122467129Y-84074500D01*
X122467006Y-84074523D01*
X122453395Y-84076101D01*
X122424982Y-84077414D01*
X122415984Y-84081387D01*
X122394199Y-84088133D01*
X122389686Y-84088977D01*
X122384540Y-84089939D01*
X122360362Y-84104909D01*
X122348240Y-84111299D01*
X122322207Y-84122794D01*
X122315254Y-84129747D01*
X122297377Y-84143907D01*
X122289024Y-84149079D01*
X122271885Y-84171774D01*
X122262887Y-84182113D01*
X120974500Y-85470503D01*
X120919983Y-85498281D01*
X120904496Y-85499500D01*
X115375154Y-85499500D01*
X115316963Y-85480593D01*
X115296612Y-85460767D01*
X115228282Y-85371717D01*
X115102841Y-85275464D01*
X114956761Y-85214955D01*
X114800000Y-85194318D01*
X114643238Y-85214955D01*
X114497158Y-85275464D01*
X114371717Y-85371717D01*
X114275464Y-85497158D01*
X114214955Y-85643238D01*
X114194318Y-85800000D01*
X114214955Y-85956761D01*
X114275464Y-86102841D01*
X114371717Y-86228282D01*
X114411186Y-86258567D01*
X114497159Y-86324536D01*
X114643238Y-86385044D01*
X114800000Y-86405682D01*
X114956762Y-86385044D01*
X115102841Y-86324536D01*
X115228282Y-86228282D01*
X115242876Y-86209263D01*
X115296612Y-86139233D01*
X115347036Y-86104577D01*
X115375154Y-86100500D01*
X121004810Y-86100500D01*
X121020730Y-86103097D01*
X121027739Y-86102772D01*
X121027740Y-86102773D01*
X121074616Y-86100606D01*
X121079189Y-86100500D01*
X121097819Y-86100500D01*
X121097926Y-86100480D01*
X121111546Y-86098898D01*
X121139967Y-86097585D01*
X121148957Y-86093615D01*
X121170747Y-86086866D01*
X121180408Y-86085061D01*
X121204598Y-86070082D01*
X121216697Y-86063704D01*
X121242740Y-86052206D01*
X121249685Y-86045259D01*
X121267572Y-86031091D01*
X121275927Y-86025919D01*
X121293070Y-86003216D01*
X121302057Y-85992887D01*
X122590449Y-84704496D01*
X122644967Y-84676719D01*
X122660454Y-84675500D01*
X124162313Y-84675500D01*
X124220504Y-84694407D01*
X124256468Y-84743907D01*
X124256468Y-84805093D01*
X124253781Y-84812372D01*
X124242303Y-84840085D01*
X124209930Y-84918238D01*
X124189293Y-85075000D01*
X124209930Y-85231761D01*
X124231669Y-85284243D01*
X124253777Y-85337615D01*
X124258578Y-85398611D01*
X124226609Y-85450780D01*
X124170081Y-85474195D01*
X124162313Y-85474500D01*
X123915165Y-85474500D01*
X123899244Y-85471902D01*
X123845358Y-85474394D01*
X123840786Y-85474500D01*
X123822154Y-85474500D01*
X123822031Y-85474523D01*
X123808420Y-85476101D01*
X123780008Y-85477414D01*
X123771015Y-85481385D01*
X123749228Y-85488132D01*
X123739566Y-85489938D01*
X123715381Y-85504912D01*
X123703261Y-85511301D01*
X123677234Y-85522794D01*
X123670285Y-85529743D01*
X123652408Y-85543904D01*
X123644047Y-85549081D01*
X123626907Y-85571777D01*
X123617910Y-85582117D01*
X120729525Y-88470504D01*
X120675008Y-88498281D01*
X120659521Y-88499500D01*
X115375154Y-88499500D01*
X115316963Y-88480593D01*
X115296612Y-88460767D01*
X115228282Y-88371717D01*
X115102841Y-88275464D01*
X114956761Y-88214955D01*
X114800000Y-88194318D01*
X114643238Y-88214955D01*
X114497158Y-88275464D01*
X114371717Y-88371717D01*
X114275464Y-88497158D01*
X114214955Y-88643238D01*
X114194318Y-88800000D01*
X105955682Y-88800000D01*
X105935044Y-88643238D01*
X105874536Y-88497159D01*
X105846612Y-88460767D01*
X105778282Y-88371717D01*
X105652841Y-88275464D01*
X105506761Y-88214955D01*
X105350000Y-88194318D01*
X105193238Y-88214955D01*
X105047158Y-88275464D01*
X104921717Y-88371717D01*
X104825464Y-88497158D01*
X104764955Y-88643238D01*
X104744318Y-88800000D01*
X104758968Y-88911283D01*
X104747818Y-88971443D01*
X104730819Y-88994208D01*
X104669503Y-89055524D01*
X104614986Y-89083301D01*
X104554554Y-89073730D01*
X104511289Y-89030465D01*
X104500500Y-88985524D01*
X104500500Y-88365477D01*
X104519407Y-88307287D01*
X104529490Y-88295480D01*
X106566405Y-86258564D01*
X106579496Y-86249147D01*
X106584225Y-86243959D01*
X106584228Y-86243958D01*
X106615877Y-86209239D01*
X106618994Y-86205975D01*
X106632174Y-86192797D01*
X106632238Y-86192702D01*
X106640745Y-86181961D01*
X106659916Y-86160933D01*
X106663464Y-86151771D01*
X106674103Y-86131587D01*
X106679657Y-86123481D01*
X106686171Y-86095782D01*
X106690220Y-86082705D01*
X106700500Y-86056173D01*
X106700500Y-86046346D01*
X106703130Y-86023679D01*
X106705379Y-86014119D01*
X106701447Y-85985931D01*
X106700499Y-85972282D01*
X106700499Y-85515173D01*
X106703097Y-85499253D01*
X106702666Y-85489938D01*
X106700606Y-85445358D01*
X106700500Y-85440786D01*
X106700500Y-85422156D01*
X106700480Y-85422050D01*
X106698898Y-85408430D01*
X106697585Y-85380009D01*
X106693614Y-85371016D01*
X106686866Y-85349225D01*
X106685061Y-85339567D01*
X106683852Y-85337614D01*
X106670086Y-85315381D01*
X106663693Y-85303251D01*
X106652206Y-85277234D01*
X106645256Y-85270284D01*
X106631090Y-85252399D01*
X106625919Y-85244048D01*
X106603221Y-85226907D01*
X106592879Y-85217908D01*
X106308566Y-84933595D01*
X106299145Y-84920501D01*
X106259273Y-84884152D01*
X106255967Y-84880995D01*
X106242796Y-84867825D01*
X106242697Y-84867757D01*
X106231954Y-84859247D01*
X106210934Y-84840085D01*
X106210933Y-84840084D01*
X106201762Y-84836531D01*
X106181587Y-84825896D01*
X106173481Y-84820344D01*
X106145797Y-84813832D01*
X106132704Y-84809777D01*
X106106175Y-84799500D01*
X106106173Y-84799500D01*
X106096348Y-84799500D01*
X106073682Y-84796870D01*
X106064119Y-84794621D01*
X106064118Y-84794621D01*
X106035947Y-84798551D01*
X106022269Y-84799500D01*
X102848094Y-84799500D01*
X102789903Y-84780593D01*
X102787827Y-84779042D01*
X102652841Y-84675464D01*
X102506761Y-84614955D01*
X102350000Y-84594318D01*
X102193238Y-84614955D01*
X102047158Y-84675464D01*
X101921717Y-84771717D01*
X101825464Y-84897158D01*
X101764955Y-85043238D01*
X101744318Y-85200000D01*
X101764955Y-85356761D01*
X101825464Y-85502841D01*
X101921717Y-85628282D01*
X102003157Y-85690772D01*
X102047159Y-85724536D01*
X102193238Y-85785044D01*
X102350000Y-85805682D01*
X102506762Y-85785044D01*
X102652841Y-85724536D01*
X102778282Y-85628282D01*
X102874536Y-85502841D01*
X102891613Y-85461612D01*
X102931351Y-85415088D01*
X102983077Y-85400500D01*
X104717338Y-85400500D01*
X104775529Y-85419407D01*
X104811493Y-85468907D01*
X104811493Y-85530093D01*
X104808806Y-85537372D01*
X104795449Y-85569621D01*
X104764955Y-85643238D01*
X104744318Y-85800000D01*
X104758968Y-85911283D01*
X104747818Y-85971443D01*
X104730819Y-85994208D01*
X103633589Y-87091438D01*
X103620497Y-87100859D01*
X103584141Y-87140737D01*
X103580989Y-87144038D01*
X103567825Y-87157203D01*
X103567754Y-87157307D01*
X103559256Y-87168034D01*
X103540083Y-87189067D01*
X103536530Y-87198238D01*
X103525895Y-87218414D01*
X103520343Y-87226519D01*
X103513830Y-87254207D01*
X103509777Y-87267296D01*
X103499500Y-87293826D01*
X103499500Y-87303653D01*
X103496870Y-87326319D01*
X103494621Y-87335879D01*
X103498551Y-87364053D01*
X103499500Y-87377730D01*
X103499500Y-96669437D01*
X103496902Y-96685361D01*
X103499394Y-96739244D01*
X103499500Y-96743816D01*
X103499500Y-96762448D01*
X103499521Y-96762561D01*
X103501101Y-96776181D01*
X103502414Y-96804594D01*
X103506384Y-96813585D01*
X103513132Y-96835376D01*
X103514938Y-96845035D01*
X103529911Y-96869219D01*
X103536300Y-96881339D01*
X103547794Y-96907368D01*
X103547795Y-96907369D01*
X103554743Y-96914318D01*
X103568910Y-96932203D01*
X103574081Y-96940556D01*
X103596772Y-96957690D01*
X103607117Y-96966691D01*
X104895922Y-98255496D01*
X104923699Y-98310013D01*
X104914128Y-98370445D01*
X104870863Y-98413710D01*
X104825918Y-98424500D01*
X101745795Y-98424500D01*
X101687604Y-98405593D01*
X101675791Y-98395504D01*
X101618680Y-98338393D01*
X101590903Y-98283876D01*
X101590531Y-98255470D01*
X101605182Y-98144185D01*
X101584544Y-97987423D01*
X101524036Y-97841344D01*
X101472988Y-97774817D01*
X101427782Y-97715902D01*
X101302341Y-97619649D01*
X101156261Y-97559140D01*
X101012534Y-97540219D01*
X100999500Y-97538503D01*
X100999499Y-97538503D01*
X100842738Y-97559140D01*
X100696658Y-97619649D01*
X100571217Y-97715902D01*
X100474964Y-97841343D01*
X100431118Y-97947196D01*
X100391381Y-97993722D01*
X100331886Y-98008005D01*
X100275358Y-97984590D01*
X100269650Y-97979314D01*
X99879496Y-97589160D01*
X99851719Y-97534643D01*
X99850500Y-97519156D01*
X99850500Y-95700207D01*
X99869407Y-95642016D01*
X99918907Y-95606052D01*
X99949500Y-95601207D01*
X100934128Y-95601207D01*
X100950048Y-95603804D01*
X100957057Y-95603479D01*
X100957058Y-95603480D01*
X101003934Y-95601313D01*
X101008507Y-95601207D01*
X101027137Y-95601207D01*
X101027244Y-95601187D01*
X101040864Y-95599605D01*
X101069285Y-95598292D01*
X101078275Y-95594322D01*
X101100065Y-95587573D01*
X101109726Y-95585768D01*
X101133916Y-95570789D01*
X101146015Y-95564411D01*
X101172058Y-95552913D01*
X101179003Y-95545966D01*
X101196890Y-95531798D01*
X101205245Y-95526626D01*
X101222388Y-95503923D01*
X101231375Y-95493594D01*
X102816405Y-93908564D01*
X102829496Y-93899147D01*
X102834225Y-93893959D01*
X102834228Y-93893958D01*
X102865877Y-93859239D01*
X102868994Y-93855975D01*
X102882174Y-93842797D01*
X102882238Y-93842702D01*
X102890745Y-93831961D01*
X102909916Y-93810933D01*
X102913466Y-93801766D01*
X102924104Y-93781585D01*
X102929656Y-93773481D01*
X102936169Y-93745785D01*
X102940221Y-93732702D01*
X102950500Y-93706173D01*
X102950500Y-93696342D01*
X102953128Y-93673685D01*
X102955379Y-93664119D01*
X102951448Y-93635951D01*
X102950499Y-93622271D01*
X102950499Y-92085415D01*
X102950499Y-90525149D01*
X102969406Y-90466962D01*
X102989227Y-90446615D01*
X103078282Y-90378282D01*
X103078285Y-90378279D01*
X103096451Y-90354603D01*
X103174536Y-90252841D01*
X103235044Y-90106762D01*
X103255682Y-89950000D01*
X103235044Y-89793238D01*
X103174536Y-89647159D01*
X103102701Y-89553541D01*
X103078282Y-89521717D01*
X102952841Y-89425464D01*
X102806761Y-89364955D01*
X102650000Y-89344318D01*
X102493238Y-89364955D01*
X102347158Y-89425464D01*
X102221717Y-89521717D01*
X102125464Y-89647158D01*
X102064955Y-89793238D01*
X102044318Y-89950000D01*
X102064955Y-90106761D01*
X102125464Y-90252841D01*
X102221715Y-90378279D01*
X102221716Y-90378280D01*
X102221718Y-90378282D01*
X102310769Y-90446613D01*
X102345423Y-90497035D01*
X102349500Y-90525153D01*
X102349500Y-93484521D01*
X102330593Y-93542712D01*
X102320504Y-93554525D01*
X100903818Y-94971211D01*
X100849301Y-94998988D01*
X100833814Y-95000207D01*
X99605727Y-95000207D01*
X99578636Y-94996428D01*
X99578207Y-94996306D01*
X99540662Y-94999785D01*
X99531528Y-95000207D01*
X99206506Y-95000207D01*
X99148315Y-94981300D01*
X99115042Y-94939093D01*
X99103917Y-94912235D01*
X99090380Y-94879554D01*
X99028651Y-94799107D01*
X98994126Y-94754112D01*
X98868685Y-94657859D01*
X98722605Y-94597350D01*
X98565844Y-94576713D01*
X98409082Y-94597350D01*
X98263002Y-94657859D01*
X98137561Y-94754112D01*
X98041308Y-94879553D01*
X97980799Y-95025633D01*
X97960162Y-95182394D01*
X97980799Y-95339156D01*
X98041308Y-95485236D01*
X98137559Y-95610674D01*
X98137560Y-95610675D01*
X98137562Y-95610677D01*
X98247131Y-95694752D01*
X98281785Y-95745174D01*
X98280184Y-95806338D01*
X98247131Y-95851833D01*
X98221217Y-95871717D01*
X98124964Y-95997158D01*
X98064455Y-96143238D01*
X98043818Y-96300000D01*
X98064455Y-96456761D01*
X98124964Y-96602841D01*
X98221215Y-96728279D01*
X98221216Y-96728280D01*
X98221218Y-96728282D01*
X98310269Y-96796613D01*
X98344923Y-96847035D01*
X98349000Y-96875153D01*
X98348999Y-97284653D01*
X98346402Y-97300576D01*
X98348894Y-97354460D01*
X98349000Y-97359032D01*
X98349000Y-97377665D01*
X98349021Y-97377778D01*
X98350601Y-97391398D01*
X98351914Y-97419810D01*
X98355884Y-97428801D01*
X98362633Y-97450592D01*
X98364439Y-97460253D01*
X98379412Y-97484436D01*
X98385803Y-97496561D01*
X98397294Y-97522586D01*
X98404243Y-97529535D01*
X98418410Y-97547420D01*
X98423581Y-97555773D01*
X98446272Y-97572907D01*
X98456617Y-97581908D01*
X100566115Y-99691407D01*
X100575536Y-99704501D01*
X100615405Y-99740847D01*
X100618710Y-99744003D01*
X100631880Y-99757173D01*
X100631974Y-99757237D01*
X100642718Y-99765746D01*
X100663746Y-99784916D01*
X100672909Y-99788465D01*
X100693092Y-99799103D01*
X100701198Y-99804656D01*
X100728890Y-99811169D01*
X100741977Y-99815222D01*
X100768506Y-99825500D01*
X100778331Y-99825500D01*
X100801001Y-99828131D01*
X100805252Y-99829131D01*
X100814097Y-99834495D01*
X100831563Y-99827450D01*
X100838731Y-99826450D01*
X100852410Y-99825500D01*
X104130593Y-99825500D01*
X104188784Y-99844407D01*
X104224748Y-99893907D01*
X104224748Y-99955093D01*
X104209147Y-99984751D01*
X104208380Y-99985751D01*
X104157963Y-100020417D01*
X104129826Y-100024500D01*
X100845242Y-100024500D01*
X100821057Y-100016642D01*
X100820886Y-100016790D01*
X100782582Y-100024500D01*
X100290479Y-100024500D01*
X100232288Y-100005593D01*
X100220475Y-99995504D01*
X96619180Y-96394209D01*
X96591403Y-96339692D01*
X96591031Y-96311283D01*
X96592451Y-96300500D01*
X96605682Y-96200000D01*
X96585044Y-96043238D01*
X96524536Y-95897159D01*
X96476470Y-95834518D01*
X96428282Y-95771717D01*
X96302841Y-95675464D01*
X96156761Y-95614955D01*
X96000000Y-95594318D01*
X95843238Y-95614955D01*
X95697158Y-95675464D01*
X95571717Y-95771717D01*
X95475464Y-95897158D01*
X95414955Y-96043238D01*
X95394318Y-96200000D01*
X95414955Y-96356761D01*
X95475464Y-96502841D01*
X95571717Y-96628282D01*
X95625352Y-96669437D01*
X95697159Y-96724536D01*
X95843238Y-96785044D01*
X96000000Y-96805682D01*
X96111284Y-96791031D01*
X96171444Y-96802181D01*
X96194209Y-96819180D01*
X99866436Y-100491407D01*
X99875857Y-100504501D01*
X99915726Y-100540847D01*
X99919031Y-100544003D01*
X99932201Y-100557173D01*
X99932295Y-100557237D01*
X99943039Y-100565746D01*
X99964067Y-100584916D01*
X99968684Y-100586704D01*
X99973225Y-100588464D01*
X99993411Y-100599103D01*
X100001519Y-100604657D01*
X100029214Y-100611170D01*
X100042290Y-100615219D01*
X100068827Y-100625500D01*
X100078653Y-100625500D01*
X100101318Y-100628129D01*
X100110881Y-100630379D01*
X100139053Y-100626448D01*
X100152730Y-100625500D01*
X104129058Y-100625500D01*
X104187249Y-100644407D01*
X104207600Y-100664233D01*
X104276313Y-100753782D01*
X104372566Y-100827639D01*
X104401755Y-100850036D01*
X104547834Y-100910544D01*
X104704596Y-100931182D01*
X104861358Y-100910544D01*
X105007437Y-100850036D01*
X105132878Y-100753782D01*
X105229132Y-100628341D01*
X105289640Y-100482262D01*
X105294998Y-100441556D01*
X105321339Y-100386330D01*
X105375110Y-100357135D01*
X105389211Y-100357472D01*
X105404218Y-100355378D01*
X105404220Y-100355379D01*
X105432392Y-100351448D01*
X105446070Y-100350500D01*
X106084521Y-100350500D01*
X106142712Y-100369407D01*
X106154525Y-100379496D01*
X106180819Y-100405790D01*
X106208596Y-100460307D01*
X106208968Y-100488715D01*
X106194318Y-100599999D01*
X106214955Y-100756761D01*
X106275464Y-100902841D01*
X106371717Y-101028282D01*
X106440148Y-101080790D01*
X106497159Y-101124536D01*
X106643237Y-101185044D01*
X106643238Y-101185044D01*
X106648379Y-101185721D01*
X106703605Y-101212061D01*
X106732801Y-101265831D01*
X106724816Y-101326493D01*
X106705463Y-101353877D01*
X106088839Y-101970503D01*
X106034322Y-101998281D01*
X106018835Y-101999500D01*
X98811165Y-101999500D01*
X98752974Y-101980593D01*
X98741161Y-101970504D01*
X95352401Y-98581744D01*
X95348302Y-98577389D01*
X95307929Y-98531817D01*
X95257799Y-98497214D01*
X95252991Y-98493676D01*
X95205056Y-98456121D01*
X95193746Y-98451031D01*
X95178138Y-98442228D01*
X95167931Y-98435182D01*
X95139764Y-98424500D01*
X95110974Y-98413581D01*
X95105481Y-98411305D01*
X95049932Y-98386305D01*
X95037721Y-98384067D01*
X95020465Y-98379256D01*
X95008873Y-98374860D01*
X94948437Y-98367521D01*
X94942529Y-98366622D01*
X94882604Y-98355641D01*
X94821823Y-98359319D01*
X94815845Y-98359500D01*
X92857628Y-98359500D01*
X92854666Y-98359859D01*
X92854660Y-98359860D01*
X92731129Y-98374859D01*
X92572070Y-98435182D01*
X92432069Y-98531818D01*
X92319266Y-98659145D01*
X92240209Y-98809776D01*
X92199500Y-98974942D01*
X92199500Y-99145057D01*
X84000500Y-99145057D01*
X84000500Y-90437025D01*
X84019407Y-90378834D01*
X84068907Y-90342870D01*
X84130093Y-90342870D01*
X84179593Y-90378834D01*
X84188121Y-90392897D01*
X84238979Y-90495035D01*
X84238980Y-90495036D01*
X84238981Y-90495038D01*
X84364682Y-90661493D01*
X84518829Y-90802016D01*
X84696172Y-90911823D01*
X84849468Y-90971210D01*
X84890675Y-90987174D01*
X85095705Y-91025500D01*
X85095707Y-91025500D01*
X85304295Y-91025500D01*
X85509324Y-90987174D01*
X85509327Y-90987173D01*
X85703828Y-90911823D01*
X85881171Y-90802016D01*
X86035318Y-90661493D01*
X86161019Y-90495038D01*
X86253994Y-90308319D01*
X86311076Y-90107696D01*
X86330322Y-89900000D01*
X92709678Y-89900000D01*
X92728924Y-90107696D01*
X92783475Y-90299424D01*
X92786007Y-90308321D01*
X92878979Y-90495035D01*
X92878980Y-90495036D01*
X92878981Y-90495038D01*
X93004682Y-90661493D01*
X93158829Y-90802016D01*
X93336172Y-90911823D01*
X93489468Y-90971210D01*
X93530675Y-90987174D01*
X93735705Y-91025500D01*
X93735707Y-91025500D01*
X93944295Y-91025500D01*
X94149324Y-90987174D01*
X94149327Y-90987173D01*
X94343828Y-90911823D01*
X94521171Y-90802016D01*
X94675318Y-90661493D01*
X94801019Y-90495038D01*
X94893994Y-90308319D01*
X94951076Y-90107696D01*
X94970322Y-89900000D01*
X94951076Y-89692304D01*
X94893994Y-89491681D01*
X94801019Y-89304962D01*
X94675318Y-89138507D01*
X94521171Y-88997984D01*
X94418718Y-88934547D01*
X94343830Y-88888178D01*
X94343828Y-88888177D01*
X94302623Y-88872214D01*
X94149324Y-88812825D01*
X93944295Y-88774500D01*
X93944293Y-88774500D01*
X93735707Y-88774500D01*
X93735705Y-88774500D01*
X93530675Y-88812825D01*
X93336169Y-88888178D01*
X93158831Y-88997982D01*
X93004682Y-89138506D01*
X92878979Y-89304964D01*
X92801336Y-89460894D01*
X92786006Y-89491681D01*
X92728924Y-89692304D01*
X92709678Y-89900000D01*
X86330322Y-89900000D01*
X86311076Y-89692304D01*
X86253994Y-89491681D01*
X86161019Y-89304962D01*
X86035318Y-89138507D01*
X85881171Y-88997984D01*
X85778718Y-88934547D01*
X85703830Y-88888178D01*
X85703828Y-88888177D01*
X85662623Y-88872214D01*
X85509324Y-88812825D01*
X85304295Y-88774500D01*
X85304293Y-88774500D01*
X85095707Y-88774500D01*
X85095705Y-88774500D01*
X84890675Y-88812825D01*
X84696169Y-88888178D01*
X84518831Y-88997982D01*
X84364682Y-89138506D01*
X84238979Y-89304964D01*
X84188121Y-89407102D01*
X84145258Y-89450765D01*
X84084917Y-89460894D01*
X84030146Y-89433621D01*
X84001866Y-89379364D01*
X84000500Y-89362974D01*
X84000500Y-86807362D01*
X84019407Y-86749171D01*
X84068907Y-86713207D01*
X84130093Y-86713207D01*
X84178502Y-86747699D01*
X84305309Y-86915619D01*
X84470412Y-87066131D01*
X84660361Y-87183742D01*
X84868686Y-87264448D01*
X84868689Y-87264449D01*
X85088292Y-87305500D01*
X85088294Y-87305500D01*
X85311708Y-87305500D01*
X85531310Y-87264449D01*
X85531311Y-87264448D01*
X85531314Y-87264448D01*
X85739639Y-87183742D01*
X85929588Y-87066131D01*
X86094691Y-86915619D01*
X86229327Y-86737332D01*
X86328911Y-86537342D01*
X86390050Y-86322459D01*
X86410664Y-86100000D01*
X92629336Y-86100000D01*
X92633141Y-86141060D01*
X92649950Y-86322460D01*
X92711089Y-86537343D01*
X92810671Y-86737329D01*
X92810672Y-86737330D01*
X92810673Y-86737332D01*
X92945309Y-86915619D01*
X93110412Y-87066131D01*
X93300361Y-87183742D01*
X93508686Y-87264448D01*
X93508689Y-87264449D01*
X93728292Y-87305500D01*
X93728294Y-87305500D01*
X93951708Y-87305500D01*
X94171310Y-87264449D01*
X94171311Y-87264448D01*
X94171314Y-87264448D01*
X94379639Y-87183742D01*
X94569588Y-87066131D01*
X94734691Y-86915619D01*
X94869327Y-86737332D01*
X94968911Y-86537342D01*
X95030050Y-86322459D01*
X95050664Y-86100000D01*
X95030050Y-85877541D01*
X94968911Y-85662658D01*
X94869327Y-85462668D01*
X94734691Y-85284381D01*
X94569588Y-85133869D01*
X94474511Y-85075000D01*
X94379641Y-85016259D01*
X94379639Y-85016258D01*
X94228242Y-84957606D01*
X94171310Y-84935550D01*
X93951708Y-84894500D01*
X93951706Y-84894500D01*
X93728294Y-84894500D01*
X93728292Y-84894500D01*
X93508689Y-84935550D01*
X93300358Y-85016259D01*
X93110414Y-85133867D01*
X93110411Y-85133869D01*
X93110412Y-85133869D01*
X92945309Y-85284381D01*
X92873095Y-85380008D01*
X92810671Y-85462670D01*
X92711089Y-85662656D01*
X92649950Y-85877539D01*
X92630346Y-86089104D01*
X92629336Y-86100000D01*
X86410664Y-86100000D01*
X86390050Y-85877541D01*
X86328911Y-85662658D01*
X86229327Y-85462668D01*
X86094691Y-85284381D01*
X85929588Y-85133869D01*
X85834511Y-85075000D01*
X85739641Y-85016259D01*
X85739639Y-85016258D01*
X85588242Y-84957606D01*
X85531310Y-84935550D01*
X85311708Y-84894500D01*
X85311706Y-84894500D01*
X85088294Y-84894500D01*
X85088292Y-84894500D01*
X84868689Y-84935550D01*
X84660358Y-85016259D01*
X84470414Y-85133867D01*
X84470411Y-85133869D01*
X84470412Y-85133869D01*
X84315091Y-85275464D01*
X84305306Y-85284384D01*
X84178503Y-85452298D01*
X84128347Y-85487341D01*
X84067172Y-85486210D01*
X84018345Y-85449337D01*
X84000500Y-85392637D01*
X84000500Y-83749500D01*
X84019407Y-83691309D01*
X84068907Y-83655345D01*
X84099500Y-83650500D01*
X136900500Y-83650500D01*
X136958691Y-83669407D01*
G37*
%TD.AperFunction*%
%TD*%
M02*
