M48
; DRILL file {KiCad 7.0.2-6a45011f42~172~ubuntu22.04.1} date Thu 08 Jun 2023 01:32:40 PM
; FORMAT={-:-/ absolute / metric / decimal}
; #@! TF.CreationDate,2023-06-08T13:32:40-07:00
; #@! TF.GenerationSoftware,Kicad,Pcbnew,7.0.2-6a45011f42~172~ubuntu22.04.1
; #@! TF.FileFunction,Plated,1,2,PTH
FMAT,2
METRIC
; #@! TA.AperFunction,Plated,PTH,ViaDrill
T1C0.400
; #@! TA.AperFunction,Plated,PTH,ComponentDrill
T2C1.000
; #@! TA.AperFunction,Plated,PTH,ComponentDrill
T3C1.340
%
G90
G05
T1
X86.75Y-84.55
X86.75Y-88.55
X86.75Y-91.4
X87.15Y-94.875
X87.475Y-101.3
X91.35Y-92.675
X92.25Y-84.55
X92.25Y-88.55
X92.725Y-97.25
X92.775Y-94.975
X92.9Y-99.06
X93.55Y-104.15
X93.9Y-99.06
X94.5Y-104.14
X94.84Y-99.06
X95.35Y-104.14
X96.0Y-96.2
X96.35Y-102.55
X97.0Y-106.35
X98.566Y-95.182
X98.649Y-96.3
X98.65Y-92.9
X100.999Y-98.144
X101.25Y-105.239
X101.65Y-101.125
X101.95Y-86.35
X102.35Y-85.2
X102.65Y-89.95
X103.625Y-108.075
X104.499Y-96.444
X104.705Y-100.325
X105.35Y-85.8
X105.35Y-88.8
X105.35Y-91.05
X106.5Y-106.125
X106.594Y-97.383
X106.7Y-98.55
X106.8Y-100.6
X107.45Y-93.25
X108.31Y-105.425
X110.15Y-88.8
X110.2Y-85.8
X111.1Y-105.35
X111.6Y-93.45
X112.05Y-105.9
X112.327Y-95.384
X113.4Y-101.05
X113.639Y-96.05
X114.375Y-93.125
X114.8Y-85.8
X114.8Y-88.8
X115.65Y-105.55
X116.45Y-87.3
X116.475Y-104.14
X117.4Y-98.575
X117.4Y-104.14
X118.1Y-108.0
X118.25Y-95.849
X118.37Y-84.18
X118.375Y-104.14
X118.499Y-101.275
X118.575Y-98.75
X119.55Y-94.35
X119.7Y-93.05
X119.875Y-95.35
X121.35Y-106.125
X121.5Y-100.125
X122.425Y-95.25
X123.425Y-97.15
X123.613Y-98.249
X124.375Y-97.15
X124.795Y-85.075
X124.795Y-86.475
X125.25Y-97.15
X125.3Y-99.925
X125.995Y-88.075
X126.9Y-90.159
X127.195Y-84.475
X127.195Y-85.875
X129.025Y-107.0
X131.55Y-85.351
X131.55Y-86.35
X131.55Y-87.35
X131.55Y-88.35
X133.85Y-84.6
X133.85Y-88.95
T2
X86.981Y-104.525
X86.981Y-107.065
X89.521Y-104.525
X89.521Y-107.065
X131.469Y-104.525
X131.469Y-107.065
X134.009Y-104.525
X134.009Y-107.065
T3
X85.2Y-86.1
X85.2Y-89.9
X93.84Y-86.1
X93.84Y-89.9
T0
M30
