%TF.GenerationSoftware,KiCad,Pcbnew,7.0.2-6a45011f42~172~ubuntu22.04.1*%
%TF.CreationDate,2023-06-08T17:33:04-07:00*%
%TF.ProjectId,usb-breadboard-power,7573622d-6272-4656-9164-626f6172642d,v1.0*%
%TF.SameCoordinates,Original*%
%TF.FileFunction,Legend,Top*%
%TF.FilePolarity,Positive*%
%FSLAX46Y46*%
G04 Gerber Fmt 4.6, Leading zero omitted, Abs format (unit mm)*
G04 Created by KiCad (PCBNEW 7.0.2-6a45011f42~172~ubuntu22.04.1) date 2023-06-08 17:33:04*
%MOMM*%
%LPD*%
G01*
G04 APERTURE LIST*
%ADD10C,0.120000*%
%ADD11C,0.150000*%
%ADD12C,0.250000*%
%ADD13C,0.200000*%
%ADD14C,0.100000*%
G04 APERTURE END LIST*
D10*
X96015476Y-86885095D02*
X96015476Y-86085095D01*
X96396428Y-86885095D02*
X96396428Y-86085095D01*
X96396428Y-86085095D02*
X96853571Y-86885095D01*
X96853571Y-86885095D02*
X96853571Y-86085095D01*
X97120237Y-86085095D02*
X97577380Y-86085095D01*
X97348808Y-86885095D02*
X97348808Y-86085095D01*
X95977380Y-88143000D02*
X96091666Y-88181095D01*
X96091666Y-88181095D02*
X96282142Y-88181095D01*
X96282142Y-88181095D02*
X96358333Y-88143000D01*
X96358333Y-88143000D02*
X96396428Y-88104904D01*
X96396428Y-88104904D02*
X96434523Y-88028714D01*
X96434523Y-88028714D02*
X96434523Y-87952523D01*
X96434523Y-87952523D02*
X96396428Y-87876333D01*
X96396428Y-87876333D02*
X96358333Y-87838238D01*
X96358333Y-87838238D02*
X96282142Y-87800142D01*
X96282142Y-87800142D02*
X96129761Y-87762047D01*
X96129761Y-87762047D02*
X96053571Y-87723952D01*
X96053571Y-87723952D02*
X96015476Y-87685857D01*
X96015476Y-87685857D02*
X95977380Y-87609666D01*
X95977380Y-87609666D02*
X95977380Y-87533476D01*
X95977380Y-87533476D02*
X96015476Y-87457285D01*
X96015476Y-87457285D02*
X96053571Y-87419190D01*
X96053571Y-87419190D02*
X96129761Y-87381095D01*
X96129761Y-87381095D02*
X96320238Y-87381095D01*
X96320238Y-87381095D02*
X96434523Y-87419190D01*
X96777381Y-88181095D02*
X96777381Y-87381095D01*
X96777381Y-87381095D02*
X96967857Y-87381095D01*
X96967857Y-87381095D02*
X97082143Y-87419190D01*
X97082143Y-87419190D02*
X97158333Y-87495380D01*
X97158333Y-87495380D02*
X97196428Y-87571571D01*
X97196428Y-87571571D02*
X97234524Y-87723952D01*
X97234524Y-87723952D02*
X97234524Y-87838238D01*
X97234524Y-87838238D02*
X97196428Y-87990619D01*
X97196428Y-87990619D02*
X97158333Y-88066809D01*
X97158333Y-88066809D02*
X97082143Y-88143000D01*
X97082143Y-88143000D02*
X96967857Y-88181095D01*
X96967857Y-88181095D02*
X96777381Y-88181095D01*
X97539285Y-87952523D02*
X97920238Y-87952523D01*
X97463095Y-88181095D02*
X97729762Y-87381095D01*
X97729762Y-87381095D02*
X97996428Y-88181095D01*
X95977380Y-89439000D02*
X96091666Y-89477095D01*
X96091666Y-89477095D02*
X96282142Y-89477095D01*
X96282142Y-89477095D02*
X96358333Y-89439000D01*
X96358333Y-89439000D02*
X96396428Y-89400904D01*
X96396428Y-89400904D02*
X96434523Y-89324714D01*
X96434523Y-89324714D02*
X96434523Y-89248523D01*
X96434523Y-89248523D02*
X96396428Y-89172333D01*
X96396428Y-89172333D02*
X96358333Y-89134238D01*
X96358333Y-89134238D02*
X96282142Y-89096142D01*
X96282142Y-89096142D02*
X96129761Y-89058047D01*
X96129761Y-89058047D02*
X96053571Y-89019952D01*
X96053571Y-89019952D02*
X96015476Y-88981857D01*
X96015476Y-88981857D02*
X95977380Y-88905666D01*
X95977380Y-88905666D02*
X95977380Y-88829476D01*
X95977380Y-88829476D02*
X96015476Y-88753285D01*
X96015476Y-88753285D02*
X96053571Y-88715190D01*
X96053571Y-88715190D02*
X96129761Y-88677095D01*
X96129761Y-88677095D02*
X96320238Y-88677095D01*
X96320238Y-88677095D02*
X96434523Y-88715190D01*
X97234524Y-89400904D02*
X97196428Y-89439000D01*
X97196428Y-89439000D02*
X97082143Y-89477095D01*
X97082143Y-89477095D02*
X97005952Y-89477095D01*
X97005952Y-89477095D02*
X96891666Y-89439000D01*
X96891666Y-89439000D02*
X96815476Y-89362809D01*
X96815476Y-89362809D02*
X96777381Y-89286619D01*
X96777381Y-89286619D02*
X96739285Y-89134238D01*
X96739285Y-89134238D02*
X96739285Y-89019952D01*
X96739285Y-89019952D02*
X96777381Y-88867571D01*
X96777381Y-88867571D02*
X96815476Y-88791380D01*
X96815476Y-88791380D02*
X96891666Y-88715190D01*
X96891666Y-88715190D02*
X97005952Y-88677095D01*
X97005952Y-88677095D02*
X97082143Y-88677095D01*
X97082143Y-88677095D02*
X97196428Y-88715190D01*
X97196428Y-88715190D02*
X97234524Y-88753285D01*
X97958333Y-89477095D02*
X97577381Y-89477095D01*
X97577381Y-89477095D02*
X97577381Y-88677095D01*
D11*
X125461904Y-95777619D02*
X124890476Y-95777619D01*
X125176190Y-95777619D02*
X125176190Y-94777619D01*
X125176190Y-94777619D02*
X125080952Y-94920476D01*
X125080952Y-94920476D02*
X124985714Y-95015714D01*
X124985714Y-95015714D02*
X124890476Y-95063333D01*
X126366666Y-94777619D02*
X125890476Y-94777619D01*
X125890476Y-94777619D02*
X125842857Y-95253809D01*
X125842857Y-95253809D02*
X125890476Y-95206190D01*
X125890476Y-95206190D02*
X125985714Y-95158571D01*
X125985714Y-95158571D02*
X126223809Y-95158571D01*
X126223809Y-95158571D02*
X126319047Y-95206190D01*
X126319047Y-95206190D02*
X126366666Y-95253809D01*
X126366666Y-95253809D02*
X126414285Y-95349047D01*
X126414285Y-95349047D02*
X126414285Y-95587142D01*
X126414285Y-95587142D02*
X126366666Y-95682380D01*
X126366666Y-95682380D02*
X126319047Y-95730000D01*
X126319047Y-95730000D02*
X126223809Y-95777619D01*
X126223809Y-95777619D02*
X125985714Y-95777619D01*
X125985714Y-95777619D02*
X125890476Y-95730000D01*
X125890476Y-95730000D02*
X125842857Y-95682380D01*
D10*
X106534523Y-109052095D02*
X106077380Y-109052095D01*
X106305952Y-109052095D02*
X106305952Y-108252095D01*
X106305952Y-108252095D02*
X106229761Y-108366380D01*
X106229761Y-108366380D02*
X106153571Y-108442571D01*
X106153571Y-108442571D02*
X106077380Y-108480666D01*
X107296428Y-109052095D02*
X106839285Y-109052095D01*
X107067857Y-109052095D02*
X107067857Y-108252095D01*
X107067857Y-108252095D02*
X106991666Y-108366380D01*
X106991666Y-108366380D02*
X106915476Y-108442571D01*
X106915476Y-108442571D02*
X106839285Y-108480666D01*
D11*
X130635714Y-95777619D02*
X130826190Y-95777619D01*
X130826190Y-95777619D02*
X130921428Y-95730000D01*
X130921428Y-95730000D02*
X130969047Y-95682380D01*
X130969047Y-95682380D02*
X131064285Y-95539523D01*
X131064285Y-95539523D02*
X131111904Y-95349047D01*
X131111904Y-95349047D02*
X131111904Y-94968095D01*
X131111904Y-94968095D02*
X131064285Y-94872857D01*
X131064285Y-94872857D02*
X131016666Y-94825238D01*
X131016666Y-94825238D02*
X130921428Y-94777619D01*
X130921428Y-94777619D02*
X130730952Y-94777619D01*
X130730952Y-94777619D02*
X130635714Y-94825238D01*
X130635714Y-94825238D02*
X130588095Y-94872857D01*
X130588095Y-94872857D02*
X130540476Y-94968095D01*
X130540476Y-94968095D02*
X130540476Y-95206190D01*
X130540476Y-95206190D02*
X130588095Y-95301428D01*
X130588095Y-95301428D02*
X130635714Y-95349047D01*
X130635714Y-95349047D02*
X130730952Y-95396666D01*
X130730952Y-95396666D02*
X130921428Y-95396666D01*
X130921428Y-95396666D02*
X131016666Y-95349047D01*
X131016666Y-95349047D02*
X131064285Y-95301428D01*
X131064285Y-95301428D02*
X131111904Y-95206190D01*
D12*
X129076190Y-108193333D02*
X130600000Y-108193333D01*
X134600000Y-108193333D02*
X136123810Y-108193333D01*
X135361905Y-108955238D02*
X135361905Y-107431428D01*
D11*
X133842857Y-101952619D02*
X134461904Y-101952619D01*
X134461904Y-101952619D02*
X134128571Y-102333571D01*
X134128571Y-102333571D02*
X134271428Y-102333571D01*
X134271428Y-102333571D02*
X134366666Y-102381190D01*
X134366666Y-102381190D02*
X134414285Y-102428809D01*
X134414285Y-102428809D02*
X134461904Y-102524047D01*
X134461904Y-102524047D02*
X134461904Y-102762142D01*
X134461904Y-102762142D02*
X134414285Y-102857380D01*
X134414285Y-102857380D02*
X134366666Y-102905000D01*
X134366666Y-102905000D02*
X134271428Y-102952619D01*
X134271428Y-102952619D02*
X133985714Y-102952619D01*
X133985714Y-102952619D02*
X133890476Y-102905000D01*
X133890476Y-102905000D02*
X133842857Y-102857380D01*
X134795238Y-102285952D02*
X135033333Y-102952619D01*
X135033333Y-102952619D02*
X135271428Y-102285952D01*
X135557143Y-101952619D02*
X136176190Y-101952619D01*
X136176190Y-101952619D02*
X135842857Y-102333571D01*
X135842857Y-102333571D02*
X135985714Y-102333571D01*
X135985714Y-102333571D02*
X136080952Y-102381190D01*
X136080952Y-102381190D02*
X136128571Y-102428809D01*
X136128571Y-102428809D02*
X136176190Y-102524047D01*
X136176190Y-102524047D02*
X136176190Y-102762142D01*
X136176190Y-102762142D02*
X136128571Y-102857380D01*
X136128571Y-102857380D02*
X136080952Y-102905000D01*
X136080952Y-102905000D02*
X135985714Y-102952619D01*
X135985714Y-102952619D02*
X135700000Y-102952619D01*
X135700000Y-102952619D02*
X135604762Y-102905000D01*
X135604762Y-102905000D02*
X135557143Y-102857380D01*
D12*
X84476190Y-108093333D02*
X86000000Y-108093333D01*
X90000000Y-108093333D02*
X91523810Y-108093333D01*
X90761905Y-108855238D02*
X90761905Y-107331428D01*
D11*
X125342857Y-107477619D02*
X125961904Y-107477619D01*
X125961904Y-107477619D02*
X125628571Y-107858571D01*
X125628571Y-107858571D02*
X125771428Y-107858571D01*
X125771428Y-107858571D02*
X125866666Y-107906190D01*
X125866666Y-107906190D02*
X125914285Y-107953809D01*
X125914285Y-107953809D02*
X125961904Y-108049047D01*
X125961904Y-108049047D02*
X125961904Y-108287142D01*
X125961904Y-108287142D02*
X125914285Y-108382380D01*
X125914285Y-108382380D02*
X125866666Y-108430000D01*
X125866666Y-108430000D02*
X125771428Y-108477619D01*
X125771428Y-108477619D02*
X125485714Y-108477619D01*
X125485714Y-108477619D02*
X125390476Y-108430000D01*
X125390476Y-108430000D02*
X125342857Y-108382380D01*
X126295238Y-107810952D02*
X126533333Y-108477619D01*
X126533333Y-108477619D02*
X126771428Y-107810952D01*
X127057143Y-107477619D02*
X127676190Y-107477619D01*
X127676190Y-107477619D02*
X127342857Y-107858571D01*
X127342857Y-107858571D02*
X127485714Y-107858571D01*
X127485714Y-107858571D02*
X127580952Y-107906190D01*
X127580952Y-107906190D02*
X127628571Y-107953809D01*
X127628571Y-107953809D02*
X127676190Y-108049047D01*
X127676190Y-108049047D02*
X127676190Y-108287142D01*
X127676190Y-108287142D02*
X127628571Y-108382380D01*
X127628571Y-108382380D02*
X127580952Y-108430000D01*
X127580952Y-108430000D02*
X127485714Y-108477619D01*
X127485714Y-108477619D02*
X127200000Y-108477619D01*
X127200000Y-108477619D02*
X127104762Y-108430000D01*
X127104762Y-108430000D02*
X127057143Y-108382380D01*
D10*
X106547619Y-107977095D02*
X106280952Y-107596142D01*
X106090476Y-107977095D02*
X106090476Y-107177095D01*
X106090476Y-107177095D02*
X106395238Y-107177095D01*
X106395238Y-107177095D02*
X106471428Y-107215190D01*
X106471428Y-107215190D02*
X106509523Y-107253285D01*
X106509523Y-107253285D02*
X106547619Y-107329476D01*
X106547619Y-107329476D02*
X106547619Y-107443761D01*
X106547619Y-107443761D02*
X106509523Y-107519952D01*
X106509523Y-107519952D02*
X106471428Y-107558047D01*
X106471428Y-107558047D02*
X106395238Y-107596142D01*
X106395238Y-107596142D02*
X106090476Y-107596142D01*
D11*
X109721428Y-98703809D02*
X109864285Y-98751428D01*
X109864285Y-98751428D02*
X109911904Y-98799047D01*
X109911904Y-98799047D02*
X109959523Y-98894285D01*
X109959523Y-98894285D02*
X109959523Y-99037142D01*
X109959523Y-99037142D02*
X109911904Y-99132380D01*
X109911904Y-99132380D02*
X109864285Y-99180000D01*
X109864285Y-99180000D02*
X109769047Y-99227619D01*
X109769047Y-99227619D02*
X109388095Y-99227619D01*
X109388095Y-99227619D02*
X109388095Y-98227619D01*
X109388095Y-98227619D02*
X109721428Y-98227619D01*
X109721428Y-98227619D02*
X109816666Y-98275238D01*
X109816666Y-98275238D02*
X109864285Y-98322857D01*
X109864285Y-98322857D02*
X109911904Y-98418095D01*
X109911904Y-98418095D02*
X109911904Y-98513333D01*
X109911904Y-98513333D02*
X109864285Y-98608571D01*
X109864285Y-98608571D02*
X109816666Y-98656190D01*
X109816666Y-98656190D02*
X109721428Y-98703809D01*
X109721428Y-98703809D02*
X109388095Y-98703809D01*
X122690476Y-94872857D02*
X122738095Y-94825238D01*
X122738095Y-94825238D02*
X122833333Y-94777619D01*
X122833333Y-94777619D02*
X123071428Y-94777619D01*
X123071428Y-94777619D02*
X123166666Y-94825238D01*
X123166666Y-94825238D02*
X123214285Y-94872857D01*
X123214285Y-94872857D02*
X123261904Y-94968095D01*
X123261904Y-94968095D02*
X123261904Y-95063333D01*
X123261904Y-95063333D02*
X123214285Y-95206190D01*
X123214285Y-95206190D02*
X122642857Y-95777619D01*
X122642857Y-95777619D02*
X123261904Y-95777619D01*
X123880952Y-94777619D02*
X123976190Y-94777619D01*
X123976190Y-94777619D02*
X124071428Y-94825238D01*
X124071428Y-94825238D02*
X124119047Y-94872857D01*
X124119047Y-94872857D02*
X124166666Y-94968095D01*
X124166666Y-94968095D02*
X124214285Y-95158571D01*
X124214285Y-95158571D02*
X124214285Y-95396666D01*
X124214285Y-95396666D02*
X124166666Y-95587142D01*
X124166666Y-95587142D02*
X124119047Y-95682380D01*
X124119047Y-95682380D02*
X124071428Y-95730000D01*
X124071428Y-95730000D02*
X123976190Y-95777619D01*
X123976190Y-95777619D02*
X123880952Y-95777619D01*
X123880952Y-95777619D02*
X123785714Y-95730000D01*
X123785714Y-95730000D02*
X123738095Y-95682380D01*
X123738095Y-95682380D02*
X123690476Y-95587142D01*
X123690476Y-95587142D02*
X123642857Y-95396666D01*
X123642857Y-95396666D02*
X123642857Y-95158571D01*
X123642857Y-95158571D02*
X123690476Y-94968095D01*
X123690476Y-94968095D02*
X123738095Y-94872857D01*
X123738095Y-94872857D02*
X123785714Y-94825238D01*
X123785714Y-94825238D02*
X123880952Y-94777619D01*
X127961904Y-95777619D02*
X127390476Y-95777619D01*
X127676190Y-95777619D02*
X127676190Y-94777619D01*
X127676190Y-94777619D02*
X127580952Y-94920476D01*
X127580952Y-94920476D02*
X127485714Y-95015714D01*
X127485714Y-95015714D02*
X127390476Y-95063333D01*
X128342857Y-94872857D02*
X128390476Y-94825238D01*
X128390476Y-94825238D02*
X128485714Y-94777619D01*
X128485714Y-94777619D02*
X128723809Y-94777619D01*
X128723809Y-94777619D02*
X128819047Y-94825238D01*
X128819047Y-94825238D02*
X128866666Y-94872857D01*
X128866666Y-94872857D02*
X128914285Y-94968095D01*
X128914285Y-94968095D02*
X128914285Y-95063333D01*
X128914285Y-95063333D02*
X128866666Y-95206190D01*
X128866666Y-95206190D02*
X128295238Y-95777619D01*
X128295238Y-95777619D02*
X128914285Y-95777619D01*
X93295238Y-108027619D02*
X93628571Y-109027619D01*
X93628571Y-109027619D02*
X93961904Y-108027619D01*
X94295238Y-109027619D02*
X94295238Y-108027619D01*
X94295238Y-108408571D02*
X94390476Y-108360952D01*
X94390476Y-108360952D02*
X94580952Y-108360952D01*
X94580952Y-108360952D02*
X94676190Y-108408571D01*
X94676190Y-108408571D02*
X94723809Y-108456190D01*
X94723809Y-108456190D02*
X94771428Y-108551428D01*
X94771428Y-108551428D02*
X94771428Y-108837142D01*
X94771428Y-108837142D02*
X94723809Y-108932380D01*
X94723809Y-108932380D02*
X94676190Y-108980000D01*
X94676190Y-108980000D02*
X94580952Y-109027619D01*
X94580952Y-109027619D02*
X94390476Y-109027619D01*
X94390476Y-109027619D02*
X94295238Y-108980000D01*
X95628571Y-108360952D02*
X95628571Y-109027619D01*
X95200000Y-108360952D02*
X95200000Y-108884761D01*
X95200000Y-108884761D02*
X95247619Y-108980000D01*
X95247619Y-108980000D02*
X95342857Y-109027619D01*
X95342857Y-109027619D02*
X95485714Y-109027619D01*
X95485714Y-109027619D02*
X95580952Y-108980000D01*
X95580952Y-108980000D02*
X95628571Y-108932380D01*
X96057143Y-108980000D02*
X96152381Y-109027619D01*
X96152381Y-109027619D02*
X96342857Y-109027619D01*
X96342857Y-109027619D02*
X96438095Y-108980000D01*
X96438095Y-108980000D02*
X96485714Y-108884761D01*
X96485714Y-108884761D02*
X96485714Y-108837142D01*
X96485714Y-108837142D02*
X96438095Y-108741904D01*
X96438095Y-108741904D02*
X96342857Y-108694285D01*
X96342857Y-108694285D02*
X96200000Y-108694285D01*
X96200000Y-108694285D02*
X96104762Y-108646666D01*
X96104762Y-108646666D02*
X96057143Y-108551428D01*
X96057143Y-108551428D02*
X96057143Y-108503809D01*
X96057143Y-108503809D02*
X96104762Y-108408571D01*
X96104762Y-108408571D02*
X96200000Y-108360952D01*
X96200000Y-108360952D02*
X96342857Y-108360952D01*
X96342857Y-108360952D02*
X96438095Y-108408571D01*
X91617857Y-102427619D02*
X92236904Y-102427619D01*
X92236904Y-102427619D02*
X91903571Y-102808571D01*
X91903571Y-102808571D02*
X92046428Y-102808571D01*
X92046428Y-102808571D02*
X92141666Y-102856190D01*
X92141666Y-102856190D02*
X92189285Y-102903809D01*
X92189285Y-102903809D02*
X92236904Y-102999047D01*
X92236904Y-102999047D02*
X92236904Y-103237142D01*
X92236904Y-103237142D02*
X92189285Y-103332380D01*
X92189285Y-103332380D02*
X92141666Y-103380000D01*
X92141666Y-103380000D02*
X92046428Y-103427619D01*
X92046428Y-103427619D02*
X91760714Y-103427619D01*
X91760714Y-103427619D02*
X91665476Y-103380000D01*
X91665476Y-103380000D02*
X91617857Y-103332380D01*
X92570238Y-102760952D02*
X92808333Y-103427619D01*
X92808333Y-103427619D02*
X93046428Y-102760952D01*
X93332143Y-102427619D02*
X93951190Y-102427619D01*
X93951190Y-102427619D02*
X93617857Y-102808571D01*
X93617857Y-102808571D02*
X93760714Y-102808571D01*
X93760714Y-102808571D02*
X93855952Y-102856190D01*
X93855952Y-102856190D02*
X93903571Y-102903809D01*
X93903571Y-102903809D02*
X93951190Y-102999047D01*
X93951190Y-102999047D02*
X93951190Y-103237142D01*
X93951190Y-103237142D02*
X93903571Y-103332380D01*
X93903571Y-103332380D02*
X93855952Y-103380000D01*
X93855952Y-103380000D02*
X93760714Y-103427619D01*
X93760714Y-103427619D02*
X93475000Y-103427619D01*
X93475000Y-103427619D02*
X93379762Y-103380000D01*
X93379762Y-103380000D02*
X93332143Y-103332380D01*
X109340476Y-108091904D02*
X109816666Y-108091904D01*
X109245238Y-108377619D02*
X109578571Y-107377619D01*
X109578571Y-107377619D02*
X109911904Y-108377619D01*
X127745238Y-101927619D02*
X128078571Y-102927619D01*
X128078571Y-102927619D02*
X128411904Y-101927619D01*
X129078571Y-102403809D02*
X129221428Y-102451428D01*
X129221428Y-102451428D02*
X129269047Y-102499047D01*
X129269047Y-102499047D02*
X129316666Y-102594285D01*
X129316666Y-102594285D02*
X129316666Y-102737142D01*
X129316666Y-102737142D02*
X129269047Y-102832380D01*
X129269047Y-102832380D02*
X129221428Y-102880000D01*
X129221428Y-102880000D02*
X129126190Y-102927619D01*
X129126190Y-102927619D02*
X128745238Y-102927619D01*
X128745238Y-102927619D02*
X128745238Y-101927619D01*
X128745238Y-101927619D02*
X129078571Y-101927619D01*
X129078571Y-101927619D02*
X129173809Y-101975238D01*
X129173809Y-101975238D02*
X129221428Y-102022857D01*
X129221428Y-102022857D02*
X129269047Y-102118095D01*
X129269047Y-102118095D02*
X129269047Y-102213333D01*
X129269047Y-102213333D02*
X129221428Y-102308571D01*
X129221428Y-102308571D02*
X129173809Y-102356190D01*
X129173809Y-102356190D02*
X129078571Y-102403809D01*
X129078571Y-102403809D02*
X128745238Y-102403809D01*
X130173809Y-102260952D02*
X130173809Y-102927619D01*
X129745238Y-102260952D02*
X129745238Y-102784761D01*
X129745238Y-102784761D02*
X129792857Y-102880000D01*
X129792857Y-102880000D02*
X129888095Y-102927619D01*
X129888095Y-102927619D02*
X130030952Y-102927619D01*
X130030952Y-102927619D02*
X130126190Y-102880000D01*
X130126190Y-102880000D02*
X130173809Y-102832380D01*
X130602381Y-102880000D02*
X130697619Y-102927619D01*
X130697619Y-102927619D02*
X130888095Y-102927619D01*
X130888095Y-102927619D02*
X130983333Y-102880000D01*
X130983333Y-102880000D02*
X131030952Y-102784761D01*
X131030952Y-102784761D02*
X131030952Y-102737142D01*
X131030952Y-102737142D02*
X130983333Y-102641904D01*
X130983333Y-102641904D02*
X130888095Y-102594285D01*
X130888095Y-102594285D02*
X130745238Y-102594285D01*
X130745238Y-102594285D02*
X130650000Y-102546666D01*
X130650000Y-102546666D02*
X130602381Y-102451428D01*
X130602381Y-102451428D02*
X130602381Y-102403809D01*
X130602381Y-102403809D02*
X130650000Y-102308571D01*
X130650000Y-102308571D02*
X130745238Y-102260952D01*
X130745238Y-102260952D02*
X130888095Y-102260952D01*
X130888095Y-102260952D02*
X130983333Y-102308571D01*
X123570238Y-96127619D02*
X123903571Y-97127619D01*
X123903571Y-97127619D02*
X124236904Y-96127619D01*
X124570238Y-97127619D02*
X124570238Y-96127619D01*
X124570238Y-96508571D02*
X124665476Y-96460952D01*
X124665476Y-96460952D02*
X124855952Y-96460952D01*
X124855952Y-96460952D02*
X124951190Y-96508571D01*
X124951190Y-96508571D02*
X124998809Y-96556190D01*
X124998809Y-96556190D02*
X125046428Y-96651428D01*
X125046428Y-96651428D02*
X125046428Y-96937142D01*
X125046428Y-96937142D02*
X124998809Y-97032380D01*
X124998809Y-97032380D02*
X124951190Y-97080000D01*
X124951190Y-97080000D02*
X124855952Y-97127619D01*
X124855952Y-97127619D02*
X124665476Y-97127619D01*
X124665476Y-97127619D02*
X124570238Y-97080000D01*
X125903571Y-96460952D02*
X125903571Y-97127619D01*
X125475000Y-96460952D02*
X125475000Y-96984761D01*
X125475000Y-96984761D02*
X125522619Y-97080000D01*
X125522619Y-97080000D02*
X125617857Y-97127619D01*
X125617857Y-97127619D02*
X125760714Y-97127619D01*
X125760714Y-97127619D02*
X125855952Y-97080000D01*
X125855952Y-97080000D02*
X125903571Y-97032380D01*
X126332143Y-97080000D02*
X126427381Y-97127619D01*
X126427381Y-97127619D02*
X126617857Y-97127619D01*
X126617857Y-97127619D02*
X126713095Y-97080000D01*
X126713095Y-97080000D02*
X126760714Y-96984761D01*
X126760714Y-96984761D02*
X126760714Y-96937142D01*
X126760714Y-96937142D02*
X126713095Y-96841904D01*
X126713095Y-96841904D02*
X126617857Y-96794285D01*
X126617857Y-96794285D02*
X126475000Y-96794285D01*
X126475000Y-96794285D02*
X126379762Y-96746666D01*
X126379762Y-96746666D02*
X126332143Y-96651428D01*
X126332143Y-96651428D02*
X126332143Y-96603809D01*
X126332143Y-96603809D02*
X126379762Y-96508571D01*
X126379762Y-96508571D02*
X126475000Y-96460952D01*
X126475000Y-96460952D02*
X126617857Y-96460952D01*
X126617857Y-96460952D02*
X126713095Y-96508571D01*
X127808334Y-96127619D02*
X128141667Y-97127619D01*
X128141667Y-97127619D02*
X128475000Y-96127619D01*
X128951191Y-97127619D02*
X128855953Y-97080000D01*
X128855953Y-97080000D02*
X128808334Y-97032380D01*
X128808334Y-97032380D02*
X128760715Y-96937142D01*
X128760715Y-96937142D02*
X128760715Y-96651428D01*
X128760715Y-96651428D02*
X128808334Y-96556190D01*
X128808334Y-96556190D02*
X128855953Y-96508571D01*
X128855953Y-96508571D02*
X128951191Y-96460952D01*
X128951191Y-96460952D02*
X129094048Y-96460952D01*
X129094048Y-96460952D02*
X129189286Y-96508571D01*
X129189286Y-96508571D02*
X129236905Y-96556190D01*
X129236905Y-96556190D02*
X129284524Y-96651428D01*
X129284524Y-96651428D02*
X129284524Y-96937142D01*
X129284524Y-96937142D02*
X129236905Y-97032380D01*
X129236905Y-97032380D02*
X129189286Y-97080000D01*
X129189286Y-97080000D02*
X129094048Y-97127619D01*
X129094048Y-97127619D02*
X128951191Y-97127619D01*
X129855953Y-97127619D02*
X129760715Y-97080000D01*
X129760715Y-97080000D02*
X129713096Y-96984761D01*
X129713096Y-96984761D02*
X129713096Y-96127619D01*
X130094049Y-96460952D02*
X130475001Y-96460952D01*
X130236906Y-96127619D02*
X130236906Y-96984761D01*
X130236906Y-96984761D02*
X130284525Y-97080000D01*
X130284525Y-97080000D02*
X130379763Y-97127619D01*
X130379763Y-97127619D02*
X130475001Y-97127619D01*
X130760716Y-97080000D02*
X130855954Y-97127619D01*
X130855954Y-97127619D02*
X131046430Y-97127619D01*
X131046430Y-97127619D02*
X131141668Y-97080000D01*
X131141668Y-97080000D02*
X131189287Y-96984761D01*
X131189287Y-96984761D02*
X131189287Y-96937142D01*
X131189287Y-96937142D02*
X131141668Y-96841904D01*
X131141668Y-96841904D02*
X131046430Y-96794285D01*
X131046430Y-96794285D02*
X130903573Y-96794285D01*
X130903573Y-96794285D02*
X130808335Y-96746666D01*
X130808335Y-96746666D02*
X130760716Y-96651428D01*
X130760716Y-96651428D02*
X130760716Y-96603809D01*
X130760716Y-96603809D02*
X130808335Y-96508571D01*
X130808335Y-96508571D02*
X130903573Y-96460952D01*
X130903573Y-96460952D02*
X131046430Y-96460952D01*
X131046430Y-96460952D02*
X131141668Y-96508571D01*
X109921428Y-95753809D02*
X109588095Y-95753809D01*
X109588095Y-96277619D02*
X109588095Y-95277619D01*
X109588095Y-95277619D02*
X110064285Y-95277619D01*
X110873809Y-96277619D02*
X110873809Y-95753809D01*
X110873809Y-95753809D02*
X110826190Y-95658571D01*
X110826190Y-95658571D02*
X110730952Y-95610952D01*
X110730952Y-95610952D02*
X110540476Y-95610952D01*
X110540476Y-95610952D02*
X110445238Y-95658571D01*
X110873809Y-96230000D02*
X110778571Y-96277619D01*
X110778571Y-96277619D02*
X110540476Y-96277619D01*
X110540476Y-96277619D02*
X110445238Y-96230000D01*
X110445238Y-96230000D02*
X110397619Y-96134761D01*
X110397619Y-96134761D02*
X110397619Y-96039523D01*
X110397619Y-96039523D02*
X110445238Y-95944285D01*
X110445238Y-95944285D02*
X110540476Y-95896666D01*
X110540476Y-95896666D02*
X110778571Y-95896666D01*
X110778571Y-95896666D02*
X110873809Y-95849047D01*
X111778571Y-95610952D02*
X111778571Y-96277619D01*
X111350000Y-95610952D02*
X111350000Y-96134761D01*
X111350000Y-96134761D02*
X111397619Y-96230000D01*
X111397619Y-96230000D02*
X111492857Y-96277619D01*
X111492857Y-96277619D02*
X111635714Y-96277619D01*
X111635714Y-96277619D02*
X111730952Y-96230000D01*
X111730952Y-96230000D02*
X111778571Y-96182380D01*
X112397619Y-96277619D02*
X112302381Y-96230000D01*
X112302381Y-96230000D02*
X112254762Y-96134761D01*
X112254762Y-96134761D02*
X112254762Y-95277619D01*
X112635715Y-95610952D02*
X113016667Y-95610952D01*
X112778572Y-95277619D02*
X112778572Y-96134761D01*
X112778572Y-96134761D02*
X112826191Y-96230000D01*
X112826191Y-96230000D02*
X112921429Y-96277619D01*
X112921429Y-96277619D02*
X113016667Y-96277619D01*
X90720238Y-99727619D02*
X91053571Y-100727619D01*
X91053571Y-100727619D02*
X91386904Y-99727619D01*
X92053571Y-100203809D02*
X92196428Y-100251428D01*
X92196428Y-100251428D02*
X92244047Y-100299047D01*
X92244047Y-100299047D02*
X92291666Y-100394285D01*
X92291666Y-100394285D02*
X92291666Y-100537142D01*
X92291666Y-100537142D02*
X92244047Y-100632380D01*
X92244047Y-100632380D02*
X92196428Y-100680000D01*
X92196428Y-100680000D02*
X92101190Y-100727619D01*
X92101190Y-100727619D02*
X91720238Y-100727619D01*
X91720238Y-100727619D02*
X91720238Y-99727619D01*
X91720238Y-99727619D02*
X92053571Y-99727619D01*
X92053571Y-99727619D02*
X92148809Y-99775238D01*
X92148809Y-99775238D02*
X92196428Y-99822857D01*
X92196428Y-99822857D02*
X92244047Y-99918095D01*
X92244047Y-99918095D02*
X92244047Y-100013333D01*
X92244047Y-100013333D02*
X92196428Y-100108571D01*
X92196428Y-100108571D02*
X92148809Y-100156190D01*
X92148809Y-100156190D02*
X92053571Y-100203809D01*
X92053571Y-100203809D02*
X91720238Y-100203809D01*
X93148809Y-100060952D02*
X93148809Y-100727619D01*
X92720238Y-100060952D02*
X92720238Y-100584761D01*
X92720238Y-100584761D02*
X92767857Y-100680000D01*
X92767857Y-100680000D02*
X92863095Y-100727619D01*
X92863095Y-100727619D02*
X93005952Y-100727619D01*
X93005952Y-100727619D02*
X93101190Y-100680000D01*
X93101190Y-100680000D02*
X93148809Y-100632380D01*
X93577381Y-100680000D02*
X93672619Y-100727619D01*
X93672619Y-100727619D02*
X93863095Y-100727619D01*
X93863095Y-100727619D02*
X93958333Y-100680000D01*
X93958333Y-100680000D02*
X94005952Y-100584761D01*
X94005952Y-100584761D02*
X94005952Y-100537142D01*
X94005952Y-100537142D02*
X93958333Y-100441904D01*
X93958333Y-100441904D02*
X93863095Y-100394285D01*
X93863095Y-100394285D02*
X93720238Y-100394285D01*
X93720238Y-100394285D02*
X93625000Y-100346666D01*
X93625000Y-100346666D02*
X93577381Y-100251428D01*
X93577381Y-100251428D02*
X93577381Y-100203809D01*
X93577381Y-100203809D02*
X93625000Y-100108571D01*
X93625000Y-100108571D02*
X93720238Y-100060952D01*
X93720238Y-100060952D02*
X93863095Y-100060952D01*
X93863095Y-100060952D02*
X93958333Y-100108571D01*
D10*
%TO.C,R14*%
X114285714Y-84745095D02*
X114019047Y-84364142D01*
X113828571Y-84745095D02*
X113828571Y-83945095D01*
X113828571Y-83945095D02*
X114133333Y-83945095D01*
X114133333Y-83945095D02*
X114209523Y-83983190D01*
X114209523Y-83983190D02*
X114247618Y-84021285D01*
X114247618Y-84021285D02*
X114285714Y-84097476D01*
X114285714Y-84097476D02*
X114285714Y-84211761D01*
X114285714Y-84211761D02*
X114247618Y-84287952D01*
X114247618Y-84287952D02*
X114209523Y-84326047D01*
X114209523Y-84326047D02*
X114133333Y-84364142D01*
X114133333Y-84364142D02*
X113828571Y-84364142D01*
X115047618Y-84745095D02*
X114590475Y-84745095D01*
X114819047Y-84745095D02*
X114819047Y-83945095D01*
X114819047Y-83945095D02*
X114742856Y-84059380D01*
X114742856Y-84059380D02*
X114666666Y-84135571D01*
X114666666Y-84135571D02*
X114590475Y-84173666D01*
X115733333Y-84211761D02*
X115733333Y-84745095D01*
X115542857Y-83907000D02*
X115352380Y-84478428D01*
X115352380Y-84478428D02*
X115847619Y-84478428D01*
%TO.C,R17*%
X118885714Y-90745095D02*
X118619047Y-90364142D01*
X118428571Y-90745095D02*
X118428571Y-89945095D01*
X118428571Y-89945095D02*
X118733333Y-89945095D01*
X118733333Y-89945095D02*
X118809523Y-89983190D01*
X118809523Y-89983190D02*
X118847618Y-90021285D01*
X118847618Y-90021285D02*
X118885714Y-90097476D01*
X118885714Y-90097476D02*
X118885714Y-90211761D01*
X118885714Y-90211761D02*
X118847618Y-90287952D01*
X118847618Y-90287952D02*
X118809523Y-90326047D01*
X118809523Y-90326047D02*
X118733333Y-90364142D01*
X118733333Y-90364142D02*
X118428571Y-90364142D01*
X119647618Y-90745095D02*
X119190475Y-90745095D01*
X119419047Y-90745095D02*
X119419047Y-89945095D01*
X119419047Y-89945095D02*
X119342856Y-90059380D01*
X119342856Y-90059380D02*
X119266666Y-90135571D01*
X119266666Y-90135571D02*
X119190475Y-90173666D01*
X119914285Y-89945095D02*
X120447619Y-89945095D01*
X120447619Y-89945095D02*
X120104761Y-90745095D01*
%TO.C,R6*%
X105216667Y-84720095D02*
X104950000Y-84339142D01*
X104759524Y-84720095D02*
X104759524Y-83920095D01*
X104759524Y-83920095D02*
X105064286Y-83920095D01*
X105064286Y-83920095D02*
X105140476Y-83958190D01*
X105140476Y-83958190D02*
X105178571Y-83996285D01*
X105178571Y-83996285D02*
X105216667Y-84072476D01*
X105216667Y-84072476D02*
X105216667Y-84186761D01*
X105216667Y-84186761D02*
X105178571Y-84262952D01*
X105178571Y-84262952D02*
X105140476Y-84301047D01*
X105140476Y-84301047D02*
X105064286Y-84339142D01*
X105064286Y-84339142D02*
X104759524Y-84339142D01*
X105902381Y-83920095D02*
X105750000Y-83920095D01*
X105750000Y-83920095D02*
X105673809Y-83958190D01*
X105673809Y-83958190D02*
X105635714Y-83996285D01*
X105635714Y-83996285D02*
X105559524Y-84110571D01*
X105559524Y-84110571D02*
X105521428Y-84262952D01*
X105521428Y-84262952D02*
X105521428Y-84567714D01*
X105521428Y-84567714D02*
X105559524Y-84643904D01*
X105559524Y-84643904D02*
X105597619Y-84682000D01*
X105597619Y-84682000D02*
X105673809Y-84720095D01*
X105673809Y-84720095D02*
X105826190Y-84720095D01*
X105826190Y-84720095D02*
X105902381Y-84682000D01*
X105902381Y-84682000D02*
X105940476Y-84643904D01*
X105940476Y-84643904D02*
X105978571Y-84567714D01*
X105978571Y-84567714D02*
X105978571Y-84377238D01*
X105978571Y-84377238D02*
X105940476Y-84301047D01*
X105940476Y-84301047D02*
X105902381Y-84262952D01*
X105902381Y-84262952D02*
X105826190Y-84224857D01*
X105826190Y-84224857D02*
X105673809Y-84224857D01*
X105673809Y-84224857D02*
X105597619Y-84262952D01*
X105597619Y-84262952D02*
X105559524Y-84301047D01*
X105559524Y-84301047D02*
X105521428Y-84377238D01*
%TO.C,R2*%
X98116667Y-98345095D02*
X97850000Y-97964142D01*
X97659524Y-98345095D02*
X97659524Y-97545095D01*
X97659524Y-97545095D02*
X97964286Y-97545095D01*
X97964286Y-97545095D02*
X98040476Y-97583190D01*
X98040476Y-97583190D02*
X98078571Y-97621285D01*
X98078571Y-97621285D02*
X98116667Y-97697476D01*
X98116667Y-97697476D02*
X98116667Y-97811761D01*
X98116667Y-97811761D02*
X98078571Y-97887952D01*
X98078571Y-97887952D02*
X98040476Y-97926047D01*
X98040476Y-97926047D02*
X97964286Y-97964142D01*
X97964286Y-97964142D02*
X97659524Y-97964142D01*
X98421428Y-97621285D02*
X98459524Y-97583190D01*
X98459524Y-97583190D02*
X98535714Y-97545095D01*
X98535714Y-97545095D02*
X98726190Y-97545095D01*
X98726190Y-97545095D02*
X98802381Y-97583190D01*
X98802381Y-97583190D02*
X98840476Y-97621285D01*
X98840476Y-97621285D02*
X98878571Y-97697476D01*
X98878571Y-97697476D02*
X98878571Y-97773666D01*
X98878571Y-97773666D02*
X98840476Y-97887952D01*
X98840476Y-97887952D02*
X98383333Y-98345095D01*
X98383333Y-98345095D02*
X98878571Y-98345095D01*
%TO.C,R8*%
X102166667Y-91920095D02*
X101900000Y-91539142D01*
X101709524Y-91920095D02*
X101709524Y-91120095D01*
X101709524Y-91120095D02*
X102014286Y-91120095D01*
X102014286Y-91120095D02*
X102090476Y-91158190D01*
X102090476Y-91158190D02*
X102128571Y-91196285D01*
X102128571Y-91196285D02*
X102166667Y-91272476D01*
X102166667Y-91272476D02*
X102166667Y-91386761D01*
X102166667Y-91386761D02*
X102128571Y-91462952D01*
X102128571Y-91462952D02*
X102090476Y-91501047D01*
X102090476Y-91501047D02*
X102014286Y-91539142D01*
X102014286Y-91539142D02*
X101709524Y-91539142D01*
X102623809Y-91462952D02*
X102547619Y-91424857D01*
X102547619Y-91424857D02*
X102509524Y-91386761D01*
X102509524Y-91386761D02*
X102471428Y-91310571D01*
X102471428Y-91310571D02*
X102471428Y-91272476D01*
X102471428Y-91272476D02*
X102509524Y-91196285D01*
X102509524Y-91196285D02*
X102547619Y-91158190D01*
X102547619Y-91158190D02*
X102623809Y-91120095D01*
X102623809Y-91120095D02*
X102776190Y-91120095D01*
X102776190Y-91120095D02*
X102852381Y-91158190D01*
X102852381Y-91158190D02*
X102890476Y-91196285D01*
X102890476Y-91196285D02*
X102928571Y-91272476D01*
X102928571Y-91272476D02*
X102928571Y-91310571D01*
X102928571Y-91310571D02*
X102890476Y-91386761D01*
X102890476Y-91386761D02*
X102852381Y-91424857D01*
X102852381Y-91424857D02*
X102776190Y-91462952D01*
X102776190Y-91462952D02*
X102623809Y-91462952D01*
X102623809Y-91462952D02*
X102547619Y-91501047D01*
X102547619Y-91501047D02*
X102509524Y-91539142D01*
X102509524Y-91539142D02*
X102471428Y-91615333D01*
X102471428Y-91615333D02*
X102471428Y-91767714D01*
X102471428Y-91767714D02*
X102509524Y-91843904D01*
X102509524Y-91843904D02*
X102547619Y-91882000D01*
X102547619Y-91882000D02*
X102623809Y-91920095D01*
X102623809Y-91920095D02*
X102776190Y-91920095D01*
X102776190Y-91920095D02*
X102852381Y-91882000D01*
X102852381Y-91882000D02*
X102890476Y-91843904D01*
X102890476Y-91843904D02*
X102928571Y-91767714D01*
X102928571Y-91767714D02*
X102928571Y-91615333D01*
X102928571Y-91615333D02*
X102890476Y-91539142D01*
X102890476Y-91539142D02*
X102852381Y-91501047D01*
X102852381Y-91501047D02*
X102776190Y-91462952D01*
%TO.C,D7*%
X122959524Y-106720095D02*
X122959524Y-105920095D01*
X122959524Y-105920095D02*
X123150000Y-105920095D01*
X123150000Y-105920095D02*
X123264286Y-105958190D01*
X123264286Y-105958190D02*
X123340476Y-106034380D01*
X123340476Y-106034380D02*
X123378571Y-106110571D01*
X123378571Y-106110571D02*
X123416667Y-106262952D01*
X123416667Y-106262952D02*
X123416667Y-106377238D01*
X123416667Y-106377238D02*
X123378571Y-106529619D01*
X123378571Y-106529619D02*
X123340476Y-106605809D01*
X123340476Y-106605809D02*
X123264286Y-106682000D01*
X123264286Y-106682000D02*
X123150000Y-106720095D01*
X123150000Y-106720095D02*
X122959524Y-106720095D01*
X123683333Y-105920095D02*
X124216667Y-105920095D01*
X124216667Y-105920095D02*
X123873809Y-106720095D01*
%TO.C,C6*%
X98016667Y-100968904D02*
X97978571Y-101007000D01*
X97978571Y-101007000D02*
X97864286Y-101045095D01*
X97864286Y-101045095D02*
X97788095Y-101045095D01*
X97788095Y-101045095D02*
X97673809Y-101007000D01*
X97673809Y-101007000D02*
X97597619Y-100930809D01*
X97597619Y-100930809D02*
X97559524Y-100854619D01*
X97559524Y-100854619D02*
X97521428Y-100702238D01*
X97521428Y-100702238D02*
X97521428Y-100587952D01*
X97521428Y-100587952D02*
X97559524Y-100435571D01*
X97559524Y-100435571D02*
X97597619Y-100359380D01*
X97597619Y-100359380D02*
X97673809Y-100283190D01*
X97673809Y-100283190D02*
X97788095Y-100245095D01*
X97788095Y-100245095D02*
X97864286Y-100245095D01*
X97864286Y-100245095D02*
X97978571Y-100283190D01*
X97978571Y-100283190D02*
X98016667Y-100321285D01*
X98702381Y-100245095D02*
X98550000Y-100245095D01*
X98550000Y-100245095D02*
X98473809Y-100283190D01*
X98473809Y-100283190D02*
X98435714Y-100321285D01*
X98435714Y-100321285D02*
X98359524Y-100435571D01*
X98359524Y-100435571D02*
X98321428Y-100587952D01*
X98321428Y-100587952D02*
X98321428Y-100892714D01*
X98321428Y-100892714D02*
X98359524Y-100968904D01*
X98359524Y-100968904D02*
X98397619Y-101007000D01*
X98397619Y-101007000D02*
X98473809Y-101045095D01*
X98473809Y-101045095D02*
X98626190Y-101045095D01*
X98626190Y-101045095D02*
X98702381Y-101007000D01*
X98702381Y-101007000D02*
X98740476Y-100968904D01*
X98740476Y-100968904D02*
X98778571Y-100892714D01*
X98778571Y-100892714D02*
X98778571Y-100702238D01*
X98778571Y-100702238D02*
X98740476Y-100626047D01*
X98740476Y-100626047D02*
X98702381Y-100587952D01*
X98702381Y-100587952D02*
X98626190Y-100549857D01*
X98626190Y-100549857D02*
X98473809Y-100549857D01*
X98473809Y-100549857D02*
X98397619Y-100587952D01*
X98397619Y-100587952D02*
X98359524Y-100626047D01*
X98359524Y-100626047D02*
X98321428Y-100702238D01*
%TO.C,C10*%
X124235714Y-102993904D02*
X124197618Y-103032000D01*
X124197618Y-103032000D02*
X124083333Y-103070095D01*
X124083333Y-103070095D02*
X124007142Y-103070095D01*
X124007142Y-103070095D02*
X123892856Y-103032000D01*
X123892856Y-103032000D02*
X123816666Y-102955809D01*
X123816666Y-102955809D02*
X123778571Y-102879619D01*
X123778571Y-102879619D02*
X123740475Y-102727238D01*
X123740475Y-102727238D02*
X123740475Y-102612952D01*
X123740475Y-102612952D02*
X123778571Y-102460571D01*
X123778571Y-102460571D02*
X123816666Y-102384380D01*
X123816666Y-102384380D02*
X123892856Y-102308190D01*
X123892856Y-102308190D02*
X124007142Y-102270095D01*
X124007142Y-102270095D02*
X124083333Y-102270095D01*
X124083333Y-102270095D02*
X124197618Y-102308190D01*
X124197618Y-102308190D02*
X124235714Y-102346285D01*
X124997618Y-103070095D02*
X124540475Y-103070095D01*
X124769047Y-103070095D02*
X124769047Y-102270095D01*
X124769047Y-102270095D02*
X124692856Y-102384380D01*
X124692856Y-102384380D02*
X124616666Y-102460571D01*
X124616666Y-102460571D02*
X124540475Y-102498666D01*
X125492857Y-102270095D02*
X125569047Y-102270095D01*
X125569047Y-102270095D02*
X125645238Y-102308190D01*
X125645238Y-102308190D02*
X125683333Y-102346285D01*
X125683333Y-102346285D02*
X125721428Y-102422476D01*
X125721428Y-102422476D02*
X125759523Y-102574857D01*
X125759523Y-102574857D02*
X125759523Y-102765333D01*
X125759523Y-102765333D02*
X125721428Y-102917714D01*
X125721428Y-102917714D02*
X125683333Y-102993904D01*
X125683333Y-102993904D02*
X125645238Y-103032000D01*
X125645238Y-103032000D02*
X125569047Y-103070095D01*
X125569047Y-103070095D02*
X125492857Y-103070095D01*
X125492857Y-103070095D02*
X125416666Y-103032000D01*
X125416666Y-103032000D02*
X125378571Y-102993904D01*
X125378571Y-102993904D02*
X125340476Y-102917714D01*
X125340476Y-102917714D02*
X125302380Y-102765333D01*
X125302380Y-102765333D02*
X125302380Y-102574857D01*
X125302380Y-102574857D02*
X125340476Y-102422476D01*
X125340476Y-102422476D02*
X125378571Y-102346285D01*
X125378571Y-102346285D02*
X125416666Y-102308190D01*
X125416666Y-102308190D02*
X125492857Y-102270095D01*
%TO.C,Q1*%
X85121285Y-100701190D02*
X85083190Y-100777380D01*
X85083190Y-100777380D02*
X85007000Y-100853571D01*
X85007000Y-100853571D02*
X84892714Y-100967857D01*
X84892714Y-100967857D02*
X84854619Y-101044047D01*
X84854619Y-101044047D02*
X84854619Y-101120238D01*
X85045095Y-101082142D02*
X85007000Y-101158333D01*
X85007000Y-101158333D02*
X84930809Y-101234523D01*
X84930809Y-101234523D02*
X84778428Y-101272619D01*
X84778428Y-101272619D02*
X84511761Y-101272619D01*
X84511761Y-101272619D02*
X84359380Y-101234523D01*
X84359380Y-101234523D02*
X84283190Y-101158333D01*
X84283190Y-101158333D02*
X84245095Y-101082142D01*
X84245095Y-101082142D02*
X84245095Y-100929761D01*
X84245095Y-100929761D02*
X84283190Y-100853571D01*
X84283190Y-100853571D02*
X84359380Y-100777380D01*
X84359380Y-100777380D02*
X84511761Y-100739285D01*
X84511761Y-100739285D02*
X84778428Y-100739285D01*
X84778428Y-100739285D02*
X84930809Y-100777380D01*
X84930809Y-100777380D02*
X85007000Y-100853571D01*
X85007000Y-100853571D02*
X85045095Y-100929761D01*
X85045095Y-100929761D02*
X85045095Y-101082142D01*
X85045095Y-99977381D02*
X85045095Y-100434524D01*
X85045095Y-100205952D02*
X84245095Y-100205952D01*
X84245095Y-100205952D02*
X84359380Y-100282143D01*
X84359380Y-100282143D02*
X84435571Y-100358333D01*
X84435571Y-100358333D02*
X84473666Y-100434524D01*
%TO.C,R12*%
X118885714Y-84745095D02*
X118619047Y-84364142D01*
X118428571Y-84745095D02*
X118428571Y-83945095D01*
X118428571Y-83945095D02*
X118733333Y-83945095D01*
X118733333Y-83945095D02*
X118809523Y-83983190D01*
X118809523Y-83983190D02*
X118847618Y-84021285D01*
X118847618Y-84021285D02*
X118885714Y-84097476D01*
X118885714Y-84097476D02*
X118885714Y-84211761D01*
X118885714Y-84211761D02*
X118847618Y-84287952D01*
X118847618Y-84287952D02*
X118809523Y-84326047D01*
X118809523Y-84326047D02*
X118733333Y-84364142D01*
X118733333Y-84364142D02*
X118428571Y-84364142D01*
X119647618Y-84745095D02*
X119190475Y-84745095D01*
X119419047Y-84745095D02*
X119419047Y-83945095D01*
X119419047Y-83945095D02*
X119342856Y-84059380D01*
X119342856Y-84059380D02*
X119266666Y-84135571D01*
X119266666Y-84135571D02*
X119190475Y-84173666D01*
X119952380Y-84021285D02*
X119990476Y-83983190D01*
X119990476Y-83983190D02*
X120066666Y-83945095D01*
X120066666Y-83945095D02*
X120257142Y-83945095D01*
X120257142Y-83945095D02*
X120333333Y-83983190D01*
X120333333Y-83983190D02*
X120371428Y-84021285D01*
X120371428Y-84021285D02*
X120409523Y-84097476D01*
X120409523Y-84097476D02*
X120409523Y-84173666D01*
X120409523Y-84173666D02*
X120371428Y-84287952D01*
X120371428Y-84287952D02*
X119914285Y-84745095D01*
X119914285Y-84745095D02*
X120409523Y-84745095D01*
%TO.C,R5*%
X110016667Y-87720095D02*
X109750000Y-87339142D01*
X109559524Y-87720095D02*
X109559524Y-86920095D01*
X109559524Y-86920095D02*
X109864286Y-86920095D01*
X109864286Y-86920095D02*
X109940476Y-86958190D01*
X109940476Y-86958190D02*
X109978571Y-86996285D01*
X109978571Y-86996285D02*
X110016667Y-87072476D01*
X110016667Y-87072476D02*
X110016667Y-87186761D01*
X110016667Y-87186761D02*
X109978571Y-87262952D01*
X109978571Y-87262952D02*
X109940476Y-87301047D01*
X109940476Y-87301047D02*
X109864286Y-87339142D01*
X109864286Y-87339142D02*
X109559524Y-87339142D01*
X110740476Y-86920095D02*
X110359524Y-86920095D01*
X110359524Y-86920095D02*
X110321428Y-87301047D01*
X110321428Y-87301047D02*
X110359524Y-87262952D01*
X110359524Y-87262952D02*
X110435714Y-87224857D01*
X110435714Y-87224857D02*
X110626190Y-87224857D01*
X110626190Y-87224857D02*
X110702381Y-87262952D01*
X110702381Y-87262952D02*
X110740476Y-87301047D01*
X110740476Y-87301047D02*
X110778571Y-87377238D01*
X110778571Y-87377238D02*
X110778571Y-87567714D01*
X110778571Y-87567714D02*
X110740476Y-87643904D01*
X110740476Y-87643904D02*
X110702381Y-87682000D01*
X110702381Y-87682000D02*
X110626190Y-87720095D01*
X110626190Y-87720095D02*
X110435714Y-87720095D01*
X110435714Y-87720095D02*
X110359524Y-87682000D01*
X110359524Y-87682000D02*
X110321428Y-87643904D01*
%TO.C,F1*%
X90383333Y-93901047D02*
X90116667Y-93901047D01*
X90116667Y-94320095D02*
X90116667Y-93520095D01*
X90116667Y-93520095D02*
X90497619Y-93520095D01*
X91221428Y-94320095D02*
X90764285Y-94320095D01*
X90992857Y-94320095D02*
X90992857Y-93520095D01*
X90992857Y-93520095D02*
X90916666Y-93634380D01*
X90916666Y-93634380D02*
X90840476Y-93710571D01*
X90840476Y-93710571D02*
X90764285Y-93748666D01*
%TO.C,D3*%
X122534524Y-90020095D02*
X122534524Y-89220095D01*
X122534524Y-89220095D02*
X122725000Y-89220095D01*
X122725000Y-89220095D02*
X122839286Y-89258190D01*
X122839286Y-89258190D02*
X122915476Y-89334380D01*
X122915476Y-89334380D02*
X122953571Y-89410571D01*
X122953571Y-89410571D02*
X122991667Y-89562952D01*
X122991667Y-89562952D02*
X122991667Y-89677238D01*
X122991667Y-89677238D02*
X122953571Y-89829619D01*
X122953571Y-89829619D02*
X122915476Y-89905809D01*
X122915476Y-89905809D02*
X122839286Y-89982000D01*
X122839286Y-89982000D02*
X122725000Y-90020095D01*
X122725000Y-90020095D02*
X122534524Y-90020095D01*
X123258333Y-89220095D02*
X123753571Y-89220095D01*
X123753571Y-89220095D02*
X123486905Y-89524857D01*
X123486905Y-89524857D02*
X123601190Y-89524857D01*
X123601190Y-89524857D02*
X123677381Y-89562952D01*
X123677381Y-89562952D02*
X123715476Y-89601047D01*
X123715476Y-89601047D02*
X123753571Y-89677238D01*
X123753571Y-89677238D02*
X123753571Y-89867714D01*
X123753571Y-89867714D02*
X123715476Y-89943904D01*
X123715476Y-89943904D02*
X123677381Y-89982000D01*
X123677381Y-89982000D02*
X123601190Y-90020095D01*
X123601190Y-90020095D02*
X123372619Y-90020095D01*
X123372619Y-90020095D02*
X123296428Y-89982000D01*
X123296428Y-89982000D02*
X123258333Y-89943904D01*
%TO.C,R3*%
X110016667Y-92970095D02*
X109750000Y-92589142D01*
X109559524Y-92970095D02*
X109559524Y-92170095D01*
X109559524Y-92170095D02*
X109864286Y-92170095D01*
X109864286Y-92170095D02*
X109940476Y-92208190D01*
X109940476Y-92208190D02*
X109978571Y-92246285D01*
X109978571Y-92246285D02*
X110016667Y-92322476D01*
X110016667Y-92322476D02*
X110016667Y-92436761D01*
X110016667Y-92436761D02*
X109978571Y-92512952D01*
X109978571Y-92512952D02*
X109940476Y-92551047D01*
X109940476Y-92551047D02*
X109864286Y-92589142D01*
X109864286Y-92589142D02*
X109559524Y-92589142D01*
X110283333Y-92170095D02*
X110778571Y-92170095D01*
X110778571Y-92170095D02*
X110511905Y-92474857D01*
X110511905Y-92474857D02*
X110626190Y-92474857D01*
X110626190Y-92474857D02*
X110702381Y-92512952D01*
X110702381Y-92512952D02*
X110740476Y-92551047D01*
X110740476Y-92551047D02*
X110778571Y-92627238D01*
X110778571Y-92627238D02*
X110778571Y-92817714D01*
X110778571Y-92817714D02*
X110740476Y-92893904D01*
X110740476Y-92893904D02*
X110702381Y-92932000D01*
X110702381Y-92932000D02*
X110626190Y-92970095D01*
X110626190Y-92970095D02*
X110397619Y-92970095D01*
X110397619Y-92970095D02*
X110321428Y-92932000D01*
X110321428Y-92932000D02*
X110283333Y-92893904D01*
%TO.C,C5*%
X118091667Y-96118904D02*
X118053571Y-96157000D01*
X118053571Y-96157000D02*
X117939286Y-96195095D01*
X117939286Y-96195095D02*
X117863095Y-96195095D01*
X117863095Y-96195095D02*
X117748809Y-96157000D01*
X117748809Y-96157000D02*
X117672619Y-96080809D01*
X117672619Y-96080809D02*
X117634524Y-96004619D01*
X117634524Y-96004619D02*
X117596428Y-95852238D01*
X117596428Y-95852238D02*
X117596428Y-95737952D01*
X117596428Y-95737952D02*
X117634524Y-95585571D01*
X117634524Y-95585571D02*
X117672619Y-95509380D01*
X117672619Y-95509380D02*
X117748809Y-95433190D01*
X117748809Y-95433190D02*
X117863095Y-95395095D01*
X117863095Y-95395095D02*
X117939286Y-95395095D01*
X117939286Y-95395095D02*
X118053571Y-95433190D01*
X118053571Y-95433190D02*
X118091667Y-95471285D01*
X118815476Y-95395095D02*
X118434524Y-95395095D01*
X118434524Y-95395095D02*
X118396428Y-95776047D01*
X118396428Y-95776047D02*
X118434524Y-95737952D01*
X118434524Y-95737952D02*
X118510714Y-95699857D01*
X118510714Y-95699857D02*
X118701190Y-95699857D01*
X118701190Y-95699857D02*
X118777381Y-95737952D01*
X118777381Y-95737952D02*
X118815476Y-95776047D01*
X118815476Y-95776047D02*
X118853571Y-95852238D01*
X118853571Y-95852238D02*
X118853571Y-96042714D01*
X118853571Y-96042714D02*
X118815476Y-96118904D01*
X118815476Y-96118904D02*
X118777381Y-96157000D01*
X118777381Y-96157000D02*
X118701190Y-96195095D01*
X118701190Y-96195095D02*
X118510714Y-96195095D01*
X118510714Y-96195095D02*
X118434524Y-96157000D01*
X118434524Y-96157000D02*
X118396428Y-96118904D01*
%TO.C,J1*%
X89253333Y-86732095D02*
X89253333Y-87303523D01*
X89253333Y-87303523D02*
X89215238Y-87417809D01*
X89215238Y-87417809D02*
X89139047Y-87494000D01*
X89139047Y-87494000D02*
X89024762Y-87532095D01*
X89024762Y-87532095D02*
X88948571Y-87532095D01*
X90053333Y-87532095D02*
X89596190Y-87532095D01*
X89824762Y-87532095D02*
X89824762Y-86732095D01*
X89824762Y-86732095D02*
X89748571Y-86846380D01*
X89748571Y-86846380D02*
X89672381Y-86922571D01*
X89672381Y-86922571D02*
X89596190Y-86960666D01*
%TO.C,JP1*%
X92433333Y-97595095D02*
X92433333Y-98166523D01*
X92433333Y-98166523D02*
X92395238Y-98280809D01*
X92395238Y-98280809D02*
X92319047Y-98357000D01*
X92319047Y-98357000D02*
X92204762Y-98395095D01*
X92204762Y-98395095D02*
X92128571Y-98395095D01*
X92814286Y-98395095D02*
X92814286Y-97595095D01*
X92814286Y-97595095D02*
X93119048Y-97595095D01*
X93119048Y-97595095D02*
X93195238Y-97633190D01*
X93195238Y-97633190D02*
X93233333Y-97671285D01*
X93233333Y-97671285D02*
X93271429Y-97747476D01*
X93271429Y-97747476D02*
X93271429Y-97861761D01*
X93271429Y-97861761D02*
X93233333Y-97937952D01*
X93233333Y-97937952D02*
X93195238Y-97976047D01*
X93195238Y-97976047D02*
X93119048Y-98014142D01*
X93119048Y-98014142D02*
X92814286Y-98014142D01*
X94033333Y-98395095D02*
X93576190Y-98395095D01*
X93804762Y-98395095D02*
X93804762Y-97595095D01*
X93804762Y-97595095D02*
X93728571Y-97709380D01*
X93728571Y-97709380D02*
X93652381Y-97785571D01*
X93652381Y-97785571D02*
X93576190Y-97823666D01*
%TO.C,D5*%
X127609524Y-90020095D02*
X127609524Y-89220095D01*
X127609524Y-89220095D02*
X127800000Y-89220095D01*
X127800000Y-89220095D02*
X127914286Y-89258190D01*
X127914286Y-89258190D02*
X127990476Y-89334380D01*
X127990476Y-89334380D02*
X128028571Y-89410571D01*
X128028571Y-89410571D02*
X128066667Y-89562952D01*
X128066667Y-89562952D02*
X128066667Y-89677238D01*
X128066667Y-89677238D02*
X128028571Y-89829619D01*
X128028571Y-89829619D02*
X127990476Y-89905809D01*
X127990476Y-89905809D02*
X127914286Y-89982000D01*
X127914286Y-89982000D02*
X127800000Y-90020095D01*
X127800000Y-90020095D02*
X127609524Y-90020095D01*
X128790476Y-89220095D02*
X128409524Y-89220095D01*
X128409524Y-89220095D02*
X128371428Y-89601047D01*
X128371428Y-89601047D02*
X128409524Y-89562952D01*
X128409524Y-89562952D02*
X128485714Y-89524857D01*
X128485714Y-89524857D02*
X128676190Y-89524857D01*
X128676190Y-89524857D02*
X128752381Y-89562952D01*
X128752381Y-89562952D02*
X128790476Y-89601047D01*
X128790476Y-89601047D02*
X128828571Y-89677238D01*
X128828571Y-89677238D02*
X128828571Y-89867714D01*
X128828571Y-89867714D02*
X128790476Y-89943904D01*
X128790476Y-89943904D02*
X128752381Y-89982000D01*
X128752381Y-89982000D02*
X128676190Y-90020095D01*
X128676190Y-90020095D02*
X128485714Y-90020095D01*
X128485714Y-90020095D02*
X128409524Y-89982000D01*
X128409524Y-89982000D02*
X128371428Y-89943904D01*
%TO.C,D4*%
X125009524Y-90020095D02*
X125009524Y-89220095D01*
X125009524Y-89220095D02*
X125200000Y-89220095D01*
X125200000Y-89220095D02*
X125314286Y-89258190D01*
X125314286Y-89258190D02*
X125390476Y-89334380D01*
X125390476Y-89334380D02*
X125428571Y-89410571D01*
X125428571Y-89410571D02*
X125466667Y-89562952D01*
X125466667Y-89562952D02*
X125466667Y-89677238D01*
X125466667Y-89677238D02*
X125428571Y-89829619D01*
X125428571Y-89829619D02*
X125390476Y-89905809D01*
X125390476Y-89905809D02*
X125314286Y-89982000D01*
X125314286Y-89982000D02*
X125200000Y-90020095D01*
X125200000Y-90020095D02*
X125009524Y-90020095D01*
X126152381Y-89486761D02*
X126152381Y-90020095D01*
X125961905Y-89182000D02*
X125771428Y-89753428D01*
X125771428Y-89753428D02*
X126266667Y-89753428D01*
%TO.C,RN1*%
X136520095Y-87352380D02*
X136139142Y-87619047D01*
X136520095Y-87809523D02*
X135720095Y-87809523D01*
X135720095Y-87809523D02*
X135720095Y-87504761D01*
X135720095Y-87504761D02*
X135758190Y-87428571D01*
X135758190Y-87428571D02*
X135796285Y-87390476D01*
X135796285Y-87390476D02*
X135872476Y-87352380D01*
X135872476Y-87352380D02*
X135986761Y-87352380D01*
X135986761Y-87352380D02*
X136062952Y-87390476D01*
X136062952Y-87390476D02*
X136101047Y-87428571D01*
X136101047Y-87428571D02*
X136139142Y-87504761D01*
X136139142Y-87504761D02*
X136139142Y-87809523D01*
X136520095Y-87009523D02*
X135720095Y-87009523D01*
X135720095Y-87009523D02*
X136520095Y-86552380D01*
X136520095Y-86552380D02*
X135720095Y-86552380D01*
X136520095Y-85752381D02*
X136520095Y-86209524D01*
X136520095Y-85980952D02*
X135720095Y-85980952D01*
X135720095Y-85980952D02*
X135834380Y-86057143D01*
X135834380Y-86057143D02*
X135910571Y-86133333D01*
X135910571Y-86133333D02*
X135948666Y-86209524D01*
%TO.C,JP2*%
X131548333Y-97495095D02*
X131548333Y-98066523D01*
X131548333Y-98066523D02*
X131510238Y-98180809D01*
X131510238Y-98180809D02*
X131434047Y-98257000D01*
X131434047Y-98257000D02*
X131319762Y-98295095D01*
X131319762Y-98295095D02*
X131243571Y-98295095D01*
X131929286Y-98295095D02*
X131929286Y-97495095D01*
X131929286Y-97495095D02*
X132234048Y-97495095D01*
X132234048Y-97495095D02*
X132310238Y-97533190D01*
X132310238Y-97533190D02*
X132348333Y-97571285D01*
X132348333Y-97571285D02*
X132386429Y-97647476D01*
X132386429Y-97647476D02*
X132386429Y-97761761D01*
X132386429Y-97761761D02*
X132348333Y-97837952D01*
X132348333Y-97837952D02*
X132310238Y-97876047D01*
X132310238Y-97876047D02*
X132234048Y-97914142D01*
X132234048Y-97914142D02*
X131929286Y-97914142D01*
X132691190Y-97571285D02*
X132729286Y-97533190D01*
X132729286Y-97533190D02*
X132805476Y-97495095D01*
X132805476Y-97495095D02*
X132995952Y-97495095D01*
X132995952Y-97495095D02*
X133072143Y-97533190D01*
X133072143Y-97533190D02*
X133110238Y-97571285D01*
X133110238Y-97571285D02*
X133148333Y-97647476D01*
X133148333Y-97647476D02*
X133148333Y-97723666D01*
X133148333Y-97723666D02*
X133110238Y-97837952D01*
X133110238Y-97837952D02*
X132653095Y-98295095D01*
X132653095Y-98295095D02*
X133148333Y-98295095D01*
%TO.C,L1*%
X115620095Y-97108333D02*
X115620095Y-97489285D01*
X115620095Y-97489285D02*
X114820095Y-97489285D01*
X115620095Y-96422619D02*
X115620095Y-96879762D01*
X115620095Y-96651190D02*
X114820095Y-96651190D01*
X114820095Y-96651190D02*
X114934380Y-96727381D01*
X114934380Y-96727381D02*
X115010571Y-96803571D01*
X115010571Y-96803571D02*
X115048666Y-96879762D01*
%TO.C,R18*%
X118935714Y-106720095D02*
X118669047Y-106339142D01*
X118478571Y-106720095D02*
X118478571Y-105920095D01*
X118478571Y-105920095D02*
X118783333Y-105920095D01*
X118783333Y-105920095D02*
X118859523Y-105958190D01*
X118859523Y-105958190D02*
X118897618Y-105996285D01*
X118897618Y-105996285D02*
X118935714Y-106072476D01*
X118935714Y-106072476D02*
X118935714Y-106186761D01*
X118935714Y-106186761D02*
X118897618Y-106262952D01*
X118897618Y-106262952D02*
X118859523Y-106301047D01*
X118859523Y-106301047D02*
X118783333Y-106339142D01*
X118783333Y-106339142D02*
X118478571Y-106339142D01*
X119697618Y-106720095D02*
X119240475Y-106720095D01*
X119469047Y-106720095D02*
X119469047Y-105920095D01*
X119469047Y-105920095D02*
X119392856Y-106034380D01*
X119392856Y-106034380D02*
X119316666Y-106110571D01*
X119316666Y-106110571D02*
X119240475Y-106148666D01*
X120154761Y-106262952D02*
X120078571Y-106224857D01*
X120078571Y-106224857D02*
X120040476Y-106186761D01*
X120040476Y-106186761D02*
X120002380Y-106110571D01*
X120002380Y-106110571D02*
X120002380Y-106072476D01*
X120002380Y-106072476D02*
X120040476Y-105996285D01*
X120040476Y-105996285D02*
X120078571Y-105958190D01*
X120078571Y-105958190D02*
X120154761Y-105920095D01*
X120154761Y-105920095D02*
X120307142Y-105920095D01*
X120307142Y-105920095D02*
X120383333Y-105958190D01*
X120383333Y-105958190D02*
X120421428Y-105996285D01*
X120421428Y-105996285D02*
X120459523Y-106072476D01*
X120459523Y-106072476D02*
X120459523Y-106110571D01*
X120459523Y-106110571D02*
X120421428Y-106186761D01*
X120421428Y-106186761D02*
X120383333Y-106224857D01*
X120383333Y-106224857D02*
X120307142Y-106262952D01*
X120307142Y-106262952D02*
X120154761Y-106262952D01*
X120154761Y-106262952D02*
X120078571Y-106301047D01*
X120078571Y-106301047D02*
X120040476Y-106339142D01*
X120040476Y-106339142D02*
X120002380Y-106415333D01*
X120002380Y-106415333D02*
X120002380Y-106567714D01*
X120002380Y-106567714D02*
X120040476Y-106643904D01*
X120040476Y-106643904D02*
X120078571Y-106682000D01*
X120078571Y-106682000D02*
X120154761Y-106720095D01*
X120154761Y-106720095D02*
X120307142Y-106720095D01*
X120307142Y-106720095D02*
X120383333Y-106682000D01*
X120383333Y-106682000D02*
X120421428Y-106643904D01*
X120421428Y-106643904D02*
X120459523Y-106567714D01*
X120459523Y-106567714D02*
X120459523Y-106415333D01*
X120459523Y-106415333D02*
X120421428Y-106339142D01*
X120421428Y-106339142D02*
X120383333Y-106301047D01*
X120383333Y-106301047D02*
X120307142Y-106262952D01*
%TO.C,D6*%
X130209524Y-90020095D02*
X130209524Y-89220095D01*
X130209524Y-89220095D02*
X130400000Y-89220095D01*
X130400000Y-89220095D02*
X130514286Y-89258190D01*
X130514286Y-89258190D02*
X130590476Y-89334380D01*
X130590476Y-89334380D02*
X130628571Y-89410571D01*
X130628571Y-89410571D02*
X130666667Y-89562952D01*
X130666667Y-89562952D02*
X130666667Y-89677238D01*
X130666667Y-89677238D02*
X130628571Y-89829619D01*
X130628571Y-89829619D02*
X130590476Y-89905809D01*
X130590476Y-89905809D02*
X130514286Y-89982000D01*
X130514286Y-89982000D02*
X130400000Y-90020095D01*
X130400000Y-90020095D02*
X130209524Y-90020095D01*
X131352381Y-89220095D02*
X131200000Y-89220095D01*
X131200000Y-89220095D02*
X131123809Y-89258190D01*
X131123809Y-89258190D02*
X131085714Y-89296285D01*
X131085714Y-89296285D02*
X131009524Y-89410571D01*
X131009524Y-89410571D02*
X130971428Y-89562952D01*
X130971428Y-89562952D02*
X130971428Y-89867714D01*
X130971428Y-89867714D02*
X131009524Y-89943904D01*
X131009524Y-89943904D02*
X131047619Y-89982000D01*
X131047619Y-89982000D02*
X131123809Y-90020095D01*
X131123809Y-90020095D02*
X131276190Y-90020095D01*
X131276190Y-90020095D02*
X131352381Y-89982000D01*
X131352381Y-89982000D02*
X131390476Y-89943904D01*
X131390476Y-89943904D02*
X131428571Y-89867714D01*
X131428571Y-89867714D02*
X131428571Y-89677238D01*
X131428571Y-89677238D02*
X131390476Y-89601047D01*
X131390476Y-89601047D02*
X131352381Y-89562952D01*
X131352381Y-89562952D02*
X131276190Y-89524857D01*
X131276190Y-89524857D02*
X131123809Y-89524857D01*
X131123809Y-89524857D02*
X131047619Y-89562952D01*
X131047619Y-89562952D02*
X131009524Y-89601047D01*
X131009524Y-89601047D02*
X130971428Y-89677238D01*
%TO.C,C9*%
X124241667Y-104093904D02*
X124203571Y-104132000D01*
X124203571Y-104132000D02*
X124089286Y-104170095D01*
X124089286Y-104170095D02*
X124013095Y-104170095D01*
X124013095Y-104170095D02*
X123898809Y-104132000D01*
X123898809Y-104132000D02*
X123822619Y-104055809D01*
X123822619Y-104055809D02*
X123784524Y-103979619D01*
X123784524Y-103979619D02*
X123746428Y-103827238D01*
X123746428Y-103827238D02*
X123746428Y-103712952D01*
X123746428Y-103712952D02*
X123784524Y-103560571D01*
X123784524Y-103560571D02*
X123822619Y-103484380D01*
X123822619Y-103484380D02*
X123898809Y-103408190D01*
X123898809Y-103408190D02*
X124013095Y-103370095D01*
X124013095Y-103370095D02*
X124089286Y-103370095D01*
X124089286Y-103370095D02*
X124203571Y-103408190D01*
X124203571Y-103408190D02*
X124241667Y-103446285D01*
X124622619Y-104170095D02*
X124775000Y-104170095D01*
X124775000Y-104170095D02*
X124851190Y-104132000D01*
X124851190Y-104132000D02*
X124889286Y-104093904D01*
X124889286Y-104093904D02*
X124965476Y-103979619D01*
X124965476Y-103979619D02*
X125003571Y-103827238D01*
X125003571Y-103827238D02*
X125003571Y-103522476D01*
X125003571Y-103522476D02*
X124965476Y-103446285D01*
X124965476Y-103446285D02*
X124927381Y-103408190D01*
X124927381Y-103408190D02*
X124851190Y-103370095D01*
X124851190Y-103370095D02*
X124698809Y-103370095D01*
X124698809Y-103370095D02*
X124622619Y-103408190D01*
X124622619Y-103408190D02*
X124584524Y-103446285D01*
X124584524Y-103446285D02*
X124546428Y-103522476D01*
X124546428Y-103522476D02*
X124546428Y-103712952D01*
X124546428Y-103712952D02*
X124584524Y-103789142D01*
X124584524Y-103789142D02*
X124622619Y-103827238D01*
X124622619Y-103827238D02*
X124698809Y-103865333D01*
X124698809Y-103865333D02*
X124851190Y-103865333D01*
X124851190Y-103865333D02*
X124927381Y-103827238D01*
X124927381Y-103827238D02*
X124965476Y-103789142D01*
X124965476Y-103789142D02*
X125003571Y-103712952D01*
%TO.C,D1*%
X106409524Y-97920095D02*
X106409524Y-97120095D01*
X106409524Y-97120095D02*
X106600000Y-97120095D01*
X106600000Y-97120095D02*
X106714286Y-97158190D01*
X106714286Y-97158190D02*
X106790476Y-97234380D01*
X106790476Y-97234380D02*
X106828571Y-97310571D01*
X106828571Y-97310571D02*
X106866667Y-97462952D01*
X106866667Y-97462952D02*
X106866667Y-97577238D01*
X106866667Y-97577238D02*
X106828571Y-97729619D01*
X106828571Y-97729619D02*
X106790476Y-97805809D01*
X106790476Y-97805809D02*
X106714286Y-97882000D01*
X106714286Y-97882000D02*
X106600000Y-97920095D01*
X106600000Y-97920095D02*
X106409524Y-97920095D01*
X107628571Y-97920095D02*
X107171428Y-97920095D01*
X107400000Y-97920095D02*
X107400000Y-97120095D01*
X107400000Y-97120095D02*
X107323809Y-97234380D01*
X107323809Y-97234380D02*
X107247619Y-97310571D01*
X107247619Y-97310571D02*
X107171428Y-97348666D01*
%TO.C,R1*%
X92816667Y-94170095D02*
X92550000Y-93789142D01*
X92359524Y-94170095D02*
X92359524Y-93370095D01*
X92359524Y-93370095D02*
X92664286Y-93370095D01*
X92664286Y-93370095D02*
X92740476Y-93408190D01*
X92740476Y-93408190D02*
X92778571Y-93446285D01*
X92778571Y-93446285D02*
X92816667Y-93522476D01*
X92816667Y-93522476D02*
X92816667Y-93636761D01*
X92816667Y-93636761D02*
X92778571Y-93712952D01*
X92778571Y-93712952D02*
X92740476Y-93751047D01*
X92740476Y-93751047D02*
X92664286Y-93789142D01*
X92664286Y-93789142D02*
X92359524Y-93789142D01*
X93578571Y-94170095D02*
X93121428Y-94170095D01*
X93350000Y-94170095D02*
X93350000Y-93370095D01*
X93350000Y-93370095D02*
X93273809Y-93484380D01*
X93273809Y-93484380D02*
X93197619Y-93560571D01*
X93197619Y-93560571D02*
X93121428Y-93598666D01*
%TO.C,U3*%
X123270095Y-98934523D02*
X123917714Y-98934523D01*
X123917714Y-98934523D02*
X123993904Y-98896428D01*
X123993904Y-98896428D02*
X124032000Y-98858333D01*
X124032000Y-98858333D02*
X124070095Y-98782142D01*
X124070095Y-98782142D02*
X124070095Y-98629761D01*
X124070095Y-98629761D02*
X124032000Y-98553571D01*
X124032000Y-98553571D02*
X123993904Y-98515476D01*
X123993904Y-98515476D02*
X123917714Y-98477380D01*
X123917714Y-98477380D02*
X123270095Y-98477380D01*
X123270095Y-98172619D02*
X123270095Y-97677381D01*
X123270095Y-97677381D02*
X123574857Y-97944047D01*
X123574857Y-97944047D02*
X123574857Y-97829762D01*
X123574857Y-97829762D02*
X123612952Y-97753571D01*
X123612952Y-97753571D02*
X123651047Y-97715476D01*
X123651047Y-97715476D02*
X123727238Y-97677381D01*
X123727238Y-97677381D02*
X123917714Y-97677381D01*
X123917714Y-97677381D02*
X123993904Y-97715476D01*
X123993904Y-97715476D02*
X124032000Y-97753571D01*
X124032000Y-97753571D02*
X124070095Y-97829762D01*
X124070095Y-97829762D02*
X124070095Y-98058333D01*
X124070095Y-98058333D02*
X124032000Y-98134524D01*
X124032000Y-98134524D02*
X123993904Y-98172619D01*
%TO.C,Q2*%
X91048809Y-96296285D02*
X90972619Y-96258190D01*
X90972619Y-96258190D02*
X90896428Y-96182000D01*
X90896428Y-96182000D02*
X90782142Y-96067714D01*
X90782142Y-96067714D02*
X90705952Y-96029619D01*
X90705952Y-96029619D02*
X90629761Y-96029619D01*
X90667857Y-96220095D02*
X90591666Y-96182000D01*
X90591666Y-96182000D02*
X90515476Y-96105809D01*
X90515476Y-96105809D02*
X90477380Y-95953428D01*
X90477380Y-95953428D02*
X90477380Y-95686761D01*
X90477380Y-95686761D02*
X90515476Y-95534380D01*
X90515476Y-95534380D02*
X90591666Y-95458190D01*
X90591666Y-95458190D02*
X90667857Y-95420095D01*
X90667857Y-95420095D02*
X90820238Y-95420095D01*
X90820238Y-95420095D02*
X90896428Y-95458190D01*
X90896428Y-95458190D02*
X90972619Y-95534380D01*
X90972619Y-95534380D02*
X91010714Y-95686761D01*
X91010714Y-95686761D02*
X91010714Y-95953428D01*
X91010714Y-95953428D02*
X90972619Y-96105809D01*
X90972619Y-96105809D02*
X90896428Y-96182000D01*
X90896428Y-96182000D02*
X90820238Y-96220095D01*
X90820238Y-96220095D02*
X90667857Y-96220095D01*
X91315475Y-95496285D02*
X91353571Y-95458190D01*
X91353571Y-95458190D02*
X91429761Y-95420095D01*
X91429761Y-95420095D02*
X91620237Y-95420095D01*
X91620237Y-95420095D02*
X91696428Y-95458190D01*
X91696428Y-95458190D02*
X91734523Y-95496285D01*
X91734523Y-95496285D02*
X91772618Y-95572476D01*
X91772618Y-95572476D02*
X91772618Y-95648666D01*
X91772618Y-95648666D02*
X91734523Y-95762952D01*
X91734523Y-95762952D02*
X91277380Y-96220095D01*
X91277380Y-96220095D02*
X91772618Y-96220095D01*
%TO.C,R9*%
X114316667Y-96420095D02*
X114050000Y-96039142D01*
X113859524Y-96420095D02*
X113859524Y-95620095D01*
X113859524Y-95620095D02*
X114164286Y-95620095D01*
X114164286Y-95620095D02*
X114240476Y-95658190D01*
X114240476Y-95658190D02*
X114278571Y-95696285D01*
X114278571Y-95696285D02*
X114316667Y-95772476D01*
X114316667Y-95772476D02*
X114316667Y-95886761D01*
X114316667Y-95886761D02*
X114278571Y-95962952D01*
X114278571Y-95962952D02*
X114240476Y-96001047D01*
X114240476Y-96001047D02*
X114164286Y-96039142D01*
X114164286Y-96039142D02*
X113859524Y-96039142D01*
X114697619Y-96420095D02*
X114850000Y-96420095D01*
X114850000Y-96420095D02*
X114926190Y-96382000D01*
X114926190Y-96382000D02*
X114964286Y-96343904D01*
X114964286Y-96343904D02*
X115040476Y-96229619D01*
X115040476Y-96229619D02*
X115078571Y-96077238D01*
X115078571Y-96077238D02*
X115078571Y-95772476D01*
X115078571Y-95772476D02*
X115040476Y-95696285D01*
X115040476Y-95696285D02*
X115002381Y-95658190D01*
X115002381Y-95658190D02*
X114926190Y-95620095D01*
X114926190Y-95620095D02*
X114773809Y-95620095D01*
X114773809Y-95620095D02*
X114697619Y-95658190D01*
X114697619Y-95658190D02*
X114659524Y-95696285D01*
X114659524Y-95696285D02*
X114621428Y-95772476D01*
X114621428Y-95772476D02*
X114621428Y-95962952D01*
X114621428Y-95962952D02*
X114659524Y-96039142D01*
X114659524Y-96039142D02*
X114697619Y-96077238D01*
X114697619Y-96077238D02*
X114773809Y-96115333D01*
X114773809Y-96115333D02*
X114926190Y-96115333D01*
X114926190Y-96115333D02*
X115002381Y-96077238D01*
X115002381Y-96077238D02*
X115040476Y-96039142D01*
X115040476Y-96039142D02*
X115078571Y-95962952D01*
%TO.C,C13*%
X91760714Y-105418904D02*
X91722618Y-105457000D01*
X91722618Y-105457000D02*
X91608333Y-105495095D01*
X91608333Y-105495095D02*
X91532142Y-105495095D01*
X91532142Y-105495095D02*
X91417856Y-105457000D01*
X91417856Y-105457000D02*
X91341666Y-105380809D01*
X91341666Y-105380809D02*
X91303571Y-105304619D01*
X91303571Y-105304619D02*
X91265475Y-105152238D01*
X91265475Y-105152238D02*
X91265475Y-105037952D01*
X91265475Y-105037952D02*
X91303571Y-104885571D01*
X91303571Y-104885571D02*
X91341666Y-104809380D01*
X91341666Y-104809380D02*
X91417856Y-104733190D01*
X91417856Y-104733190D02*
X91532142Y-104695095D01*
X91532142Y-104695095D02*
X91608333Y-104695095D01*
X91608333Y-104695095D02*
X91722618Y-104733190D01*
X91722618Y-104733190D02*
X91760714Y-104771285D01*
X92522618Y-105495095D02*
X92065475Y-105495095D01*
X92294047Y-105495095D02*
X92294047Y-104695095D01*
X92294047Y-104695095D02*
X92217856Y-104809380D01*
X92217856Y-104809380D02*
X92141666Y-104885571D01*
X92141666Y-104885571D02*
X92065475Y-104923666D01*
X92789285Y-104695095D02*
X93284523Y-104695095D01*
X93284523Y-104695095D02*
X93017857Y-104999857D01*
X93017857Y-104999857D02*
X93132142Y-104999857D01*
X93132142Y-104999857D02*
X93208333Y-105037952D01*
X93208333Y-105037952D02*
X93246428Y-105076047D01*
X93246428Y-105076047D02*
X93284523Y-105152238D01*
X93284523Y-105152238D02*
X93284523Y-105342714D01*
X93284523Y-105342714D02*
X93246428Y-105418904D01*
X93246428Y-105418904D02*
X93208333Y-105457000D01*
X93208333Y-105457000D02*
X93132142Y-105495095D01*
X93132142Y-105495095D02*
X92903571Y-105495095D01*
X92903571Y-105495095D02*
X92827380Y-105457000D01*
X92827380Y-105457000D02*
X92789285Y-105418904D01*
%TO.C,J2*%
X101170095Y-89416666D02*
X101741523Y-89416666D01*
X101741523Y-89416666D02*
X101855809Y-89454761D01*
X101855809Y-89454761D02*
X101932000Y-89530952D01*
X101932000Y-89530952D02*
X101970095Y-89645237D01*
X101970095Y-89645237D02*
X101970095Y-89721428D01*
X101246285Y-89073809D02*
X101208190Y-89035713D01*
X101208190Y-89035713D02*
X101170095Y-88959523D01*
X101170095Y-88959523D02*
X101170095Y-88769047D01*
X101170095Y-88769047D02*
X101208190Y-88692856D01*
X101208190Y-88692856D02*
X101246285Y-88654761D01*
X101246285Y-88654761D02*
X101322476Y-88616666D01*
X101322476Y-88616666D02*
X101398666Y-88616666D01*
X101398666Y-88616666D02*
X101512952Y-88654761D01*
X101512952Y-88654761D02*
X101970095Y-89111904D01*
X101970095Y-89111904D02*
X101970095Y-88616666D01*
%TO.C,C8*%
X97866667Y-103193904D02*
X97828571Y-103232000D01*
X97828571Y-103232000D02*
X97714286Y-103270095D01*
X97714286Y-103270095D02*
X97638095Y-103270095D01*
X97638095Y-103270095D02*
X97523809Y-103232000D01*
X97523809Y-103232000D02*
X97447619Y-103155809D01*
X97447619Y-103155809D02*
X97409524Y-103079619D01*
X97409524Y-103079619D02*
X97371428Y-102927238D01*
X97371428Y-102927238D02*
X97371428Y-102812952D01*
X97371428Y-102812952D02*
X97409524Y-102660571D01*
X97409524Y-102660571D02*
X97447619Y-102584380D01*
X97447619Y-102584380D02*
X97523809Y-102508190D01*
X97523809Y-102508190D02*
X97638095Y-102470095D01*
X97638095Y-102470095D02*
X97714286Y-102470095D01*
X97714286Y-102470095D02*
X97828571Y-102508190D01*
X97828571Y-102508190D02*
X97866667Y-102546285D01*
X98323809Y-102812952D02*
X98247619Y-102774857D01*
X98247619Y-102774857D02*
X98209524Y-102736761D01*
X98209524Y-102736761D02*
X98171428Y-102660571D01*
X98171428Y-102660571D02*
X98171428Y-102622476D01*
X98171428Y-102622476D02*
X98209524Y-102546285D01*
X98209524Y-102546285D02*
X98247619Y-102508190D01*
X98247619Y-102508190D02*
X98323809Y-102470095D01*
X98323809Y-102470095D02*
X98476190Y-102470095D01*
X98476190Y-102470095D02*
X98552381Y-102508190D01*
X98552381Y-102508190D02*
X98590476Y-102546285D01*
X98590476Y-102546285D02*
X98628571Y-102622476D01*
X98628571Y-102622476D02*
X98628571Y-102660571D01*
X98628571Y-102660571D02*
X98590476Y-102736761D01*
X98590476Y-102736761D02*
X98552381Y-102774857D01*
X98552381Y-102774857D02*
X98476190Y-102812952D01*
X98476190Y-102812952D02*
X98323809Y-102812952D01*
X98323809Y-102812952D02*
X98247619Y-102851047D01*
X98247619Y-102851047D02*
X98209524Y-102889142D01*
X98209524Y-102889142D02*
X98171428Y-102965333D01*
X98171428Y-102965333D02*
X98171428Y-103117714D01*
X98171428Y-103117714D02*
X98209524Y-103193904D01*
X98209524Y-103193904D02*
X98247619Y-103232000D01*
X98247619Y-103232000D02*
X98323809Y-103270095D01*
X98323809Y-103270095D02*
X98476190Y-103270095D01*
X98476190Y-103270095D02*
X98552381Y-103232000D01*
X98552381Y-103232000D02*
X98590476Y-103193904D01*
X98590476Y-103193904D02*
X98628571Y-103117714D01*
X98628571Y-103117714D02*
X98628571Y-102965333D01*
X98628571Y-102965333D02*
X98590476Y-102889142D01*
X98590476Y-102889142D02*
X98552381Y-102851047D01*
X98552381Y-102851047D02*
X98476190Y-102812952D01*
%TO.C,C3*%
X110066667Y-93843904D02*
X110028571Y-93882000D01*
X110028571Y-93882000D02*
X109914286Y-93920095D01*
X109914286Y-93920095D02*
X109838095Y-93920095D01*
X109838095Y-93920095D02*
X109723809Y-93882000D01*
X109723809Y-93882000D02*
X109647619Y-93805809D01*
X109647619Y-93805809D02*
X109609524Y-93729619D01*
X109609524Y-93729619D02*
X109571428Y-93577238D01*
X109571428Y-93577238D02*
X109571428Y-93462952D01*
X109571428Y-93462952D02*
X109609524Y-93310571D01*
X109609524Y-93310571D02*
X109647619Y-93234380D01*
X109647619Y-93234380D02*
X109723809Y-93158190D01*
X109723809Y-93158190D02*
X109838095Y-93120095D01*
X109838095Y-93120095D02*
X109914286Y-93120095D01*
X109914286Y-93120095D02*
X110028571Y-93158190D01*
X110028571Y-93158190D02*
X110066667Y-93196285D01*
X110333333Y-93120095D02*
X110828571Y-93120095D01*
X110828571Y-93120095D02*
X110561905Y-93424857D01*
X110561905Y-93424857D02*
X110676190Y-93424857D01*
X110676190Y-93424857D02*
X110752381Y-93462952D01*
X110752381Y-93462952D02*
X110790476Y-93501047D01*
X110790476Y-93501047D02*
X110828571Y-93577238D01*
X110828571Y-93577238D02*
X110828571Y-93767714D01*
X110828571Y-93767714D02*
X110790476Y-93843904D01*
X110790476Y-93843904D02*
X110752381Y-93882000D01*
X110752381Y-93882000D02*
X110676190Y-93920095D01*
X110676190Y-93920095D02*
X110447619Y-93920095D01*
X110447619Y-93920095D02*
X110371428Y-93882000D01*
X110371428Y-93882000D02*
X110333333Y-93843904D01*
%TO.C,U2*%
X130232595Y-89059523D02*
X130880214Y-89059523D01*
X130880214Y-89059523D02*
X130956404Y-89021428D01*
X130956404Y-89021428D02*
X130994500Y-88983333D01*
X130994500Y-88983333D02*
X131032595Y-88907142D01*
X131032595Y-88907142D02*
X131032595Y-88754761D01*
X131032595Y-88754761D02*
X130994500Y-88678571D01*
X130994500Y-88678571D02*
X130956404Y-88640476D01*
X130956404Y-88640476D02*
X130880214Y-88602380D01*
X130880214Y-88602380D02*
X130232595Y-88602380D01*
X130308785Y-88259524D02*
X130270690Y-88221428D01*
X130270690Y-88221428D02*
X130232595Y-88145238D01*
X130232595Y-88145238D02*
X130232595Y-87954762D01*
X130232595Y-87954762D02*
X130270690Y-87878571D01*
X130270690Y-87878571D02*
X130308785Y-87840476D01*
X130308785Y-87840476D02*
X130384976Y-87802381D01*
X130384976Y-87802381D02*
X130461166Y-87802381D01*
X130461166Y-87802381D02*
X130575452Y-87840476D01*
X130575452Y-87840476D02*
X131032595Y-88297619D01*
X131032595Y-88297619D02*
X131032595Y-87802381D01*
%TO.C,C4*%
X107118904Y-104558332D02*
X107157000Y-104596428D01*
X107157000Y-104596428D02*
X107195095Y-104710713D01*
X107195095Y-104710713D02*
X107195095Y-104786904D01*
X107195095Y-104786904D02*
X107157000Y-104901190D01*
X107157000Y-104901190D02*
X107080809Y-104977380D01*
X107080809Y-104977380D02*
X107004619Y-105015475D01*
X107004619Y-105015475D02*
X106852238Y-105053571D01*
X106852238Y-105053571D02*
X106737952Y-105053571D01*
X106737952Y-105053571D02*
X106585571Y-105015475D01*
X106585571Y-105015475D02*
X106509380Y-104977380D01*
X106509380Y-104977380D02*
X106433190Y-104901190D01*
X106433190Y-104901190D02*
X106395095Y-104786904D01*
X106395095Y-104786904D02*
X106395095Y-104710713D01*
X106395095Y-104710713D02*
X106433190Y-104596428D01*
X106433190Y-104596428D02*
X106471285Y-104558332D01*
X106661761Y-103872618D02*
X107195095Y-103872618D01*
X106357000Y-104063094D02*
X106928428Y-104253571D01*
X106928428Y-104253571D02*
X106928428Y-103758332D01*
%TO.C,R13*%
X118885714Y-87745095D02*
X118619047Y-87364142D01*
X118428571Y-87745095D02*
X118428571Y-86945095D01*
X118428571Y-86945095D02*
X118733333Y-86945095D01*
X118733333Y-86945095D02*
X118809523Y-86983190D01*
X118809523Y-86983190D02*
X118847618Y-87021285D01*
X118847618Y-87021285D02*
X118885714Y-87097476D01*
X118885714Y-87097476D02*
X118885714Y-87211761D01*
X118885714Y-87211761D02*
X118847618Y-87287952D01*
X118847618Y-87287952D02*
X118809523Y-87326047D01*
X118809523Y-87326047D02*
X118733333Y-87364142D01*
X118733333Y-87364142D02*
X118428571Y-87364142D01*
X119647618Y-87745095D02*
X119190475Y-87745095D01*
X119419047Y-87745095D02*
X119419047Y-86945095D01*
X119419047Y-86945095D02*
X119342856Y-87059380D01*
X119342856Y-87059380D02*
X119266666Y-87135571D01*
X119266666Y-87135571D02*
X119190475Y-87173666D01*
X119914285Y-86945095D02*
X120409523Y-86945095D01*
X120409523Y-86945095D02*
X120142857Y-87249857D01*
X120142857Y-87249857D02*
X120257142Y-87249857D01*
X120257142Y-87249857D02*
X120333333Y-87287952D01*
X120333333Y-87287952D02*
X120371428Y-87326047D01*
X120371428Y-87326047D02*
X120409523Y-87402238D01*
X120409523Y-87402238D02*
X120409523Y-87592714D01*
X120409523Y-87592714D02*
X120371428Y-87668904D01*
X120371428Y-87668904D02*
X120333333Y-87707000D01*
X120333333Y-87707000D02*
X120257142Y-87745095D01*
X120257142Y-87745095D02*
X120028571Y-87745095D01*
X120028571Y-87745095D02*
X119952380Y-87707000D01*
X119952380Y-87707000D02*
X119914285Y-87668904D01*
%TO.C,C1*%
X106793904Y-99333332D02*
X106832000Y-99371428D01*
X106832000Y-99371428D02*
X106870095Y-99485713D01*
X106870095Y-99485713D02*
X106870095Y-99561904D01*
X106870095Y-99561904D02*
X106832000Y-99676190D01*
X106832000Y-99676190D02*
X106755809Y-99752380D01*
X106755809Y-99752380D02*
X106679619Y-99790475D01*
X106679619Y-99790475D02*
X106527238Y-99828571D01*
X106527238Y-99828571D02*
X106412952Y-99828571D01*
X106412952Y-99828571D02*
X106260571Y-99790475D01*
X106260571Y-99790475D02*
X106184380Y-99752380D01*
X106184380Y-99752380D02*
X106108190Y-99676190D01*
X106108190Y-99676190D02*
X106070095Y-99561904D01*
X106070095Y-99561904D02*
X106070095Y-99485713D01*
X106070095Y-99485713D02*
X106108190Y-99371428D01*
X106108190Y-99371428D02*
X106146285Y-99333332D01*
X106870095Y-98571428D02*
X106870095Y-99028571D01*
X106870095Y-98799999D02*
X106070095Y-98799999D01*
X106070095Y-98799999D02*
X106184380Y-98876190D01*
X106184380Y-98876190D02*
X106260571Y-98952380D01*
X106260571Y-98952380D02*
X106298666Y-99028571D01*
%TO.C,SW1*%
X115282000Y-109141667D02*
X115320095Y-109027381D01*
X115320095Y-109027381D02*
X115320095Y-108836905D01*
X115320095Y-108836905D02*
X115282000Y-108760714D01*
X115282000Y-108760714D02*
X115243904Y-108722619D01*
X115243904Y-108722619D02*
X115167714Y-108684524D01*
X115167714Y-108684524D02*
X115091523Y-108684524D01*
X115091523Y-108684524D02*
X115015333Y-108722619D01*
X115015333Y-108722619D02*
X114977238Y-108760714D01*
X114977238Y-108760714D02*
X114939142Y-108836905D01*
X114939142Y-108836905D02*
X114901047Y-108989286D01*
X114901047Y-108989286D02*
X114862952Y-109065476D01*
X114862952Y-109065476D02*
X114824857Y-109103571D01*
X114824857Y-109103571D02*
X114748666Y-109141667D01*
X114748666Y-109141667D02*
X114672476Y-109141667D01*
X114672476Y-109141667D02*
X114596285Y-109103571D01*
X114596285Y-109103571D02*
X114558190Y-109065476D01*
X114558190Y-109065476D02*
X114520095Y-108989286D01*
X114520095Y-108989286D02*
X114520095Y-108798809D01*
X114520095Y-108798809D02*
X114558190Y-108684524D01*
X114520095Y-108417857D02*
X115320095Y-108227381D01*
X115320095Y-108227381D02*
X114748666Y-108075000D01*
X114748666Y-108075000D02*
X115320095Y-107922619D01*
X115320095Y-107922619D02*
X114520095Y-107732143D01*
X115320095Y-107008333D02*
X115320095Y-107465476D01*
X115320095Y-107236904D02*
X114520095Y-107236904D01*
X114520095Y-107236904D02*
X114634380Y-107313095D01*
X114634380Y-107313095D02*
X114710571Y-107389285D01*
X114710571Y-107389285D02*
X114748666Y-107465476D01*
%TO.C,C12*%
X86935714Y-103218904D02*
X86897618Y-103257000D01*
X86897618Y-103257000D02*
X86783333Y-103295095D01*
X86783333Y-103295095D02*
X86707142Y-103295095D01*
X86707142Y-103295095D02*
X86592856Y-103257000D01*
X86592856Y-103257000D02*
X86516666Y-103180809D01*
X86516666Y-103180809D02*
X86478571Y-103104619D01*
X86478571Y-103104619D02*
X86440475Y-102952238D01*
X86440475Y-102952238D02*
X86440475Y-102837952D01*
X86440475Y-102837952D02*
X86478571Y-102685571D01*
X86478571Y-102685571D02*
X86516666Y-102609380D01*
X86516666Y-102609380D02*
X86592856Y-102533190D01*
X86592856Y-102533190D02*
X86707142Y-102495095D01*
X86707142Y-102495095D02*
X86783333Y-102495095D01*
X86783333Y-102495095D02*
X86897618Y-102533190D01*
X86897618Y-102533190D02*
X86935714Y-102571285D01*
X87697618Y-103295095D02*
X87240475Y-103295095D01*
X87469047Y-103295095D02*
X87469047Y-102495095D01*
X87469047Y-102495095D02*
X87392856Y-102609380D01*
X87392856Y-102609380D02*
X87316666Y-102685571D01*
X87316666Y-102685571D02*
X87240475Y-102723666D01*
X88002380Y-102571285D02*
X88040476Y-102533190D01*
X88040476Y-102533190D02*
X88116666Y-102495095D01*
X88116666Y-102495095D02*
X88307142Y-102495095D01*
X88307142Y-102495095D02*
X88383333Y-102533190D01*
X88383333Y-102533190D02*
X88421428Y-102571285D01*
X88421428Y-102571285D02*
X88459523Y-102647476D01*
X88459523Y-102647476D02*
X88459523Y-102723666D01*
X88459523Y-102723666D02*
X88421428Y-102837952D01*
X88421428Y-102837952D02*
X87964285Y-103295095D01*
X87964285Y-103295095D02*
X88459523Y-103295095D01*
%TO.C,D2*%
X97609524Y-106795095D02*
X97609524Y-105995095D01*
X97609524Y-105995095D02*
X97800000Y-105995095D01*
X97800000Y-105995095D02*
X97914286Y-106033190D01*
X97914286Y-106033190D02*
X97990476Y-106109380D01*
X97990476Y-106109380D02*
X98028571Y-106185571D01*
X98028571Y-106185571D02*
X98066667Y-106337952D01*
X98066667Y-106337952D02*
X98066667Y-106452238D01*
X98066667Y-106452238D02*
X98028571Y-106604619D01*
X98028571Y-106604619D02*
X97990476Y-106680809D01*
X97990476Y-106680809D02*
X97914286Y-106757000D01*
X97914286Y-106757000D02*
X97800000Y-106795095D01*
X97800000Y-106795095D02*
X97609524Y-106795095D01*
X98371428Y-106071285D02*
X98409524Y-106033190D01*
X98409524Y-106033190D02*
X98485714Y-105995095D01*
X98485714Y-105995095D02*
X98676190Y-105995095D01*
X98676190Y-105995095D02*
X98752381Y-106033190D01*
X98752381Y-106033190D02*
X98790476Y-106071285D01*
X98790476Y-106071285D02*
X98828571Y-106147476D01*
X98828571Y-106147476D02*
X98828571Y-106223666D01*
X98828571Y-106223666D02*
X98790476Y-106337952D01*
X98790476Y-106337952D02*
X98333333Y-106795095D01*
X98333333Y-106795095D02*
X98828571Y-106795095D01*
%TO.C,R4*%
X105216667Y-87745095D02*
X104950000Y-87364142D01*
X104759524Y-87745095D02*
X104759524Y-86945095D01*
X104759524Y-86945095D02*
X105064286Y-86945095D01*
X105064286Y-86945095D02*
X105140476Y-86983190D01*
X105140476Y-86983190D02*
X105178571Y-87021285D01*
X105178571Y-87021285D02*
X105216667Y-87097476D01*
X105216667Y-87097476D02*
X105216667Y-87211761D01*
X105216667Y-87211761D02*
X105178571Y-87287952D01*
X105178571Y-87287952D02*
X105140476Y-87326047D01*
X105140476Y-87326047D02*
X105064286Y-87364142D01*
X105064286Y-87364142D02*
X104759524Y-87364142D01*
X105902381Y-87211761D02*
X105902381Y-87745095D01*
X105711905Y-86907000D02*
X105521428Y-87478428D01*
X105521428Y-87478428D02*
X106016667Y-87478428D01*
%TO.C,C11*%
X119393904Y-105164285D02*
X119432000Y-105202381D01*
X119432000Y-105202381D02*
X119470095Y-105316666D01*
X119470095Y-105316666D02*
X119470095Y-105392857D01*
X119470095Y-105392857D02*
X119432000Y-105507143D01*
X119432000Y-105507143D02*
X119355809Y-105583333D01*
X119355809Y-105583333D02*
X119279619Y-105621428D01*
X119279619Y-105621428D02*
X119127238Y-105659524D01*
X119127238Y-105659524D02*
X119012952Y-105659524D01*
X119012952Y-105659524D02*
X118860571Y-105621428D01*
X118860571Y-105621428D02*
X118784380Y-105583333D01*
X118784380Y-105583333D02*
X118708190Y-105507143D01*
X118708190Y-105507143D02*
X118670095Y-105392857D01*
X118670095Y-105392857D02*
X118670095Y-105316666D01*
X118670095Y-105316666D02*
X118708190Y-105202381D01*
X118708190Y-105202381D02*
X118746285Y-105164285D01*
X119470095Y-104402381D02*
X119470095Y-104859524D01*
X119470095Y-104630952D02*
X118670095Y-104630952D01*
X118670095Y-104630952D02*
X118784380Y-104707143D01*
X118784380Y-104707143D02*
X118860571Y-104783333D01*
X118860571Y-104783333D02*
X118898666Y-104859524D01*
X119470095Y-103640476D02*
X119470095Y-104097619D01*
X119470095Y-103869047D02*
X118670095Y-103869047D01*
X118670095Y-103869047D02*
X118784380Y-103945238D01*
X118784380Y-103945238D02*
X118860571Y-104021428D01*
X118860571Y-104021428D02*
X118898666Y-104097619D01*
%TO.C,U1*%
X98830476Y-96492595D02*
X98830476Y-97140214D01*
X98830476Y-97140214D02*
X98868571Y-97216404D01*
X98868571Y-97216404D02*
X98906666Y-97254500D01*
X98906666Y-97254500D02*
X98982857Y-97292595D01*
X98982857Y-97292595D02*
X99135238Y-97292595D01*
X99135238Y-97292595D02*
X99211428Y-97254500D01*
X99211428Y-97254500D02*
X99249523Y-97216404D01*
X99249523Y-97216404D02*
X99287619Y-97140214D01*
X99287619Y-97140214D02*
X99287619Y-96492595D01*
X100087618Y-97292595D02*
X99630475Y-97292595D01*
X99859047Y-97292595D02*
X99859047Y-96492595D01*
X99859047Y-96492595D02*
X99782856Y-96606880D01*
X99782856Y-96606880D02*
X99706666Y-96683071D01*
X99706666Y-96683071D02*
X99630475Y-96721166D01*
%TO.C,C2*%
X92716667Y-96518904D02*
X92678571Y-96557000D01*
X92678571Y-96557000D02*
X92564286Y-96595095D01*
X92564286Y-96595095D02*
X92488095Y-96595095D01*
X92488095Y-96595095D02*
X92373809Y-96557000D01*
X92373809Y-96557000D02*
X92297619Y-96480809D01*
X92297619Y-96480809D02*
X92259524Y-96404619D01*
X92259524Y-96404619D02*
X92221428Y-96252238D01*
X92221428Y-96252238D02*
X92221428Y-96137952D01*
X92221428Y-96137952D02*
X92259524Y-95985571D01*
X92259524Y-95985571D02*
X92297619Y-95909380D01*
X92297619Y-95909380D02*
X92373809Y-95833190D01*
X92373809Y-95833190D02*
X92488095Y-95795095D01*
X92488095Y-95795095D02*
X92564286Y-95795095D01*
X92564286Y-95795095D02*
X92678571Y-95833190D01*
X92678571Y-95833190D02*
X92716667Y-95871285D01*
X93021428Y-95871285D02*
X93059524Y-95833190D01*
X93059524Y-95833190D02*
X93135714Y-95795095D01*
X93135714Y-95795095D02*
X93326190Y-95795095D01*
X93326190Y-95795095D02*
X93402381Y-95833190D01*
X93402381Y-95833190D02*
X93440476Y-95871285D01*
X93440476Y-95871285D02*
X93478571Y-95947476D01*
X93478571Y-95947476D02*
X93478571Y-96023666D01*
X93478571Y-96023666D02*
X93440476Y-96137952D01*
X93440476Y-96137952D02*
X92983333Y-96595095D01*
X92983333Y-96595095D02*
X93478571Y-96595095D01*
%TO.C,RN2*%
X136570095Y-93052380D02*
X136189142Y-93319047D01*
X136570095Y-93509523D02*
X135770095Y-93509523D01*
X135770095Y-93509523D02*
X135770095Y-93204761D01*
X135770095Y-93204761D02*
X135808190Y-93128571D01*
X135808190Y-93128571D02*
X135846285Y-93090476D01*
X135846285Y-93090476D02*
X135922476Y-93052380D01*
X135922476Y-93052380D02*
X136036761Y-93052380D01*
X136036761Y-93052380D02*
X136112952Y-93090476D01*
X136112952Y-93090476D02*
X136151047Y-93128571D01*
X136151047Y-93128571D02*
X136189142Y-93204761D01*
X136189142Y-93204761D02*
X136189142Y-93509523D01*
X136570095Y-92709523D02*
X135770095Y-92709523D01*
X135770095Y-92709523D02*
X136570095Y-92252380D01*
X136570095Y-92252380D02*
X135770095Y-92252380D01*
X135846285Y-91909524D02*
X135808190Y-91871428D01*
X135808190Y-91871428D02*
X135770095Y-91795238D01*
X135770095Y-91795238D02*
X135770095Y-91604762D01*
X135770095Y-91604762D02*
X135808190Y-91528571D01*
X135808190Y-91528571D02*
X135846285Y-91490476D01*
X135846285Y-91490476D02*
X135922476Y-91452381D01*
X135922476Y-91452381D02*
X135998666Y-91452381D01*
X135998666Y-91452381D02*
X136112952Y-91490476D01*
X136112952Y-91490476D02*
X136570095Y-91947619D01*
X136570095Y-91947619D02*
X136570095Y-91452381D01*
%TO.C,C7*%
X127168904Y-100008332D02*
X127207000Y-100046428D01*
X127207000Y-100046428D02*
X127245095Y-100160713D01*
X127245095Y-100160713D02*
X127245095Y-100236904D01*
X127245095Y-100236904D02*
X127207000Y-100351190D01*
X127207000Y-100351190D02*
X127130809Y-100427380D01*
X127130809Y-100427380D02*
X127054619Y-100465475D01*
X127054619Y-100465475D02*
X126902238Y-100503571D01*
X126902238Y-100503571D02*
X126787952Y-100503571D01*
X126787952Y-100503571D02*
X126635571Y-100465475D01*
X126635571Y-100465475D02*
X126559380Y-100427380D01*
X126559380Y-100427380D02*
X126483190Y-100351190D01*
X126483190Y-100351190D02*
X126445095Y-100236904D01*
X126445095Y-100236904D02*
X126445095Y-100160713D01*
X126445095Y-100160713D02*
X126483190Y-100046428D01*
X126483190Y-100046428D02*
X126521285Y-100008332D01*
X126445095Y-99741666D02*
X126445095Y-99208332D01*
X126445095Y-99208332D02*
X127245095Y-99551190D01*
%TO.C,R16*%
X114285714Y-90745095D02*
X114019047Y-90364142D01*
X113828571Y-90745095D02*
X113828571Y-89945095D01*
X113828571Y-89945095D02*
X114133333Y-89945095D01*
X114133333Y-89945095D02*
X114209523Y-89983190D01*
X114209523Y-89983190D02*
X114247618Y-90021285D01*
X114247618Y-90021285D02*
X114285714Y-90097476D01*
X114285714Y-90097476D02*
X114285714Y-90211761D01*
X114285714Y-90211761D02*
X114247618Y-90287952D01*
X114247618Y-90287952D02*
X114209523Y-90326047D01*
X114209523Y-90326047D02*
X114133333Y-90364142D01*
X114133333Y-90364142D02*
X113828571Y-90364142D01*
X115047618Y-90745095D02*
X114590475Y-90745095D01*
X114819047Y-90745095D02*
X114819047Y-89945095D01*
X114819047Y-89945095D02*
X114742856Y-90059380D01*
X114742856Y-90059380D02*
X114666666Y-90135571D01*
X114666666Y-90135571D02*
X114590475Y-90173666D01*
X115733333Y-89945095D02*
X115580952Y-89945095D01*
X115580952Y-89945095D02*
X115504761Y-89983190D01*
X115504761Y-89983190D02*
X115466666Y-90021285D01*
X115466666Y-90021285D02*
X115390476Y-90135571D01*
X115390476Y-90135571D02*
X115352380Y-90287952D01*
X115352380Y-90287952D02*
X115352380Y-90592714D01*
X115352380Y-90592714D02*
X115390476Y-90668904D01*
X115390476Y-90668904D02*
X115428571Y-90707000D01*
X115428571Y-90707000D02*
X115504761Y-90745095D01*
X115504761Y-90745095D02*
X115657142Y-90745095D01*
X115657142Y-90745095D02*
X115733333Y-90707000D01*
X115733333Y-90707000D02*
X115771428Y-90668904D01*
X115771428Y-90668904D02*
X115809523Y-90592714D01*
X115809523Y-90592714D02*
X115809523Y-90402238D01*
X115809523Y-90402238D02*
X115771428Y-90326047D01*
X115771428Y-90326047D02*
X115733333Y-90287952D01*
X115733333Y-90287952D02*
X115657142Y-90249857D01*
X115657142Y-90249857D02*
X115504761Y-90249857D01*
X115504761Y-90249857D02*
X115428571Y-90287952D01*
X115428571Y-90287952D02*
X115390476Y-90326047D01*
X115390476Y-90326047D02*
X115352380Y-90402238D01*
%TO.C,R10*%
X97510714Y-105845095D02*
X97244047Y-105464142D01*
X97053571Y-105845095D02*
X97053571Y-105045095D01*
X97053571Y-105045095D02*
X97358333Y-105045095D01*
X97358333Y-105045095D02*
X97434523Y-105083190D01*
X97434523Y-105083190D02*
X97472618Y-105121285D01*
X97472618Y-105121285D02*
X97510714Y-105197476D01*
X97510714Y-105197476D02*
X97510714Y-105311761D01*
X97510714Y-105311761D02*
X97472618Y-105387952D01*
X97472618Y-105387952D02*
X97434523Y-105426047D01*
X97434523Y-105426047D02*
X97358333Y-105464142D01*
X97358333Y-105464142D02*
X97053571Y-105464142D01*
X98272618Y-105845095D02*
X97815475Y-105845095D01*
X98044047Y-105845095D02*
X98044047Y-105045095D01*
X98044047Y-105045095D02*
X97967856Y-105159380D01*
X97967856Y-105159380D02*
X97891666Y-105235571D01*
X97891666Y-105235571D02*
X97815475Y-105273666D01*
X98767857Y-105045095D02*
X98844047Y-105045095D01*
X98844047Y-105045095D02*
X98920238Y-105083190D01*
X98920238Y-105083190D02*
X98958333Y-105121285D01*
X98958333Y-105121285D02*
X98996428Y-105197476D01*
X98996428Y-105197476D02*
X99034523Y-105349857D01*
X99034523Y-105349857D02*
X99034523Y-105540333D01*
X99034523Y-105540333D02*
X98996428Y-105692714D01*
X98996428Y-105692714D02*
X98958333Y-105768904D01*
X98958333Y-105768904D02*
X98920238Y-105807000D01*
X98920238Y-105807000D02*
X98844047Y-105845095D01*
X98844047Y-105845095D02*
X98767857Y-105845095D01*
X98767857Y-105845095D02*
X98691666Y-105807000D01*
X98691666Y-105807000D02*
X98653571Y-105768904D01*
X98653571Y-105768904D02*
X98615476Y-105692714D01*
X98615476Y-105692714D02*
X98577380Y-105540333D01*
X98577380Y-105540333D02*
X98577380Y-105349857D01*
X98577380Y-105349857D02*
X98615476Y-105197476D01*
X98615476Y-105197476D02*
X98653571Y-105121285D01*
X98653571Y-105121285D02*
X98691666Y-105083190D01*
X98691666Y-105083190D02*
X98767857Y-105045095D01*
%TO.C,R15*%
X114285714Y-87745095D02*
X114019047Y-87364142D01*
X113828571Y-87745095D02*
X113828571Y-86945095D01*
X113828571Y-86945095D02*
X114133333Y-86945095D01*
X114133333Y-86945095D02*
X114209523Y-86983190D01*
X114209523Y-86983190D02*
X114247618Y-87021285D01*
X114247618Y-87021285D02*
X114285714Y-87097476D01*
X114285714Y-87097476D02*
X114285714Y-87211761D01*
X114285714Y-87211761D02*
X114247618Y-87287952D01*
X114247618Y-87287952D02*
X114209523Y-87326047D01*
X114209523Y-87326047D02*
X114133333Y-87364142D01*
X114133333Y-87364142D02*
X113828571Y-87364142D01*
X115047618Y-87745095D02*
X114590475Y-87745095D01*
X114819047Y-87745095D02*
X114819047Y-86945095D01*
X114819047Y-86945095D02*
X114742856Y-87059380D01*
X114742856Y-87059380D02*
X114666666Y-87135571D01*
X114666666Y-87135571D02*
X114590475Y-87173666D01*
X115771428Y-86945095D02*
X115390476Y-86945095D01*
X115390476Y-86945095D02*
X115352380Y-87326047D01*
X115352380Y-87326047D02*
X115390476Y-87287952D01*
X115390476Y-87287952D02*
X115466666Y-87249857D01*
X115466666Y-87249857D02*
X115657142Y-87249857D01*
X115657142Y-87249857D02*
X115733333Y-87287952D01*
X115733333Y-87287952D02*
X115771428Y-87326047D01*
X115771428Y-87326047D02*
X115809523Y-87402238D01*
X115809523Y-87402238D02*
X115809523Y-87592714D01*
X115809523Y-87592714D02*
X115771428Y-87668904D01*
X115771428Y-87668904D02*
X115733333Y-87707000D01*
X115733333Y-87707000D02*
X115657142Y-87745095D01*
X115657142Y-87745095D02*
X115466666Y-87745095D01*
X115466666Y-87745095D02*
X115390476Y-87707000D01*
X115390476Y-87707000D02*
X115352380Y-87668904D01*
%TO.C,R7*%
X110016667Y-84720095D02*
X109750000Y-84339142D01*
X109559524Y-84720095D02*
X109559524Y-83920095D01*
X109559524Y-83920095D02*
X109864286Y-83920095D01*
X109864286Y-83920095D02*
X109940476Y-83958190D01*
X109940476Y-83958190D02*
X109978571Y-83996285D01*
X109978571Y-83996285D02*
X110016667Y-84072476D01*
X110016667Y-84072476D02*
X110016667Y-84186761D01*
X110016667Y-84186761D02*
X109978571Y-84262952D01*
X109978571Y-84262952D02*
X109940476Y-84301047D01*
X109940476Y-84301047D02*
X109864286Y-84339142D01*
X109864286Y-84339142D02*
X109559524Y-84339142D01*
X110283333Y-83920095D02*
X110816667Y-83920095D01*
X110816667Y-83920095D02*
X110473809Y-84720095D01*
%TO.C,R14*%
X114072936Y-84890000D02*
X115527064Y-84890000D01*
X114072936Y-86710000D02*
X115527064Y-86710000D01*
%TO.C,R17*%
X118672936Y-90890000D02*
X120127064Y-90890000D01*
X118672936Y-92710000D02*
X120127064Y-92710000D01*
%TO.C,R6*%
X104622936Y-84890000D02*
X106077064Y-84890000D01*
X104622936Y-86710000D02*
X106077064Y-86710000D01*
%TO.C,R2*%
X102014564Y-99710000D02*
X100560436Y-99710000D01*
X102014564Y-97890000D02*
X100560436Y-97890000D01*
%TO.C,R8*%
X104622936Y-90140000D02*
X106077064Y-90140000D01*
X104622936Y-91960000D02*
X106077064Y-91960000D01*
%TO.C,D7*%
X120615000Y-106865000D02*
X120615000Y-109135000D01*
X120615000Y-109135000D02*
X124500000Y-109135000D01*
X124500000Y-106865000D02*
X120615000Y-106865000D01*
%TO.C,C6*%
X100588748Y-100215000D02*
X102011252Y-100215000D01*
X100588748Y-102035000D02*
X102011252Y-102035000D01*
%TO.C,C10*%
X120588748Y-99215000D02*
X122011252Y-99215000D01*
X120588748Y-101035000D02*
X122011252Y-101035000D01*
%TO.C,Q1*%
X84265000Y-97950000D02*
X84265000Y-99750000D01*
X84265000Y-97950000D02*
X84265000Y-97150000D01*
X87385000Y-97950000D02*
X87385000Y-98750000D01*
X87385000Y-97950000D02*
X87385000Y-97150000D01*
%TO.C,R12*%
X118672936Y-84890000D02*
X120127064Y-84890000D01*
X118672936Y-86710000D02*
X120127064Y-86710000D01*
%TO.C,R5*%
X109422936Y-87890000D02*
X110877064Y-87890000D01*
X109422936Y-89710000D02*
X110877064Y-89710000D01*
%TO.C,F1*%
X88436252Y-95660000D02*
X85663748Y-95660000D01*
X88436252Y-92240000D02*
X85663748Y-92240000D01*
%TO.C,D3*%
X124135000Y-90165000D02*
X121865000Y-90165000D01*
X121865000Y-90165000D02*
X121865000Y-94050000D01*
X124135000Y-94050000D02*
X124135000Y-90165000D01*
%TO.C,R3*%
X109422936Y-90140000D02*
X110877064Y-90140000D01*
X109422936Y-91960000D02*
X110877064Y-91960000D01*
%TO.C,C5*%
X118838748Y-93440000D02*
X120261252Y-93440000D01*
X118838748Y-95260000D02*
X120261252Y-95260000D01*
D13*
%TO.C,J1*%
X93990000Y-88550000D02*
X93990000Y-87350000D01*
X93990000Y-84750000D02*
X93990000Y-83950000D01*
D14*
X90020000Y-91350000D02*
X90020000Y-91350000D01*
X90020000Y-91250000D02*
X90020000Y-91250000D01*
D13*
X85050000Y-88550000D02*
X85050000Y-87350000D01*
X85050000Y-83950000D02*
X85050000Y-84750000D01*
D14*
X90020000Y-91250000D02*
G75*
G03*
X90020000Y-91350000I0J-50000D01*
G01*
X90020000Y-91350000D02*
G75*
G03*
X90020000Y-91250000I0J50000D01*
G01*
D10*
%TO.C,JP1*%
X96875000Y-105470000D02*
X96875000Y-104900000D01*
X96875000Y-105470000D02*
X94215000Y-105470000D01*
X96875000Y-104900000D02*
X98395000Y-104900000D01*
X96875000Y-103380000D02*
X96875000Y-99820000D01*
X96875000Y-97730000D02*
X94215000Y-97730000D01*
X94215000Y-105470000D02*
X94215000Y-102360000D01*
X94215000Y-100840000D02*
X94215000Y-97730000D01*
X94215000Y-98300000D02*
X94215000Y-97730000D01*
%TO.C,D5*%
X129335000Y-90165000D02*
X127065000Y-90165000D01*
X127065000Y-90165000D02*
X127065000Y-94050000D01*
X129335000Y-94050000D02*
X129335000Y-90165000D01*
%TO.C,D4*%
X126735000Y-90165000D02*
X124465000Y-90165000D01*
X124465000Y-90165000D02*
X124465000Y-94050000D01*
X126735000Y-94050000D02*
X126735000Y-90165000D01*
D14*
%TO.C,RN1*%
X134150000Y-85200000D02*
X133550000Y-85200000D01*
D13*
X132150000Y-85500000D02*
X132150000Y-85500000D01*
X132150000Y-85700000D02*
X132150000Y-85700000D01*
D14*
X134150000Y-88400000D02*
X133550000Y-88400000D01*
D13*
X132150000Y-85700000D02*
G75*
G03*
X132150000Y-85500000I0J100000D01*
G01*
X132150000Y-85500000D02*
G75*
G03*
X132150000Y-85700000I0J-100000D01*
G01*
D10*
%TO.C,JP2*%
X135945000Y-98995000D02*
X135375000Y-98995000D01*
X135945000Y-98995000D02*
X135945000Y-101655000D01*
X135375000Y-98995000D02*
X135375000Y-97475000D01*
X133855000Y-98995000D02*
X130295000Y-98995000D01*
X128205000Y-98995000D02*
X128205000Y-101655000D01*
X135945000Y-101655000D02*
X132835000Y-101655000D01*
X131315000Y-101655000D02*
X128205000Y-101655000D01*
X128775000Y-101655000D02*
X128205000Y-101655000D01*
%TO.C,L1*%
X118735000Y-98022936D02*
X118735000Y-99227064D01*
X116015000Y-98022936D02*
X116015000Y-99227064D01*
%TO.C,R18*%
X118827064Y-108910000D02*
X117372936Y-108910000D01*
X118827064Y-107090000D02*
X117372936Y-107090000D01*
%TO.C,D6*%
X131935000Y-90165000D02*
X129665000Y-90165000D01*
X129665000Y-90165000D02*
X129665000Y-94050000D01*
X131935000Y-94050000D02*
X131935000Y-90165000D01*
%TO.C,C9*%
X120613748Y-101565000D02*
X122036252Y-101565000D01*
X120613748Y-103385000D02*
X122036252Y-103385000D01*
%TO.C,D1*%
X109435000Y-96960000D02*
X109435000Y-94690000D01*
X109435000Y-94690000D02*
X105550000Y-94690000D01*
X105550000Y-96960000D02*
X109435000Y-96960000D01*
%TO.C,R1*%
X96727064Y-94710000D02*
X95272936Y-94710000D01*
X96727064Y-92890000D02*
X95272936Y-92890000D01*
%TO.C,U3*%
X121062500Y-98760000D02*
X122862500Y-98760000D01*
X121062500Y-98760000D02*
X120262500Y-98760000D01*
X121062500Y-95640000D02*
X121862500Y-95640000D01*
X121062500Y-95640000D02*
X120262500Y-95640000D01*
%TO.C,Q2*%
X89687500Y-96590000D02*
X87887500Y-96590000D01*
X89687500Y-96590000D02*
X90487500Y-96590000D01*
X89687500Y-99710000D02*
X88887500Y-99710000D01*
X89687500Y-99710000D02*
X90487500Y-99710000D01*
%TO.C,R9*%
X115577064Y-95260000D02*
X114122936Y-95260000D01*
X115577064Y-93440000D02*
X114122936Y-93440000D01*
%TO.C,C13*%
X94136252Y-107685000D02*
X92713748Y-107685000D01*
X94136252Y-105865000D02*
X92713748Y-105865000D01*
%TO.C,J2*%
X98225000Y-83880000D02*
X98225000Y-84450000D01*
X98225000Y-83880000D02*
X100885000Y-83880000D01*
X98225000Y-84450000D02*
X96705000Y-84450000D01*
X98225000Y-85970000D02*
X98225000Y-89530000D01*
X98225000Y-91620000D02*
X100885000Y-91620000D01*
X100885000Y-83880000D02*
X100885000Y-86990000D01*
X100885000Y-88510000D02*
X100885000Y-91620000D01*
X100885000Y-91050000D02*
X100885000Y-91620000D01*
%TO.C,C8*%
X100588748Y-102540000D02*
X102011252Y-102540000D01*
X100588748Y-104360000D02*
X102011252Y-104360000D01*
%TO.C,C3*%
X106463748Y-92540000D02*
X107886252Y-92540000D01*
X106463748Y-94360000D02*
X107886252Y-94360000D01*
%TO.C,U2*%
X126062500Y-89060000D02*
X129662500Y-89060000D01*
X126062500Y-89060000D02*
X123862500Y-89060000D01*
X126062500Y-83840000D02*
X128262500Y-83840000D01*
X126062500Y-83840000D02*
X123862500Y-83840000D01*
%TO.C,C4*%
X103890000Y-105361252D02*
X103890000Y-103938748D01*
X105710000Y-105361252D02*
X105710000Y-103938748D01*
%TO.C,R13*%
X118672936Y-87890000D02*
X120127064Y-87890000D01*
X118672936Y-89710000D02*
X120127064Y-89710000D01*
%TO.C,C1*%
X105710000Y-99313748D02*
X105710000Y-100736252D01*
X103890000Y-99313748D02*
X103890000Y-100736252D01*
%TO.C,R11*%
X102885436Y-107190000D02*
X104339564Y-107190000D01*
X102885436Y-109010000D02*
X104339564Y-109010000D01*
%TO.C,SW1*%
X115500000Y-100040000D02*
X114190000Y-100040000D01*
X115500000Y-100040000D02*
X115500000Y-106860000D01*
X112590000Y-100040000D02*
X111650000Y-100040000D01*
X110050000Y-100040000D02*
X109110000Y-100040000D01*
X107510000Y-100040000D02*
X106200000Y-100040000D01*
X106200000Y-100040000D02*
X106200000Y-106860000D01*
X114025000Y-101640000D02*
X112755000Y-101640000D01*
X113905000Y-101640000D02*
X113905000Y-102846667D01*
X113785000Y-101640000D02*
X113785000Y-102846667D01*
X113665000Y-101640000D02*
X113665000Y-102846667D01*
X113545000Y-101640000D02*
X113545000Y-102846667D01*
X113425000Y-101640000D02*
X113425000Y-102846667D01*
X113305000Y-101640000D02*
X113305000Y-102846667D01*
X113185000Y-101640000D02*
X113185000Y-102846667D01*
X113065000Y-101640000D02*
X113065000Y-102846667D01*
X112945000Y-101640000D02*
X112945000Y-102846667D01*
X112825000Y-101640000D02*
X112825000Y-102846667D01*
X112755000Y-101640000D02*
X112755000Y-105260000D01*
X111485000Y-101640000D02*
X110215000Y-101640000D01*
X111365000Y-101640000D02*
X111365000Y-102846667D01*
X111245000Y-101640000D02*
X111245000Y-102846667D01*
X111125000Y-101640000D02*
X111125000Y-102846667D01*
X111005000Y-101640000D02*
X111005000Y-102846667D01*
X110885000Y-101640000D02*
X110885000Y-102846667D01*
X110765000Y-101640000D02*
X110765000Y-102846667D01*
X110645000Y-101640000D02*
X110645000Y-102846667D01*
X110525000Y-101640000D02*
X110525000Y-102846667D01*
X110405000Y-101640000D02*
X110405000Y-102846667D01*
X110285000Y-101640000D02*
X110285000Y-102846667D01*
X110215000Y-101640000D02*
X110215000Y-105260000D01*
X108945000Y-101640000D02*
X107675000Y-101640000D01*
X108825000Y-101640000D02*
X108825000Y-102846667D01*
X108705000Y-101640000D02*
X108705000Y-102846667D01*
X108585000Y-101640000D02*
X108585000Y-102846667D01*
X108465000Y-101640000D02*
X108465000Y-102846667D01*
X108345000Y-101640000D02*
X108345000Y-102846667D01*
X108225000Y-101640000D02*
X108225000Y-102846667D01*
X108105000Y-101640000D02*
X108105000Y-102846667D01*
X107985000Y-101640000D02*
X107985000Y-102846667D01*
X107865000Y-101640000D02*
X107865000Y-102846667D01*
X107745000Y-101640000D02*
X107745000Y-102846667D01*
X107675000Y-101640000D02*
X107675000Y-105260000D01*
X114025000Y-102846667D02*
X112755000Y-102846667D01*
X111485000Y-102846667D02*
X110215000Y-102846667D01*
X108945000Y-102846667D02*
X107675000Y-102846667D01*
X114025000Y-105260000D02*
X114025000Y-101640000D01*
X112755000Y-105260000D02*
X114025000Y-105260000D01*
X111485000Y-105260000D02*
X111485000Y-101640000D01*
X110215000Y-105260000D02*
X111485000Y-105260000D01*
X108945000Y-105260000D02*
X108945000Y-101640000D01*
X107675000Y-105260000D02*
X108945000Y-105260000D01*
X115500000Y-106860000D02*
X114190000Y-106860000D01*
X112590000Y-106860000D02*
X111650000Y-106860000D01*
X110050000Y-106860000D02*
X109110000Y-106860000D01*
X107510000Y-106860000D02*
X106200000Y-106860000D01*
%TO.C,C12*%
X88186252Y-102210000D02*
X86763748Y-102210000D01*
X88186252Y-100390000D02*
X86763748Y-100390000D01*
%TO.C,D2*%
X101210000Y-109210000D02*
X101210000Y-106940000D01*
X101210000Y-106940000D02*
X97325000Y-106940000D01*
X97325000Y-109210000D02*
X101210000Y-109210000D01*
%TO.C,R4*%
X104622936Y-87890000D02*
X106077064Y-87890000D01*
X104622936Y-89710000D02*
X106077064Y-89710000D01*
%TO.C,C11*%
X118310000Y-103488748D02*
X118310000Y-104911252D01*
X116490000Y-103488748D02*
X116490000Y-104911252D01*
%TO.C,U1*%
X103660000Y-96922500D02*
X103185000Y-96922500D01*
X99440000Y-96447500D02*
X99440000Y-96922500D01*
X103660000Y-96447500D02*
X103660000Y-96922500D01*
X99440000Y-93177500D02*
X99440000Y-92702500D01*
X103660000Y-93177500D02*
X103660000Y-92702500D01*
X99440000Y-92702500D02*
X99915000Y-92702500D01*
X103660000Y-92702500D02*
X103185000Y-92702500D01*
%TO.C,C2*%
X96711252Y-97110000D02*
X95288748Y-97110000D01*
X96711252Y-95290000D02*
X95288748Y-95290000D01*
D14*
%TO.C,RN2*%
X133550000Y-94100000D02*
X134150000Y-94100000D01*
D13*
X135550000Y-93800000D02*
X135550000Y-93800000D01*
X135550000Y-93600000D02*
X135550000Y-93600000D01*
D14*
X133550000Y-90900000D02*
X134150000Y-90900000D01*
D13*
X135550000Y-93600000D02*
G75*
G03*
X135550000Y-93800000I0J-100000D01*
G01*
X135550000Y-93800000D02*
G75*
G03*
X135550000Y-93600000I0J100000D01*
G01*
D10*
%TO.C,C7*%
X126235000Y-99213748D02*
X126235000Y-100636252D01*
X124415000Y-99213748D02*
X124415000Y-100636252D01*
%TO.C,R16*%
X114072936Y-90890000D02*
X115527064Y-90890000D01*
X114072936Y-92710000D02*
X115527064Y-92710000D01*
%TO.C,R10*%
X100547936Y-104890000D02*
X102002064Y-104890000D01*
X100547936Y-106710000D02*
X102002064Y-106710000D01*
%TO.C,R15*%
X114072936Y-87890000D02*
X115527064Y-87890000D01*
X114072936Y-89710000D02*
X115527064Y-89710000D01*
%TO.C,R7*%
X109422936Y-84890000D02*
X110877064Y-84890000D01*
X109422936Y-86710000D02*
X110877064Y-86710000D01*
%TD*%
M02*
